<?xml version="1.0" encoding="UTF-8"?>
<svg version="1.1" xmlns="http://www.w3.org/2000/svg" width="417" height="80">
<path d="M0 0 C137.61 0 275.22 0 417 0 C417 26.4 417 52.8 417 80 C279.39 80 141.78 80 0 80 C0 53.6 0 27.2 0 0 Z " fill="#FAFAFA" transform="translate(0,0)"/>
<path d="M0 0 C2.51418485 2.04859507 2.88551403 4.29043859 3.6875 7.375 C3.89375 8.15875 4.1 8.9425 4.3125 9.75 C4.43625 10.28625 4.56 10.8225 4.6875 11.375 C5.6775 11.375 6.6675 11.375 7.6875 11.375 C8.1825 12.86 8.1825 12.86 8.6875 14.375 C9.3475 14.705 10.0075 15.035 10.6875 15.375 C10.6875 14.715 10.6875 14.055 10.6875 13.375 C10.0275 13.375 9.3675 13.375 8.6875 13.375 C8.64495644 11.37545254 8.64669217 9.37458364 8.6875 7.375 C9.0175 7.045 9.3475 6.715 9.6875 6.375 C8.6975 5.715 7.7075 5.055 6.6875 4.375 C9.1625 4.87 9.1625 4.87 11.6875 5.375 C11.6875 6.035 11.6875 6.695 11.6875 7.375 C13.0075 7.705 14.3275 8.035 15.6875 8.375 C15.3575 9.365 15.0275 10.355 14.6875 11.375 C14.1925 9.89 14.1925 9.89 13.6875 8.375 C12.6975 8.375 11.7075 8.375 10.6875 8.375 C10.3575 9.695 10.0275 11.015 9.6875 12.375 C11.9975 12.705 14.3075 13.035 16.6875 13.375 C15.883125 14.179375 15.07875 14.98375 14.25 15.8125 C11.41396412 19.15695688 11.09886682 21.92709125 11.0234375 26.2265625 C10.6875 28.375 10.6875 28.375 9.19140625 30.33203125 C7.33353276 32.85584381 7.25468143 34.33371266 7.25 37.4375 C7.23066406 38.29472656 7.21132813 39.15195312 7.19140625 40.03515625 C7.8471878 43.12817318 9.15476759 43.60303236 11.6875 45.375 C13.27259814 48.2442963 14.19931904 51.13370549 14.6875 54.375 C13.5 57.4375 13.5 57.4375 11.6875 59.375 C11.0275 59.375 10.3675 59.375 9.6875 59.375 C8.90907062 55.96937148 8.58771879 52.86734244 8.6875 49.375 C7.3675 50.035 6.0475 50.695 4.6875 51.375 C4.6875 50.715 4.6875 50.055 4.6875 49.375 C2.31346029 51.74903971 2.26638764 53.14976889 1.6875 56.375 C1.3575 56.705 1.0275 57.035 0.6875 57.375 C2.1725 57.87 2.1725 57.87 3.6875 58.375 C4.1825 57.385 4.1825 57.385 4.6875 56.375 C6.0075 57.035 7.3275 57.695 8.6875 58.375 C8.3575 60.025 8.0275 61.675 7.6875 63.375 C3.22918018 63.40391546 -1.22911569 63.42176981 -5.6875 63.4375 C-6.95851563 63.44587891 -8.22953125 63.45425781 -9.5390625 63.46289062 C-10.75078125 63.46611328 -11.9625 63.46933594 -13.2109375 63.47265625 C-14.89195557 63.48051147 -14.89195557 63.48051147 -16.60693359 63.48852539 C-19.3125 63.375 -19.3125 63.375 -21.3125 62.375 C-21.3125 61.715 -21.3125 61.055 -21.3125 60.375 C-22.2715625 60.189375 -22.2715625 60.189375 -23.25 60 C-23.930625 59.79375 -24.61125 59.5875 -25.3125 59.375 C-26.91930069 56.16139862 -26.79014149 52.86049193 -26.3125 49.375 C-24.5 45.875 -24.5 45.875 -22.3125 43.375 C-21.3225 43.375 -20.3325 43.375 -19.3125 43.375 C-19.3125 40.405 -19.3125 37.435 -19.3125 34.375 C-18.3225 33.88 -18.3225 33.88 -17.3125 33.375 C-17.3125 37.005 -17.3125 40.635 -17.3125 44.375 C-14.14522665 39.2281808 -13.96199536 35.216744 -14.3125 29.375 C-15.9625 30.035 -17.6125 30.695 -19.3125 31.375 C-19.3125 30.715 -19.3125 30.055 -19.3125 29.375 C-19.951875 29.189375 -20.59125 29.00375 -21.25 28.8125 C-23.3125 27.375 -23.3125 27.375 -24.125 23.875 C-24.3125 20.375 -24.3125 20.375 -23.3125 18.375 C-24.3025 18.045 -25.2925 17.715 -26.3125 17.375 C-28.125 15.625 -28.125 15.625 -29.3125 13.375 C-28.6875 10.6875 -28.6875 10.6875 -27.3125 8.375 C-26.3225 8.045 -25.3325 7.715 -24.3125 7.375 C-23.9825 6.385 -23.6525 5.395 -23.3125 4.375 C-19.93432575 3.53045644 -17.63784757 3.26655081 -14.3125 4.375 C-13.9825 3.055 -13.6525 1.735 -13.3125 0.375 C-8.92843398 -1.02790113 -4.45012909 -1.20273759 0 0 Z " fill="#A5A5A5" transform="translate(34.3125,7.625)"/>
<path d="M0 0 C1.051875 -0.00257813 2.10375 -0.00515625 3.1875 -0.0078125 C6 0.125 6 0.125 9 1.125 C9 1.785 9 2.445 9 3.125 C10.0209375 3.186875 10.0209375 3.186875 11.0625 3.25 C15.25679113 4.49936332 18.10893632 6.86768296 21 10.125 C21.9375 13 21.9375 13 22 15.125 C22.66 15.125 23.32 15.125 24 15.125 C26.43688405 23.37896212 25.45903784 31.40868482 22 39.125 C21.67 40.218125 21.34 41.31125 21 42.4375 C19.95198892 45.25402979 19.11635863 46.09891259 17 48.125 C15.8679469 49.43142146 14.74331784 50.74430182 13.625 52.0625 C10.96694525 55.11392437 8.35822537 57.82221689 5 60.125 C4.34 60.125 3.68 60.125 3 60.125 C3 60.785 3 61.445 3 62.125 C-15.98104753 70.31194733 -15.98104753 70.31194733 -26 68.125 C-29.76767272 66.48341189 -32.00630358 64.74297262 -34 61.125 C-34.86890344 55.64169271 -34.7605298 50.40658939 -33 45.125 C-32.34 45.125 -31.68 45.125 -31 45.125 C-30.67 43.475 -30.34 41.825 -30 40.125 C-27.36 40.125 -24.72 40.125 -22 40.125 C-22.2165625 41.10339844 -22.433125 42.08179688 -22.65625 43.08984375 C-24.17331558 50.15086516 -25.50079891 56.86341581 -25 64.125 C-23.87034007 65.45996725 -23.87034007 65.45996725 -20.9375 65.5 C-14.87007424 64.92214993 -10.89322911 62.1234085 -6.75 57.75 C-2.11197164 50.96041402 -2.11197164 50.96041402 0 43.125 C0.144375 41.84625 0.28875 40.5675 0.4375 39.25 C0.40411969 34.85214415 -1.49398476 32.61670541 -4.39453125 29.47265625 C-7.84987818 26.57218255 -11.57568282 26.99091053 -15.875 27 C-17.69644531 26.99613281 -17.69644531 26.99613281 -19.5546875 26.9921875 C-22.51119095 27.10615702 -25.13191815 27.43796899 -28 28.125 C-24.21339614 21.68777343 -20.07675363 18.59080634 -13 16.125 C-9.06202724 15.74390586 -5.76748141 15.91940595 -2 17.125 C-2 17.785 -2 18.445 -2 19.125 C-0.88625 19.2178125 -0.88625 19.2178125 0.25 19.3125 C3.83127761 20.37060475 4.84857871 22.15752236 7 25.125 C7.66 25.455 8.32 25.785 9 26.125 C9.6328125 29.06640625 9.6328125 29.06640625 10.125 32.6875 C10.37636719 34.48380859 10.37636719 34.48380859 10.6328125 36.31640625 C10.75398438 37.24324219 10.87515625 38.17007813 11 39.125 C12.64018707 31.45315725 12.8050223 24.19146999 9 17.125 C7.10039242 15.40906949 5.25880989 14.37989439 3 13.125 C3 12.465 3 11.805 3 11.125 C0.10410348 11.09793555 -2.79153795 11.07812971 -5.6875 11.0625 C-6.50412109 11.05412109 -7.32074219 11.04574219 -8.16210938 11.03710938 C-12.24499084 11.02057949 -16.01651707 11.09464902 -20 12.125 C-18.68228785 7.93681221 -17.27273352 6.19008824 -13.5625 3.875 C-12.78003906 3.37484375 -11.99757813 2.8746875 -11.19140625 2.359375 C-7.3567364 0.19938271 -4.32957012 -0.01061169 0 0 Z " fill="#EF6A34" transform="translate(269,5.875)"/>
<path d="M0 0 C0 0.66 0 1.32 0 2 C1.11375 2.0928125 1.11375 2.0928125 2.25 2.1875 C5.83127761 3.24560475 6.84857871 5.03252236 9 8 C9.66 8.33 10.32 8.66 11 9 C13.06008823 15.18026469 14.24145695 23.08970182 11.6875 29.25 C10 32 10 32 8 33 C7.67 33.99 7.34 34.98 7 36 C5.75 37.375 5.75 37.375 4 39 C3.175 39.825 2.35 40.65 1.5 41.5 C0.675 42.325 -0.15 43.15 -1 44 C-1.53625 44.5775 -2.0725 45.155 -2.625 45.75 C-4 47 -4 47 -7 48 C-7.33 48.66 -7.66 49.32 -8 50 C-13.94450157 51.98150052 -20.79049842 52.34760971 -26.6328125 49.89453125 C-29.12600286 48.0849576 -30.50874023 46.70619788 -32 44 C-32.86890344 38.51669271 -32.7605298 33.28158939 -31 28 C-30.34 28 -29.68 28 -29 28 C-28.67 26.35 -28.34 24.7 -28 23 C-25.36 23 -22.72 23 -20 23 C-20.2165625 23.97839844 -20.433125 24.95679687 -20.65625 25.96484375 C-22.17331558 33.02586516 -23.50079891 39.73841581 -23 47 C-21.87034007 48.33496725 -21.87034007 48.33496725 -18.9375 48.375 C-12.87007424 47.79714993 -8.89322911 44.9984085 -4.75 40.625 C-0.11197164 33.83541402 -0.11197164 33.83541402 2 26 C2.144375 24.72125 2.28875 23.4425 2.4375 22.125 C2.40411969 17.72714415 0.50601524 15.49170541 -2.39453125 12.34765625 C-5.84987818 9.44718255 -9.57568282 9.86591053 -13.875 9.875 C-15.69644531 9.87113281 -15.69644531 9.87113281 -17.5546875 9.8671875 C-20.51119095 9.98115702 -23.13191815 10.31296899 -26 11 C-20.39422263 1.47017848 -11.05259854 -3.53683153 0 0 Z " fill="#10A554" transform="translate(267,23)"/>
<path d="M0 0 C1.78083984 -0.02513672 1.78083984 -0.02513672 3.59765625 -0.05078125 C8.65106319 0.49888758 11.13767278 2.54822066 14.75 6 C17.37562563 9.97594739 17.68867994 12.74699525 16.9375 17.3125 C14.83895869 27.13436137 9.333745 34.04833667 1.0625 39.5625 C-2.05736384 40.66362841 -4.78831359 40.55503233 -8.0625 40.3125 C-10.0625 38.3125 -10.0625 38.3125 -10.328125 36.39453125 C-10.29316097 31.3160053 -9.70070116 27.12471591 -8.0625 22.3125 C-7.4025 22.3125 -6.7425 22.3125 -6.0625 22.3125 C-5.5675 17.8575 -5.5675 17.8575 -5.0625 13.3125 C-7.0425 13.3125 -9.0225 13.3125 -11.0625 13.3125 C-7.3125 10.3125 -7.3125 10.3125 -5.0625 10.3125 C-5.0625 9.3225 -5.0625 8.3325 -5.0625 7.3125 C-7.7025 6.3225 -10.3425 5.3325 -13.0625 4.3125 C-13.0625 3.6525 -13.0625 2.9925 -13.0625 2.3125 C-8.58001879 0.59478583 -4.79407268 0.01564986 0 0 Z " fill="#F9FCFB" transform="translate(253.0625,31.6875)"/>
<path d="M0 0 C5.5952381 0.5952381 5.5952381 0.5952381 8 3 C8.2734375 5.05859375 8.2734375 5.05859375 8.375 7.4375 C8.54681384 9.85215665 8.54681384 9.85215665 9 12 C10.30144802 13.04115841 11.63838689 14.03886134 13 15 C14.51105523 17.90806856 15.51151642 20.75669622 16 24 C14.8125 27.0625 14.8125 27.0625 13 29 C12.34 29 11.68 29 11 29 C10.22157062 25.59437148 9.90021879 22.49234244 10 19 C8.02 19.99 8.02 19.99 6 21 C6 20.34 6 19.68 6 19 C3.62596029 21.37403971 3.57888764 22.77476889 3 26 C2.67 26.33 2.34 26.66 2 27 C2.99 27.33 3.98 27.66 5 28 C5.33 27.34 5.66 26.68 6 26 C7.32 26.66 8.64 27.32 10 28 C9.505 30.475 9.505 30.475 9 33 C4.54168018 33.02891546 0.08338431 33.04676981 -4.375 33.0625 C-5.64601563 33.07087891 -6.91703125 33.07925781 -8.2265625 33.08789062 C-9.43828125 33.09111328 -10.65 33.09433594 -11.8984375 33.09765625 C-13.57945557 33.10551147 -13.57945557 33.10551147 -15.29443359 33.11352539 C-18 33 -18 33 -20 32 C-20 31.34 -20 30.68 -20 30 C-20.99 29.67 -21.98 29.34 -23 29 C-23 26.03 -23 23.06 -23 20 C-19 18 -19 18 -17 18 C-16.360625 17.79375 -15.72125 17.5875 -15.0625 17.375 C-13 17 -13 17 -10 19 C-7.91084801 17.85121254 -7.91084801 17.85121254 -6 16 C-5.51738333 13.49119384 -5.51738333 13.49119384 -5.75 10.8125 C-5.80414062 9.46091797 -5.80414062 9.46091797 -5.859375 8.08203125 C-5.90578125 7.39496094 -5.9521875 6.70789062 -6 6 C-6.66 6 -7.32 6 -8 6 C-8 7.98 -8 9.96 -8 12 C-8.66 12 -9.32 12 -10 12 C-10.33 8.37 -10.66 4.74 -11 1 C-9.35 1 -7.7 1 -6 1 C-6 1.66 -6 2.32 -6 3 C-4.68 2.67 -3.36 2.34 -2 2 C-2.33 4.64 -2.66 7.28 -3 10 C-2.34 10 -1.68 10 -1 10 C-1.01160156 9.36191406 -1.02320312 8.72382812 -1.03515625 8.06640625 C-1.04417969 7.24011719 -1.05320312 6.41382813 -1.0625 5.5625 C-1.07410156 4.73878906 -1.08570312 3.91507813 -1.09765625 3.06640625 C-1 1 -1 1 0 0 Z " fill="#646464" transform="translate(33,38)"/>
<path d="M0 0 C1.98 0.99 3.96 1.98 6 3 C5.34 3.66 4.68 4.32 4 5 C4 5.33 4 5.66 4 6 C5.65 6.66 7.3 7.32 9 8 C9.66 7.01 10.32 6.02 11 5 C11.33 5.99 11.66 6.98 12 8 C12.66 8 13.32 8 14 8 C14.33 7.34 14.66 6.68 15 6 C15.99 6.66 16.98 7.32 18 8 C18.33 7.01 18.66 6.02 19 5 C20.98 5.33 22.96 5.66 25 6 C23.72278474 10.99275057 21.82669043 13.57611908 18 17 C18 16.01 18 15.02 18 14 C16.02 14 14.04 14 12 14 C11.67 16.97 11.34 19.94 11 23 C10.34 23 9.68 23 9 23 C9 20.69 9 18.38 9 16 C8.01 16 7.02 16 6 16 C6 15.34 6 14.68 6 14 C4.35 14 2.7 14 1 14 C1.165 14.515625 1.33 15.03125 1.5 15.5625 C2.15049 18.73363876 2.0620734 21.77218334 2 25 C2.66 25 3.32 25 4 25 C4 23.02 4 21.04 4 19 C4.66 19 5.32 19 6 19 C6.33 22.63 6.66 26.26 7 30 C5.02 30.99 5.02 30.99 3 32 C2.34 32.66 1.68 33.32 1 34 C1 33.01 1 32.02 1 31 C-0.98 31 -2.96 31 -5 31 C-5.495 32.485 -5.495 32.485 -6 34 C-6.66 33.34 -7.32 32.68 -8 32 C-10.76223278 34.76223278 -10.57856291 37.20706617 -11 41 C-10.34 41.33 -9.68 41.66 -9 42 C-9.99 42 -10.98 42 -12 42 C-13.60680069 38.78639862 -13.47764149 35.48549193 -13 32 C-11.1875 28.5 -11.1875 28.5 -9 26 C-8.01 26 -7.02 26 -6 26 C-6 23.03 -6 20.06 -6 17 C-5.34 16.67 -4.68 16.34 -4 16 C-4 19.63 -4 23.26 -4 27 C-0.83272665 21.8531808 -0.64949536 17.841744 -1 12 C-2.65 12.66 -4.3 13.32 -6 14 C-6 13.34 -6 12.68 -6 12 C-7.32 11.34 -8.64 10.68 -10 10 C-9.67 8.68 -9.34 7.36 -9 6 C-6.525 6.99 -6.525 6.99 -4 8 C-4.33 7.01 -4.66 6.02 -5 5 C-4.0625 2.8125 -4.0625 2.8125 -3 1 C-2.34 1 -1.68 1 -1 1 C-0.67 0.67 -0.34 0.34 0 0 Z " fill="#636363" transform="translate(21,25)"/>
<path d="M0 0 C3.96 0 7.92 0 12 0 C12.33 1.32 12.66 2.64 13 4 C13.99 4.33 14.98 4.66 16 5 C16 6.65 16 8.3 16 10 C17.32 10 18.64 10 20 10 C20.33 10.99 20.66 11.98 21 13 C21.66 13.33 22.32 13.66 23 14 C23 13.34 23 12.68 23 12 C22.34 12 21.68 12 21 12 C20.95745644 10.00045254 20.95919217 7.99958364 21 6 C21.33 5.67 21.66 5.34 22 5 C21.01 4.34 20.02 3.68 19 3 C21.475 3.495 21.475 3.495 24 4 C24 4.66 24 5.32 24 6 C25.32 6.33 26.64 6.66 28 7 C27.67 7.99 27.34 8.98 27 10 C26.67 9.01 26.34 8.02 26 7 C25.01 7 24.02 7 23 7 C22.67 8.32 22.34 9.64 22 11 C24.31 11.33 26.62 11.66 29 12 C27.69791667 13.43229167 26.39583333 14.86458333 25.09375 16.296875 C23.63975508 18.22360515 23.63975508 18.22360515 24 22 C23.195625 22.144375 22.39125 22.28875 21.5625 22.4375 C19.07896294 22.74135249 19.07896294 22.74135249 18 24 C17.67 24.66 17.34 25.32 17 26 C16.67 25.01 16.34 24.02 16 23 C15.071875 23.33 14.14375 23.66 13.1875 24 C10 25 10 25 7 25 C7 24.34 7 23.68 7 23 C6.01 23.33 5.02 23.66 4 24 C3.67 25.65 3.34 27.3 3 29 C2.67 29 2.34 29 2 29 C2 25.7 2 22.4 2 19 C2.66 19 3.32 19 4 19 C3.34 18.34 2.68 17.68 2 17 C2.33 16.01 2.66 15.02 3 14 C6.465 13.505 6.465 13.505 10 13 C10.66 11.02 11.32 9.04 12 7 C11.34 6.67 10.68 6.34 10 6 C10 6.99 10 7.98 10 9 C6.125 7.25 6.125 7.25 5 5 C4.34 5 3.68 5 3 5 C2.67 5.66 2.34 6.32 2 7 C1.01 6.67 0.02 6.34 -1 6 C-0.67 4.02 -0.34 2.04 0 0 Z " fill="#9B9B9B" transform="translate(22,9)"/>
<path d="M0 0 C0.99 0 1.98 0 3 0 C3 2.31 3 4.62 3 7 C3.66 6.01 4.32 5.02 5 4 C7.6015625 3.70703125 7.6015625 3.70703125 10.625 3.8125 C12.12933594 3.85310547 12.12933594 3.85310547 13.6640625 3.89453125 C14.43492187 3.92933594 15.20578125 3.96414062 16 4 C16 3.01 16 2.02 16 1 C18.64 1 21.28 1 24 1 C24.33 2.98 24.66 4.96 25 7 C24.01 7.495 24.01 7.495 23 8 C22.34786708 10.02463255 22.34786708 10.02463255 22 12 C22.66 12 23.32 12 24 12 C24 12.66 24 13.32 24 14 C22.35 14 20.7 14 19 14 C18.67 11.69 18.34 9.38 18 7 C17.67 9.31 17.34 11.62 17 14 C16.236875 13.9175 15.47375 13.835 14.6875 13.75 C13.3571875 13.87375 13.3571875 13.87375 12 14 C11.54625 14.66 11.0925 15.32 10.625 16 C10.08875 16.66 9.5525 17.32 9 18 C5.3125 18.25 5.3125 18.25 2 18 C2 17.34 2 16.68 2 16 C3.98 16 5.96 16 8 16 C8 15.34 8 14.68 8 14 C6.35 14 4.7 14 3 14 C2.67 13.34 2.34 12.68 2 12 C1.67 12.66 1.34 13.32 1 14 C0.01 14 -0.98 14 -2 14 C-1.85970581 11.8537974 -1.71261836 9.70803782 -1.5625 7.5625 C-1.48128906 6.36753906 -1.40007812 5.17257813 -1.31640625 3.94140625 C-1 1 -1 1 0 0 Z " fill="#9D9EA3" transform="translate(318,25)"/>
<path d="M0 0 C1.5778125 0.4021875 1.5778125 0.4021875 3.1875 0.8125 C3.5175 1.8025 3.8475 2.7925 4.1875 3.8125 C4.8475 3.4825 5.5075 3.1525 6.1875 2.8125 C9.25 2.6875 9.25 2.6875 12.1875 2.8125 C13.1875 3.8125 13.1875 3.8125 13.4375 7.25 C13.355 8.425625 13.2725 9.60125 13.1875 10.8125 C9.7522952 13.10263653 8.202169 12.99092973 4.1875 12.8125 C4.1875 12.1525 4.1875 11.4925 4.1875 10.8125 C3.48625 11.1425 2.785 11.4725 2.0625 11.8125 C-1.13987239 12.92636866 -3.44664152 13.18648428 -6.8125 12.8125 C-8.99288095 9.54192857 -9.44496755 8.60730531 -8.8125 4.8125 C-5.98388619 0.86958378 -4.94310637 -0.24310359 0 0 Z " fill="#EFEFF0" transform="translate(311.8125,48.1875)"/>
<path d="M0 0 C2.64 0 5.28 0 8 0 C7.79503906 0.95519531 7.59007812 1.91039062 7.37890625 2.89453125 C5.76365056 10.58769777 4.47419073 18.13497437 4 26 C-2.06123718 23.87037613 -2.06123718 23.87037613 -4 21 C-4.328125 17.96875 -4.328125 17.96875 -4.25 14.5 C-4.23453125 13.3553125 -4.2190625 12.210625 -4.203125 11.03125 C-4 8 -4 8 -3 5 C-2.34 5 -1.68 5 -1 5 C-0.67 3.35 -0.34 1.7 0 0 Z " fill="#1679BC" transform="translate(239,46)"/>
<path d="M0 0 C2.97 0.495 2.97 0.495 6 1 C6 5.29 6 9.58 6 14 C6.66 14 7.32 14 8 14 C8 14.66 8 15.32 8 16 C3.33333333 16 -1.33333333 16 -6 16 C-6 12.7 -6 9.4 -6 6 C-6.66 6 -7.32 6 -8 6 C-8 7.98 -8 9.96 -8 12 C-8.66 12 -9.32 12 -10 12 C-10.33 8.37 -10.66 4.74 -11 1 C-9.35 1 -7.7 1 -6 1 C-6 1.66 -6 2.32 -6 3 C-4.68 2.67 -3.36 2.34 -2 2 C-2.33 4.64 -2.66 7.28 -3 10 C-2.34 10 -1.68 10 -1 10 C-1.01160156 9.36191406 -1.02320313 8.72382812 -1.03515625 8.06640625 C-1.04417969 7.24011719 -1.05320312 6.41382813 -1.0625 5.5625 C-1.07410156 4.73878906 -1.08570313 3.91507813 -1.09765625 3.06640625 C-1 1 -1 1 0 0 Z " fill="#737373" transform="translate(33,38)"/>
<path d="M0 0 C-0.061875 0.86625 -0.12375 1.7325 -0.1875 2.625 C0.02455502 6.44199033 1.12044307 8.71077536 3 12 C-0.63 11.67 -4.26 11.34 -8 11 C-8.33 11.99 -8.66 12.98 -9 14 C-9 13.34 -9 12.68 -9 12 C-9.99 11.67 -10.98 11.34 -12 11 C-12 8.03 -12 5.06 -12 2 C-8 0 -8 0 -6 0 C-3 -1 -3 -1 0 0 Z " fill="#969696" transform="translate(22,56)"/>
<path d="M0 0 C6.625 -0.25 6.625 -0.25 10 2 C10.77419355 8.96774194 10.77419355 8.96774194 8.5 12 C4.87920862 13.44831655 1.88716564 13.19435828 -2 13 C-1.34 8.71 -0.68 4.42 0 0 Z " fill="#909297" transform="translate(305,26)"/>
<path d="M0 0 C1.65 0.33 3.3 0.66 5 1 C5 1.66 5 2.32 5 3 C6.32 3.33 7.64 3.66 9 4 C8.67 4.99 8.34 5.98 8 7 C7.67 6.01 7.34 5.02 7 4 C6.01 4 5.02 4 4 4 C3.67 5.32 3.34 6.64 3 8 C5.31 8.33 7.62 8.66 10 9 C8.71937515 10.7074998 7.38232443 12.37373596 6 14 C5.34 14 4.68 14 4 14 C3.67 14.99 3.34 15.98 3 17 C1.68 16.34 0.36 15.68 -1 15 C-0.67 15.66 -0.34 16.32 0 17 C-0.99 17.33 -1.98 17.66 -3 18 C-4 15 -4 15 -4 12 C-6.475 13.485 -6.475 13.485 -9 15 C-9.66 14.34 -10.32 13.68 -11 13 C-10.38125 12.690625 -9.7625 12.38125 -9.125 12.0625 C-5.92315624 8.95482812 -5.68447192 5.29596194 -5 1 C-2.8614515 3.1385485 -2.57344937 4.13275314 -2 7 C-1.01 7 -0.02 7 1 7 C1.33 7.99 1.66 8.98 2 10 C2.66 10.33 3.32 10.66 4 11 C4 10.34 4 9.68 4 9 C3.34 9 2.68 9 2 9 C1.95745644 7.00045254 1.95919217 4.99958364 2 3 C2.33 2.67 2.66 2.34 3 2 C2.01 1.34 1.02 0.68 0 0 Z " fill="#585858" transform="translate(41,12)"/>
<path d="M0 0 C3.375 0.6875 3.375 0.6875 4.375 1.6875 C4.705 1.0275 5.035 0.3675 5.375 -0.3125 C7.025 -0.3125 8.675 -0.3125 10.375 -0.3125 C10.375 0.3475 10.375 1.0075 10.375 1.6875 C9.385 2.1825 9.385 2.1825 8.375 2.6875 C7.64424352 5.0015622 6.97361742 7.33578869 6.375 9.6875 C2.415 9.6875 -1.545 9.6875 -5.625 9.6875 C-7.01931504 6.89886993 -6.88160094 4.76671132 -6.625 1.6875 C-3.625 -0.3125 -3.625 -0.3125 0 0 Z " fill="#88898F" transform="translate(351.625,52.3125)"/>
<path d="M0 0 C0.99 0 1.98 0 3 0 C2.58846263 4.97093824 2.20399168 9.44508386 0 14 C-2.64 14 -5.28 14 -8 14 C-8.02708567 12.39592672 -8.04643483 10.7917215 -8.0625 9.1875 C-8.07410156 8.29417969 -8.08570313 7.40085937 -8.09765625 6.48046875 C-8 4 -8 4 -7 1 C-5.68 1 -4.36 1 -3 1 C-2.67 1.66 -2.34 2.32 -2 3 C-1.34 2.01 -0.68 1.02 0 0 Z " fill="#DDDDDE" transform="translate(383,48)"/>
<path d="M0 0 C1.98 0.99 3.96 1.98 6 3 C5.34 3.66 4.68 4.32 4 5 C3.54188325 6.97235333 3.54188325 6.97235333 3.375 9.125 C3.25125 10.40375 3.1275 11.6825 3 13 C1.6078125 12.9690625 1.6078125 12.9690625 0.1875 12.9375 C-3.02286011 12.84230396 -3.02286011 12.84230396 -6 14 C-6 13.34 -6 12.68 -6 12 C-7.32 11.34 -8.64 10.68 -10 10 C-9.67 8.68 -9.34 7.36 -9 6 C-6.525 6.99 -6.525 6.99 -4 8 C-4.33 7.01 -4.66 6.02 -5 5 C-4.0625 2.8125 -4.0625 2.8125 -3 1 C-2.34 1 -1.68 1 -1 1 C-0.67 0.67 -0.34 0.34 0 0 Z " fill="#3D3D3D" transform="translate(21,25)"/>
<path d="M0 0 C0.66 0.99 1.32 1.98 2 3 C2.66 3 3.32 3 4 3 C4.33 2.34 4.66 1.68 5 1 C5.99 1.66 6.98 2.32 8 3 C8.33 2.01 8.66 1.02 9 0 C11.97 0.495 11.97 0.495 15 1 C13.72278474 5.99275057 11.82669043 8.57611908 8 12 C8 11.01 8 10.02 8 9 C5.36 9 2.72 9 0 9 C-0.33 8.34 -0.66 7.68 -1 7 C-1.99 7.495 -1.99 7.495 -3 8 C-3.33 6.02 -3.66 4.04 -4 2 C-3.01 2.33 -2.02 2.66 -1 3 C-0.67 2.01 -0.34 1.02 0 0 Z " fill="#575757" transform="translate(31,30)"/>
<path d="M0 0 C2.33944736 0.28730055 4.6739143 0.61936779 7 1 C7 1.66 7 2.32 7 3 C8.2065625 2.7215625 8.2065625 2.7215625 9.4375 2.4375 C10.7059375 2.2209375 10.7059375 2.2209375 12 2 C13 3 13 3 13.0625 5.5625 C13.041875 6.366875 13.02125 7.17125 13 8 C8.51090752 9.28259785 4.50620053 9.18584224 0 8 C-0.66 7.34 -1.32 6.68 -2 6 C-1.44444444 1.44444444 -1.44444444 1.44444444 0 0 Z " fill="#7F7F7F" transform="translate(61,62)"/>
<path d="M0 0 C3.96 0 7.92 0 12 0 C13.9510801 3.90216019 14.2537788 4.67715559 13.75 8.6875 C13.61851563 9.86892578 13.61851563 9.86892578 13.484375 11.07421875 C13.24460937 12.02748047 13.24460937 12.02748047 13 13 C12.01 13.495 12.01 13.495 11 14 C11.33 11.69 11.66 9.38 12 7 C11.34 6.67 10.68 6.34 10 6 C10 6.99 10 7.98 10 9 C6.125 7.25 6.125 7.25 5 5 C4.34 5 3.68 5 3 5 C2.67 5.66 2.34 6.32 2 7 C1.01 6.67 0.02 6.34 -1 6 C-0.67 4.02 -0.34 2.04 0 0 Z " fill="#ACACAC" transform="translate(22,9)"/>
<path d="M0 0 C0.33 0.99 0.66 1.98 1 3 C1.66 3.33 2.32 3.66 3 4 C3.66 4.66 4.32 5.32 5 6 C5 5.01 5 4.02 5 3 C5.99 3.33 6.98 3.66 8 4 C7.25 6.9375 7.25 6.9375 6 10 C3.875 10.875 3.875 10.875 2 11 C1.67 12.32 1.34 13.64 1 15 C1 13.68 1 12.36 1 11 C0.01 11 -0.98 11 -2 11 C-2.33 11.99 -2.66 12.98 -3 14 C-3.185625 12.948125 -3.185625 12.948125 -3.375 11.875 C-4.03838345 8.82343613 -4.97211955 5.94659062 -6 3 C-4.02 2.67 -2.04 2.34 0 2 C0 1.34 0 0.68 0 0 Z " fill="#4E4E4E" transform="translate(27,12)"/>
<path d="M0 0 C3.3 0 6.6 0 10 0 C10 2.97 10 5.94 10 9 C6.7 9 3.4 9 0 9 C0 6.03 0 3.06 0 0 Z " fill="#A4A2A0" transform="translate(60,33)"/>
<path d="M0 0 C0.99 0 1.98 0 3 0 C3 2.97 3 5.94 3 9 C1.02 9 -0.96 9 -3 9 C-3 7.35 -3 5.7 -3 4 C-3.66 4 -4.32 4 -5 4 C-5 5.65 -5 7.3 -5 9 C-6.98 9 -8.96 9 -11 9 C-11 8.01 -11 7.02 -11 6 C-10.34 5.67 -9.68 5.34 -9 5 C-9.33 4.01 -9.66 3.02 -10 2 C-8.8553125 2.0309375 -8.8553125 2.0309375 -7.6875 2.0625 C-4.89814214 2.12942841 -4.89814214 2.12942841 -2 1 C-1.34 1.33 -0.68 1.66 0 2 C0 1.34 0 0.68 0 0 Z " fill="#3F3E3E" transform="translate(110,47)"/>
<path d="M0 0 C2.33294775 -0.04241723 4.66702567 -0.04092937 7 0 C7.33 0.33 7.66 0.66 8 1 C7.28 7.72 7.28 7.72 6 9 C4.33382885 9.04063832 2.66611905 9.042721 1 9 C0.67 10.32 0.34 11.64 0 13 C-0.99 13 -1.98 13 -3 13 C-2.69128878 11.20767663 -2.37790936 9.41615679 -2.0625 7.625 C-1.88847656 6.62726562 -1.71445312 5.62953125 -1.53515625 4.6015625 C-1 2 -1 2 0 0 Z " fill="#86888D" transform="translate(335,52)"/>
<path d="M0 0 C-0.33 2.97 -0.66 5.94 -1 9 C-4.3 9 -7.6 9 -11 9 C-11.48192771 3.57831325 -11.48192771 3.57831325 -9.4375 1.125 C-6.19726212 -0.3704944 -3.52393641 -0.20330402 0 0 Z " fill="#96979C" transform="translate(373,52)"/>
<path d="M0 0 C0.99 0 1.98 0 3 0 C3 0.66 3 1.32 3 2 C6.41656024 2.16677282 6.41656024 2.16677282 10 2 C10.66 1.34 11.32 0.68 12 0 C12.99 0.33 13.98 0.66 15 1 C14.34 1 13.68 1 13 1 C13.33 1.99 13.66 2.98 14 4 C13.5625 6.6875 13.5625 6.6875 13 9 C11.35 9 9.7 9 8 9 C8 7.35 8 5.7 8 4 C7.01 4 6.02 4 5 4 C5 5.65 5 7.3 5 9 C3.35 9 1.7 9 0 9 C0 6.03 0 3.06 0 0 Z " fill="#313031" transform="translate(60,47)"/>
<path d="M0 0 C2.01822917 0.06510417 4.03645833 0.13020833 6.0546875 0.1953125 C5.7246875 3.1653125 5.3946875 6.1353125 5.0546875 9.1953125 C-1.09765625 9.29296875 -1.09765625 9.29296875 -2.9453125 9.1953125 C-3.9453125 8.1953125 -3.9453125 8.1953125 -4.1328125 5.2578125 C-3.92687974 1.89424416 -3.58087 0.3595251 0 0 Z " fill="#818288" transform="translate(347.9453125,29.8046875)"/>
<path d="M0 0 C2.4375 0.75 2.4375 0.75 4.4375 2.75 C4.25 5.25 4.25 5.25 3.4375 7.75 C0.4375 9.75 0.4375 9.75 -2.1875 9.4375 C-4.5625 8.75 -4.5625 8.75 -5.5625 7.75 C-5.8125 4.8125 -5.8125 4.8125 -5.5625 1.75 C-2.5625 -0.25 -2.5625 -0.25 0 0 Z " fill="#C0C0C0" transform="translate(29.5625,56.25)"/>
<path d="M0 0 C1.65 0 3.3 0 5 0 C5 0.66 5 1.32 5 2 C6.32 1.67 7.64 1.34 9 1 C8.67 5.62 8.34 10.24 8 15 C7.01 15 6.02 15 5 15 C5 11.7 5 8.4 5 5 C4.34 5 3.68 5 3 5 C3 6.98 3 8.96 3 11 C2.34 11 1.68 11 1 11 C0.67 7.37 0.34 3.74 0 0 Z " fill="#DDDDDD" transform="translate(22,39)"/>
<path d="M0 0 C0.1875 2.875 0.1875 2.875 0 6 C-3.4352048 8.29013653 -4.985331 8.17842973 -9 8 C-9.33 5.69 -9.66 3.38 -10 1 C-6.42181037 -1.33958553 -4.07775191 -0.9267618 0 0 Z " fill="#8D8F94" transform="translate(325,53)"/>
<path d="M0 0 C0.66 0.66 1.32 1.32 2 2 C1.75 5.0625 1.75 5.0625 1 8 C-1.73247348 9.36623674 -3.98198902 9.128426 -7 9 C-8 8 -8 8 -8.25 5.0625 C-8.1675 4.051875 -8.085 3.04125 -8 2 C-4.77626323 -0.14915785 -3.73296326 -0.38286803 0 0 Z " fill="#7F8087" transform="translate(394,52)"/>
<path d="M0 0 C2.31243792 -0.02685412 4.6249627 -0.04632841 6.9375 -0.0625 C8.22527344 -0.07410156 9.51304688 -0.08570313 10.83984375 -0.09765625 C14 0 14 0 15 1 C15.04080783 2.99958364 15.04254356 5.00045254 15 7 C14.34 7 13.68 7 13 7 C13 5.35 13 3.7 13 2 C12.34 2 11.68 2 11 2 C11 3.65 11 5.3 11 7 C10.34 7 9.68 7 9 7 C9 5.35 9 3.7 9 2 C8.34 2 7.68 2 7 2 C7 3.65 7 5.3 7 7 C6.34 7 5.68 7 5 7 C4.67 6.01 4.34 5.02 4 4 C3.34 3.67 2.68 3.34 2 3 C2 4.32 2 5.64 2 7 C1.34 7 0.68 7 0 7 C0 4.69 0 2.38 0 0 Z " fill="#2E3036" transform="translate(83,49)"/>
<path d="M0 0 C1.85776765 3.13498292 2.20140476 5.37471432 2 9 C2.66 8.67 3.32 8.34 4 8 C3.67 6.35 3.34 4.7 3 3 C4.65 4.65 6.3 6.3 8 8 C8.66 7.67 9.32 7.34 10 7 C10 8.32 10 9.64 10 11 C9.195625 11.144375 8.39125 11.28875 7.5625 11.4375 C5.07896294 11.74135249 5.07896294 11.74135249 4 13 C3.67 13.66 3.34 14.32 3 15 C2.67 14.01 2.34 13.02 2 12 C0.68 12.33 -0.64 12.66 -2 13 C-2.33 12.34 -2.66 11.68 -3 11 C-2.67 10.34 -2.34 9.68 -2 9 C-3.32 8.67 -4.64 8.34 -6 8 C-2.125 5 -2.125 5 -1 5 C-0.67 3.35 -0.34 1.7 0 0 Z " fill="#7D7D7D" transform="translate(36,20)"/>
<path d="M0 0 C1.5778125 0.4021875 1.5778125 0.4021875 3.1875 0.8125 C3.1875 1.8025 3.1875 2.7925 3.1875 3.8125 C0.8775 3.8125 -1.4325 3.8125 -3.8125 3.8125 C-4.4725 6.1225 -5.1325 8.4325 -5.8125 10.8125 C-2.3475 10.3175 -2.3475 10.3175 1.1875 9.8125 C1.1875 10.4725 1.1875 11.1325 1.1875 11.8125 C-1.60113007 13.20681504 -3.73328868 13.06910094 -6.8125 12.8125 C-8.99288095 9.54192857 -9.44496755 8.60730531 -8.8125 4.8125 C-5.98388619 0.86958378 -4.94310637 -0.24310359 0 0 Z " fill="#9A9BA0" transform="translate(311.8125,48.1875)"/>
<path d="M0 0 C-0.33 1.32 -0.66 2.64 -1 4 C-1.66 3.67 -2.32 3.34 -3 3 C-3 2.34 -3 1.68 -3 1 C-8.445 0.505 -8.445 0.505 -14 0 C-13.67 1.32 -13.34 2.64 -13 4 C-13.66 4 -14.32 4 -15 4 C-15 4.66 -15 5.32 -15 6 C-16.32 6.33 -17.64 6.66 -19 7 C-18.34 7.33 -17.68 7.66 -17 8 C-18.65 9.65 -20.3 11.3 -22 13 C-22.66 11.68 -23.32 10.36 -24 9 C-23.34 8.67 -22.68 8.34 -22 8 C-21.34 8.33 -20.68 8.66 -20 9 C-20.33 7.02 -20.66 5.04 -21 3 C-19.35 3 -17.7 3 -16 3 C-15.67 1.68 -15.34 0.36 -15 -1 C-9.90848331 -2.62928534 -4.61112076 -2.95111729 0 0 Z " fill="#6D6D6D" transform="translate(36,9)"/>
<path d="M0 0 C0 2.64 0 5.28 0 8 C-3.20062687 9.60031344 -5.72271806 8.03173691 -9 7 C-9.33 5.02 -9.66 3.04 -10 1 C-9.401875 0.855625 -8.80375 0.71125 -8.1875 0.5625 C-2.61290323 -0.87096774 -2.61290323 -0.87096774 0 0 Z " fill="#A4A4A4" transform="translate(22,56)"/>
<path d="M0 0 C6.27 0 12.54 0 19 0 C19 1.32 19 2.64 19 4 C11 4 11 4 8.125 3.4375 C5.04827522 3.00675853 2.97557282 3.21234837 0 4 C0 2.68 0 1.36 0 0 Z " fill="#737373" transform="translate(10,74)"/>
<path d="M0 0 C0 1.65 0 3.3 0 5 C-0.33 4.34 -0.66 3.68 -1 3 C-1.99 3.66 -2.98 4.32 -4 5 C-6.26171875 5.1953125 -6.26171875 5.1953125 -8.6875 5.125 C-9.49574219 5.10695313 -10.30398437 5.08890625 -11.13671875 5.0703125 C-12.05904297 5.03550781 -12.05904297 5.03550781 -13 5 C-13.33 3.35 -13.66 1.7 -14 0 C-12.2300132 -0.19532961 -10.45895721 -0.38098882 -8.6875 -0.5625 C-7.70136719 -0.66691406 -6.71523438 -0.77132812 -5.69921875 -0.87890625 C-3 -1 -3 -1 0 0 Z " fill="#E5E5E5" transform="translate(47,73)"/>
<path d="M0 0 C1.64574566 -0.02688151 3.29161413 -0.04634123 4.9375 -0.0625 C5.85402344 -0.07410156 6.77054687 -0.08570313 7.71484375 -0.09765625 C10 0 10 0 11 1 C11.04063832 2.66617115 11.042721 4.33388095 11 6 C8.6875 6.6875 8.6875 6.6875 6 7 C4.1875 5.5625 4.1875 5.5625 3 4 C2.67 4.99 2.34 5.98 2 7 C1.34 7 0.68 7 0 7 C0 4.69 0 2.38 0 0 Z " fill="#636160" transform="translate(90,35)"/>
<path d="M0 0 C2.64 0 5.28 0 8 0 C8.33 1.98 8.66 3.96 9 6 C8.01 6.495 8.01 6.495 7 7 C6.34786708 9.02463255 6.34786708 9.02463255 6 11 C6.66 11 7.32 11 8 11 C8 11.66 8 12.32 8 13 C6.35 13 4.7 13 3 13 C2.9729957 11.54176788 2.95360213 10.08339325 2.9375 8.625 C2.92589844 7.81289063 2.91429687 7.00078125 2.90234375 6.1640625 C3 4 3 4 4 2 C2.68 2 1.36 2 0 2 C0 1.34 0 0.68 0 0 Z " fill="#B8B9BC" transform="translate(334,26)"/>
<path d="M0 0 C0.66 0 1.32 0 2 0 C2 0.66 2 1.32 2 2 C3.65 1.34 5.3 0.68 7 0 C8.46751243 6.89092794 7.78003299 11.04604246 4 17 C3.34 16.67 2.68 16.34 2 16 C2.33 15.34 2.66 14.68 3 14 C3.06950541 12.45976004 3.08452357 10.91665012 3.0625 9.375 C3.05347656 8.55773438 3.04445313 7.74046875 3.03515625 6.8984375 C3.02355469 6.27195312 3.01195312 5.64546875 3 5 C2.34 5 1.68 5 1 5 C0.67 3.35 0.34 1.7 0 0 Z " fill="#DEDEDE" transform="translate(13,37)"/>
<path d="M0 0 C0.66 0 1.32 0 2 0 C2.33 0.33 2.66 0.66 3 1 C3.99 0.67 4.98 0.34 6 0 C6.33 3.63 6.66 7.26 7 11 C6.67 10.34 6.34 9.68 6 9 C2.75266665 7.7242619 0.32967418 8.16758145 -3 9 C-2.690625 8.443125 -2.38125 7.88625 -2.0625 7.3125 C-0.94238179 4.87459567 -0.43962636 2.63775814 0 0 Z " fill="#BCBCBC" transform="translate(37,57)"/>
<path d="M0 0 C0.66 0 1.32 0 2 0 C1.67 4.29 1.34 8.58 1 13 C-5.93359375 13.09765625 -5.93359375 13.09765625 -8 13 C-9 12 -9 12 -9.0625 9.4375 C-9.041875 8.633125 -9.02125 7.82875 -9 7 C-8.01 7 -7.02 7 -6 7 C-6.33 8.32 -6.66 9.64 -7 11 C-5.68 11 -4.36 11 -3 11 C-2.67 9.02 -2.34 7.04 -2 5 C-1.34 5 -0.68 5 0 5 C0 3.35 0 1.7 0 0 Z " fill="#999A9F" transform="translate(390,26)"/>
<path d="M0 0 C-0.309375 0.515625 -0.61875 1.03125 -0.9375 1.5625 C-2.29059287 4.66665423 -2.61359424 7.65115007 -3 11 C-4.32 11 -5.64 11 -7 11 C-8.125 5.375 -8.125 5.375 -7 2 C-9.64 2.33 -12.28 2.66 -15 3 C-15 2.34 -15 1.68 -15 1 C-13.25021843 0.83105557 -11.50016388 0.66493691 -9.75 0.5 C-8.77546875 0.4071875 -7.8009375 0.314375 -6.796875 0.21875 C-4.53697847 0.04199832 -2.26679807 0 0 0 Z " fill="#DBDBDD" transform="translate(338,28)"/>
<path d="M0 0 C1.34061543 0.30271961 2.67405895 0.63837971 4 1 C4.66 1 5.32 1 6 1 C7.66666667 1 9.33333333 1 11 1 C10.67 1.66 10.34 2.32 10 3 C9.34 2.67 8.68 2.34 8 2 C8 3.32 8 4.64 8 6 C9.32 5.67 10.64 5.34 12 5 C11.67 5.66 11.34 6.32 11 7 C10.030625 6.814375 9.06125 6.62875 8.0625 6.4375 C7.051875 6.293125 6.04125 6.14875 5 6 C4.67 6.33 4.34 6.66 4 7 C2.33382885 7.04063832 0.66611905 7.042721 -1 7 C-1.04254356 5.00045254 -1.04080783 2.99958364 -1 1 C-0.67 0.67 -0.34 0.34 0 0 Z " fill="#4A4B4C" transform="translate(141,49)"/>
<path d="M0 0 C0.66 0.33 1.32 0.66 2 1 C2 2.98 2 4.96 2 7 C1.01 7 0.02 7 -1 7 C-1.33 8.32 -1.66 9.64 -2 11 C-2.33 10.34 -2.66 9.68 -3 9 C-4.98 9.33 -6.96 9.66 -9 10 C-8.1875 7.5625 -8.1875 7.5625 -7 5 C-6.01 4.67 -5.02 4.34 -4 4 C-3.67 3.01 -3.34 2.02 -3 1 C-2.01 0.67 -1.02 0.34 0 0 Z " fill="#AFAFAF" transform="translate(14,11)"/>
<path d="M0 0 C1.65 0 3.3 0 5 0 C5 1.32 5 2.64 5 4 C5.66 4.33 6.32 4.66 7 5 C7.40729228 7.32156597 7.74438677 9.6568787 8 12 C6.35 12.66 4.7 13.32 3 14 C3.33 11.69 3.66 9.38 4 7 C3.01 6.67 2.02 6.34 1 6 C-0.25 4.0625 -0.25 4.0625 -1 2 C-0.67 1.34 -0.34 0.68 0 0 Z " fill="#747474" transform="translate(7,19)"/>
<path d="M0 0 C2.05078125 0.03255208 4.1015625 0.06510417 6.15234375 0.09765625 C5.82234375 3.06765625 5.49234375 6.03765625 5.15234375 9.09765625 C4.49234375 9.09765625 3.83234375 9.09765625 3.15234375 9.09765625 C3.15234375 6.78765625 3.15234375 4.47765625 3.15234375 2.09765625 C2.16234375 2.59265625 2.16234375 2.59265625 1.15234375 3.09765625 C0.49461947 6.12700116 0.49461947 6.12700116 0.15234375 9.09765625 C-0.83765625 9.09765625 -1.82765625 9.09765625 -2.84765625 9.09765625 C-2.9453125 2.9453125 -2.9453125 2.9453125 -2.84765625 1.09765625 C-1.84765625 0.09765625 -1.84765625 0.09765625 0 0 Z " fill="#88898F" transform="translate(399.84765625,51.90234375)"/>
<path d="M0 0 C2.29013653 3.4352048 2.17842973 4.985331 2 9 C-4.15234375 9.09765625 -4.15234375 9.09765625 -6 9 C-7 8 -7 8 -7.125 5.5 C-7 3 -7 3 -6 2 C-4.00041636 1.95919217 -1.99954746 1.95745644 0 2 C0 1.34 0 0.68 0 0 Z " fill="#84878A" transform="translate(90,19)"/>
<path d="M0 0 C2.31 0 4.62 0 7 0 C7 0.33 7 0.66 7 1 C9.97 1.66 12.94 2.32 16 3 C16 3.33 16 3.66 16 4 C7.09 4 -1.82 4 -11 4 C-11 3.67 -11 3.34 -11 3 C-5.555 2.01 -5.555 2.01 0 1 C0 0.67 0 0.34 0 0 Z " fill="#7B7B7B" transform="translate(26,67)"/>
<path d="M0 0 C2.97 0 5.94 0 9 0 C8.67 2.97 8.34 5.94 8 9 C7.01 9 6.02 9 5 9 C5.33 6.69 5.66 4.38 6 2 C5.01 2.33 4.02 2.66 3 3 C1.77479736 6.00847418 1.77479736 6.00847418 1 9 C0.34 9 -0.32 9 -1 9 C-0.67 6.03 -0.34 3.06 0 0 Z " fill="#8B8C92" transform="translate(371,30)"/>
<path d="M0 0 C1.32 0 2.64 0 4 0 C4 2.97 4 5.94 4 9 C1.125 9.125 1.125 9.125 -2 9 C-2.66 8.34 -3.32 7.68 -4 7 C-3.625 4.375 -3.625 4.375 -3 2 C-2.01 2 -1.02 2 0 2 C0 1.34 0 0.68 0 0 Z " fill="#828283" transform="translate(155,62)"/>
<path d="M0 0 C1.67542976 0.28604898 3.34385343 0.61781233 5 1 C5.125 4.375 5.125 4.375 5 8 C4.34 8.66 3.68 9.32 3 10 C1.68 10 0.36 10 -1 10 C-0.67 9.01 -0.34 8.02 0 7 C-0.66 6.67 -1.32 6.34 -2 6 C-1.125 1.125 -1.125 1.125 0 0 Z " fill="#545456" transform="translate(190,49)"/>
<path d="M0 0 C1.32 0 2.64 0 4 0 C3.67 1.65 3.34 3.3 3 5 C3.99 5 4.98 5 6 5 C4.125 9.875 4.125 9.875 3 11 C0.66702567 11.04092937 -1.66705225 11.04241723 -4 11 C-4 10.34 -4 9.68 -4 9 C-2.02 9 -0.04 9 2 9 C1.484375 8.443125 0.96875 7.88625 0.4375 7.3125 C-1 5 -1 5 -0.6875 2.25 C-0.460625 1.5075 -0.23375 0.765 0 0 Z " fill="#929398" transform="translate(324,32)"/>
<path d="M0 0 C0 0.66 0 1.32 0 2 C-0.99 2.33 -1.98 2.66 -3 3 C-3.73323796 5.01508358 -3.73323796 5.01508358 -4 7 C-0.34683329 5.75023244 0.78065836 5.32901247 3 2 C3 4.31 3 6.62 3 9 C1.52093108 9.02689216 0.04172517 9.04634621 -1.4375 9.0625 C-2.67306641 9.07990234 -2.67306641 9.07990234 -3.93359375 9.09765625 C-6 9 -6 9 -7 8 C-7.29978682 5.15202522 -7.40071289 3.58103368 -5.75 1.1875 C-4 0 -4 0 0 0 Z " fill="#888A8F" transform="translate(404,30)"/>
<path d="M0 0 C2.97 0 5.94 0 9 0 C8.34 1.98 7.68 3.96 7 6 C4.125 6.625 4.125 6.625 1 7 C0.34 6.34 -0.32 5.68 -1 5 C-0.625 2.375 -0.625 2.375 0 0 Z " fill="#706F70" transform="translate(82,64)"/>
<path d="M0 0 C3.625 0.375 3.625 0.375 7 1 C7.33 1.99 7.66 2.98 8 4 C7.01 4.33 6.02 4.66 5 5 C5 5.66 5 6.32 5 7 C3.02 7 1.04 7 -1 7 C-1.625 4.625 -1.625 4.625 -2 2 C-1.34 1.34 -0.68 0.68 0 0 Z " fill="#B6B5B5" transform="translate(61,62)"/>
<path d="M0 0 C1.65 0.33 3.3 0.66 5 1 C4.67 1.99 4.34 2.98 4 4 C4.66 4.33 5.32 4.66 6 5 C6 6.32 6 7.64 6 9 C3.69 9 1.38 9 -1 9 C-0.67 6.03 -0.34 3.06 0 0 Z " fill="#555556" transform="translate(133,33)"/>
<path d="M0 0 C1.85776765 3.13498292 2.20140476 5.37471432 2 9 C1.01 9 0.02 9 -1 9 C-1.33 7.68 -1.66 6.36 -2 5 C-3.32 4.67 -4.64 4.34 -6 4 C-6 4.99 -6 5.98 -6 7 C-4.68 7.33 -3.36 7.66 -2 8 C-3.65614657 8.38218767 -5.32457024 8.71395102 -7 9 C-8 8 -8 8 -8.0625 5.4375 C-8.041875 4.633125 -8.02125 3.82875 -8 3 C-7.13375 2.814375 -7.13375 2.814375 -6.25 2.625 C-3.97664233 1.99351176 -2.0746471 1.11141809 0 0 Z " fill="#484A4D" transform="translate(87,33)"/>
<path d="M0 0 C-0.33 2.31 -0.66 4.62 -1 7 C-2.32 7.33 -3.64 7.66 -5 8 C-4.34 6.02 -3.68 4.04 -3 2 C-4.32 2.33 -5.64 2.66 -7 3 C-6.67 4.98 -6.34 6.96 -6 9 C-7.32 9 -8.64 9 -10 9 C-10.1875 5.625 -10.1875 5.625 -10 2 C-6.3558226 -0.4294516 -4.28758728 -0.16179575 0 0 Z " fill="#84858B" transform="translate(331,30)"/>
<path d="M0 0 C3 1 3 1 5 4 C5.66 2.68 6.32 1.36 7 0 C7.66 0 8.32 0 9 0 C9 2.97 9 5.94 9 9 C8.34 9 7.68 9 7 9 C6.67 8.34 6.34 7.68 6 7 C5.34 7.66 4.68 8.32 4 9 C3.34 7.68 2.68 6.36 2 5 C1.34 6.32 0.68 7.64 0 9 C0 6.03 0 3.06 0 0 Z " fill="#524E4E" transform="translate(60,19)"/>
<path d="M0 0 C1.98 0 3.96 0 6 0 C6.33 0.66 6.66 1.32 7 2 C6.34 2 5.68 2 5 2 C5 3.98 5 5.96 5 8 C5.66 8 6.32 8 7 8 C7.33 9.32 7.66 10.64 8 12 C5.37812506 10.95125002 4.20628639 10.35068687 2.75 7.875 C2.5025 7.25625 2.255 6.6375 2 6 C1.01 6 0.02 6 -1 6 C-0.67 4.02 -0.34 2.04 0 0 Z " fill="#C1C1C1" transform="translate(38,13)"/>
<path d="M0 0 C0.33 0.66 0.66 1.32 1 2 C-0.75 4.0625 -0.75 4.0625 -3 6 C-6.01811422 5.82246387 -6.83735215 5.16264785 -9 3 C-9 2.01 -9 1.02 -9 0 C-5.49270578 -1.16909807 -3.55692677 -0.85056945 0 0 Z " fill="#87BADD" transform="translate(248,38)"/>
<path d="M0 0 C2.475 0.495 2.475 0.495 5 1 C5 1.66 5 2.32 5 3 C6.32 3.33 7.64 3.66 9 4 C8.67 4.99 8.34 5.98 8 7 C7.67 6.01 7.34 5.02 7 4 C6.01 4 5.02 4 4 4 C3.67 5.32 3.34 6.64 3 8 C5.31 8.33 7.62 8.66 10 9 C8.1875 11.5 8.1875 11.5 6 14 C5.01 14 4.02 14 3 14 C3.33 12.35 3.66 10.7 4 9 C3.34 9 2.68 9 2 9 C1.95745644 7.00045254 1.95919217 4.99958364 2 3 C2.33 2.67 2.66 2.34 3 2 C2.01 1.34 1.02 0.68 0 0 Z " fill="#6A6A6A" transform="translate(41,12)"/>
<path d="M0 0 C2.475 0.99 2.475 0.99 5 2 C5 3.32 5 4.64 5 6 C0.71 5.67 -3.58 5.34 -8 5 C-7.67 4.01 -7.34 3.02 -7 2 C-3.86650268 0.95550089 -3.01031744 1.06576355 0 2 C0 1.34 0 0.68 0 0 Z " fill="#545454" transform="translate(38,64)"/>
<path d="M0 0 C0.33 0 0.66 0 1 0 C1.02578125 0.61488281 1.0515625 1.22976562 1.078125 1.86328125 C1.2336047 6.95235826 1.2336047 6.95235826 4.0625 10.875 C4.701875 11.24625 5.34125 11.6175 6 12 C6 12.99 6 13.98 6 15 C4.35 15 2.7 15 1 15 C1 13.68 1 12.36 1 11 C0.34 11 -0.32 11 -1 11 C-1.02688151 9.35425434 -1.04634123 7.70838587 -1.0625 6.0625 C-1.07410156 5.14597656 -1.08570313 4.22945312 -1.09765625 3.28515625 C-1 1 -1 1 0 0 Z " fill="#888888" transform="translate(40,41)"/>
<path d="M0 0 C0.33 0 0.66 0 1 0 C1 1.65 1 3.3 1 5 C0.34 5 -0.32 5 -1 5 C-1.33 6.98 -1.66 8.96 -2 11 C-3.32 11 -4.64 11 -6 11 C-6.625 8.125 -6.625 8.125 -7 5 C-5 3 -5 3 -2.375 2.875 C-1.59125 2.91625 -0.8075 2.9575 0 3 C0 2.01 0 1.02 0 0 Z " fill="#C6C7CA" transform="translate(389,26)"/>
<path d="M0 0 C1.32 0 2.64 0 4 0 C4.625 2.8125 4.625 2.8125 5 6 C4.01 7.485 4.01 7.485 3 9 C1.68 9 0.36 9 -1 9 C-0.67 6.03 -0.34 3.06 0 0 Z " fill="#ECEDEE" transform="translate(307,28)"/>
<path d="M0 0 C0.33 0.99 0.66 1.98 1 3 C1.66 3.33 2.32 3.66 3 4 C3.66 4.66 4.32 5.32 5 6 C5 5.01 5 4.02 5 3 C5.99 3.33 6.98 3.66 8 4 C6.875 6.5 6.875 6.5 5 9 C1.8125 9.3125 1.8125 9.3125 -1 9 C-1 8.01 -1 7.02 -1 6 C-1.66 5.34 -2.32 4.68 -3 4 C-2.67 3.34 -2.34 2.68 -2 2 C-1.34 2 -0.68 2 0 2 C0 1.34 0 0.68 0 0 Z " fill="#727272" transform="translate(27,12)"/>
<path d="M0 0 C0.99 0.33 1.98 0.66 3 1 C3 5.29 3 9.58 3 14 C3.66 14 4.32 14 5 14 C5 14.66 5 15.32 5 16 C4.01 15.67 3.02 15.34 2 15 C1.3125 12.9375 1.3125 12.9375 1 11 C0.34 11.66 -0.32 12.32 -1 13 C-0.67 8.71 -0.34 4.42 0 0 Z " fill="#E5E5E5" transform="translate(36,38)"/>
<path d="M0 0 C0.99 0 1.98 0 3 0 C3 4.29 3 8.58 3 13 C1.35 12.67 -0.3 12.34 -2 12 C-1.34 8.04 -0.68 4.08 0 0 Z " fill="#888A8F" transform="translate(357,26)"/>
<path d="M0 0 C2.64 0 5.28 0 8 0 C8 0.99 8 1.98 8 3 C7.34 3 6.68 3 6 3 C5.67 4.32 5.34 5.64 5 7 C3.35 7.33 1.7 7.66 0 8 C0.33 6.35 0.66 4.7 1 3 C1.99 3 2.98 3 4 3 C4 2.34 4 1.68 4 1 C2.68 0.67 1.36 0.34 0 0 Z " fill="#A8A9AD" transform="translate(400,29)"/>
<path d="M0 0 C2.125 0.375 2.125 0.375 4 1 C4.38218767 2.65614657 4.71395102 4.32457024 5 6 C4 7 4 7 1.4375 7.0625 C0.2309375 7.0315625 0.2309375 7.0315625 -1 7 C-1.625 4.625 -1.625 4.625 -2 2 C-1.34 1.34 -0.68 0.68 0 0 Z " fill="#5F5E5E" transform="translate(171,49)"/>
<path d="M0 0 C2.125 0.375 2.125 0.375 4 1 C4.38218767 2.65614657 4.71395102 4.32457024 5 6 C4 7 4 7 1.4375 7.0625 C0.2309375 7.0315625 0.2309375 7.0315625 -1 7 C-1.625 4.625 -1.625 4.625 -2 2 C-1.34 1.34 -0.68 0.68 0 0 Z " fill="#5E5E5F" transform="translate(77,49)"/>
<path d="M0 0 C2.31 0 4.62 0 7 0 C6.67 1.65 6.34 3.3 6 5 C4.68 5 3.36 5 2 5 C2 5.99 2 6.98 2 8 C3.65 8 5.3 8 7 8 C7 8.33 7 8.66 7 9 C4.69 9 2.38 9 0 9 C0 6.03 0 3.06 0 0 Z " fill="#2D2D2D" transform="translate(60,33)"/>
<path d="M0 0 C0.66 0.33 1.32 0.66 2 1 C5.67329964 1.13357453 8.49852959 1.1671568 12 0 C12 0.66 12 1.32 12 2 C13.32 2.33 14.64 2.66 16 3 C12.66334135 4.11221955 10.01220338 4.20253779 6.5 4.25 C5.3553125 4.27578125 4.210625 4.3015625 3.03125 4.328125 C0 4 0 4 -1.90625 2.484375 C-2.2671875 1.99453125 -2.628125 1.5046875 -3 1 C-2.01 0.67 -1.02 0.34 0 0 Z " fill="#68BF9E" transform="translate(243,70)"/>
<path d="M0 0 C2 3 2 3 1.625 5.6875 C1.41875 6.450625 1.2125 7.21375 1 8 C-0.32 8.33 -1.64 8.66 -3 9 C-3.33 7.35 -3.66 5.7 -4 4 C-4.99 5.32 -5.98 6.64 -7 8 C-7 6.02 -7 4.04 -7 2 C-4.69 2 -2.38 2 0 2 C0 1.34 0 0.68 0 0 Z " fill="#737172" transform="translate(122,62)"/>
<path d="M0 0 C0.66 0 1.32 0 2 0 C2 0.66 2 1.32 2 2 C2.804375 1.979375 3.60875 1.95875 4.4375 1.9375 C7 2 7 2 8 3 C8.04063832 4.66617115 8.042721 6.33388095 8 8 C7.01 6.68 6.02 5.36 5 4 C4.67 5.32 4.34 6.64 4 8 C2.68 8.33 1.36 8.66 0 9 C0 6.03 0 3.06 0 0 Z " fill="#747A81" transform="translate(142,62)"/>
<path d="M0 0 C2.125 0.375 2.125 0.375 4 1 C4.38218767 2.65614657 4.71395102 4.32457024 5 6 C4 7 4 7 1.4375 7.0625 C0.2309375 7.0315625 0.2309375 7.0315625 -1 7 C-1.625 4.625 -1.625 4.625 -2 2 C-1.34 1.34 -0.68 0.68 0 0 Z " fill="#625F5E" transform="translate(182,49)"/>
<path d="M0 0 C0.33 0.99 0.66 1.98 1 3 C2.98 3 4.96 3 7 3 C7.33 2.34 7.66 1.68 8 1 C9.32 2.32 10.64 3.64 12 5 C11.67 5.99 11.34 6.98 11 8 C10.34 8 9.68 8 9 8 C9 7.34 9 6.68 9 6 C8.2575 6.226875 7.515 6.45375 6.75 6.6875 C4 7 4 7 1.6875 5.8125 C0 4 0 4 0 0 Z " fill="#575757" transform="translate(30,51)"/>
<path d="M0 0 C0.99 0 1.98 0 3 0 C3 0.66 3 1.32 3 2 C4.98 2 6.96 2 9 2 C9 2.33 9 2.66 9 3 C7.35 3 5.7 3 4 3 C4 4.98 4 6.96 4 9 C2.68 9 1.36 9 0 9 C0 6.03 0 3.06 0 0 Z " fill="#777677" transform="translate(60,47)"/>
<path d="M0 0 C0.99 0.33 1.98 0.66 3 1 C4.16513114 3.96578836 4.08762121 6.84563636 4 10 C3.38125 10.103125 2.7625 10.20625 2.125 10.3125 C-0.36526484 10.87525373 -0.36526484 10.87525373 -2 14 C-2 12.02 -2 10.04 -2 8 C-1.34 8 -0.68 8 0 8 C-0.185625 7.4225 -0.37125 6.845 -0.5625 6.25 C-1.04023546 3.79307475 -0.75729364 2.35602466 0 0 Z " fill="#797979" transform="translate(20,16)"/>
<path d="M0 0 C0.99 0 1.98 0 3 0 C3 2.97 3 5.94 3 9 C1.35 8.67 -0.3 8.34 -2 8 C-1.125 2.25 -1.125 2.25 0 0 Z " fill="#8B8E91" transform="translate(110,47)"/>
<path d="M0 0 C0.99 0 1.98 0 3 0 C2.88490339 1.41750563 2.75746342 2.83401169 2.625 4.25 C2.55539062 5.03890625 2.48578125 5.8278125 2.4140625 6.640625 C1.98492887 9.085877 1.21399362 10.84836903 0 13 C-0.66 13 -1.32 13 -2 13 C-1.85966889 11.02043559 -1.7125877 9.04134859 -1.5625 7.0625 C-1.48128906 5.96035156 -1.40007812 4.85820313 -1.31640625 3.72265625 C-1 1 -1 1 0 0 Z " fill="#9E9FA4" transform="translate(383,48)"/>
<path d="M0 0 C2.16874252 0.50603992 3.99967627 0.99983813 6 2 C6 2.99 6 3.98 6 5 C7.98 5 9.96 5 12 5 C12 5.33 12 5.66 12 6 C9.36 6.66 6.72 7.32 4 8 C4 7.34 4 6.68 4 6 C2.68 5.34 1.36 4.68 0 4 C0 2.68 0 1.36 0 0 Z " fill="#4E4E4E" transform="translate(11,31)"/>
<path d="M0 0 C2.125 0.375 2.125 0.375 4 1 C4 2.98 4 4.96 4 7 C2.35 7 0.7 7 -1 7 C-1.625 4.625 -1.625 4.625 -2 2 C-1.34 1.34 -0.68 0.68 0 0 Z " fill="#5D5C5C" transform="translate(116,49)"/>
<path d="M0 0 C1.32 0 2.64 0 4 0 C5.125 5.75 5.125 5.75 4 8 C1 7 1 7 -1 5 C-0.625 2.375 -0.625 2.375 0 0 Z " fill="#9A9A9A" transform="translate(26,58)"/>
<path d="M0 0 C0.99 0 1.98 0 3 0 C3.6875 1.625 3.6875 1.625 4 4 C2.5625 7.25 2.5625 7.25 1 10 C1.66 10 2.32 10 3 10 C3 10.66 3 11.32 3 12 C1.68 12 0.36 12 -1 12 C-1.02712066 10.56260487 -1.04645067 9.12506137 -1.0625 7.6875 C-1.07410156 6.88699219 -1.08570313 6.08648437 -1.09765625 5.26171875 C-1 3 -1 3 0 0 Z " fill="#8F9196" transform="translate(376,49)"/>
<path d="M0 0 C0.66 0 1.32 0 2 0 C1.85915204 1.79206547 1.71216299 3.58364917 1.5625 5.375 C1.48128906 6.37273438 1.40007812 7.37046875 1.31640625 8.3984375 C1 11 1 11 0 13 C-0.99 13 -1.98 13 -3 13 C-2.68991116 11.39536551 -2.37683713 9.79130769 -2.0625 8.1875 C-1.88847656 7.29417969 -1.71445312 6.40085937 -1.53515625 5.48046875 C-1 3 -1 3 0 0 Z " fill="#9B9CA1" transform="translate(395,26)"/>
<path d="M0 0 C1.32 0 2.64 0 4 0 C5.125 4.75 5.125 4.75 4 7 C2.35 6.67 0.7 6.34 -1 6 C-1.042721 4.33388095 -1.04063832 2.66617115 -1 1 C-0.67 0.67 -0.34 0.34 0 0 Z " fill="#88898C" transform="translate(108,21)"/>
<path d="M0 0 C0.99 0 1.98 0 3 0 C3.46192125 4.92715996 1.8275283 8.50732625 0 13 C-0.66 13 -1.32 13 -2 13 C-1.85769192 11.58297487 -1.71099254 10.1663904 -1.5625 8.75 C-1.48128906 7.96109375 -1.40007812 7.1721875 -1.31640625 6.359375 C-1.02365007 4.17635361 -0.57935581 2.1226818 0 0 Z " fill="#929499" transform="translate(367,26)"/>
<path d="M0 0 C2.0625 0.4375 2.0625 0.4375 4 1 C4.625 2.875 4.625 2.875 5 5 C4.34 5.66 3.68 6.32 3 7 C0.875 6.625 0.875 6.625 -1 6 C-1.042721 4.33388095 -1.04063832 2.66617115 -1 1 C-0.67 0.67 -0.34 0.34 0 0 Z " fill="#8E8C8C" transform="translate(129,64)"/>
<path d="M0 0 C1.98 0 3.96 0 6 0 C6 0.66 6 1.32 6 2 C5.01 2 4.02 2 3 2 C2.67 4.31 2.34 6.62 2 9 C1.01 9 0.02 9 -1 9 C-0.67 6.03 -0.34 3.06 0 0 Z " fill="#939499" transform="translate(327,52)"/>
<path d="M0 0 C0.66 0 1.32 0 2 0 C2.33 0.66 2.66 1.32 3 2 C3.99 2.33 4.98 2.66 6 3 C6 4.98 6 6.96 6 9 C5.34 9 4.68 9 4 9 C4 7.35 4 5.7 4 4 C3.34 4 2.68 4 2 4 C2 5.65 2 7.3 2 9 C1.34 9 0.68 9 0 9 C0 6.03 0 3.06 0 0 Z " fill="#2F2E2E" transform="translate(154,47)"/>
<path d="M0 0 C0.33 0 0.66 0 1 0 C1 2.64 1 5.28 1 8 C3.31 7.34 5.62 6.68 8 6 C7.34 7.32 6.68 8.64 6 10 C3.36 10 0.72 10 -2 10 C-1.34 6.7 -0.68 3.4 0 0 Z " fill="#7F8087" transform="translate(305,29)"/>
<path d="M0 0 C0.66 1.32 1.32 2.64 2 4 C2.66 3.67 3.32 3.34 4 3 C4.96070434 5.88211302 5.10581883 7.69850044 5.0625 10.6875 C5.05347656 11.49574219 5.04445313 12.30398437 5.03515625 13.13671875 C5.02355469 13.75160156 5.01195312 14.36648437 5 15 C4.34 15 3.68 15 3 15 C3 12.69 3 10.38 3 8 C2.01 8 1.02 8 0 8 C-0.38063221 5.6739143 -0.71269945 3.33944736 -1 1 C-0.67 0.67 -0.34 0.34 0 0 Z " fill="#727272" transform="translate(27,33)"/>
<path d="M0 0 C2.00720923 0.28674418 4.0085944 0.61866701 6 1 C4.375 6.75 4.375 6.75 1 9 C0.66666667 7.66666667 0.33333333 6.33333333 0 5 C-0.20625 4.278125 -0.4125 3.55625 -0.625 2.8125 C-0.74875 2.214375 -0.8725 1.61625 -1 1 C-0.67 0.67 -0.34 0.34 0 0 Z " fill="#424242" transform="translate(40,30)"/>
<path d="M0 0 C3.22404694 4.83607042 3.0823507 10.28348883 3 16 C2.30865652 18.73435209 1.42872859 20.54258683 0 23 C-0.66 23 -1.32 23 -2 23 C-1.855625 22.42894531 -1.71125 21.85789062 -1.5625 21.26953125 C0.07328991 14.12431004 0.20618852 7.30823759 0 0 Z " fill="#86C294" transform="translate(277,32)"/>
<path d="M0 0 C3.625 -0.1875 3.625 -0.1875 7 0 C6.67 2.97 6.34 5.94 6 9 C4.68 8.34 3.36 7.68 2 7 C2.66 5.35 3.32 3.7 4 2 C2.02 2.33 0.04 2.66 -2 3 C-1.34 2.01 -0.68 1.02 0 0 Z " fill="#7C7E84" transform="translate(366,52)"/>
<path d="M0 0 C1.67542976 0.28604898 3.34385343 0.61781233 5 1 C4.67 2.98 4.34 4.96 4 7 C2.68 6.67 1.36 6.34 0 6 C-0.38218767 4.34385343 -0.71395102 2.67542976 -1 1 C-0.67 0.67 -0.34 0.34 0 0 Z " fill="#737374" transform="translate(109,64)"/>
<path d="M0 0 C3.3 0 6.6 0 10 0 C9.67 3.3 9.34 6.6 9 10 C8.01 9.01 7.02 8.02 6 7 C6.3125 3.8125 6.3125 3.8125 7 1 C6.401875 1.20625 5.80375 1.4125 5.1875 1.625 C3 2 3 2 0 0 Z " fill="#D6D7D9" transform="translate(366,51)"/>
<path d="M0 0 C1.66611905 -0.042721 3.33382885 -0.04063832 5 0 C6 1 6 1 6.0625 4.0625 C6.041875 5.031875 6.02125 6.00125 6 7 C5.34 7 4.68 7 4 7 C4 5.35 4 3.7 4 2 C3.34 2 2.68 2 2 2 C2 3.65 2 5.3 2 7 C1.34 7 0.68 7 0 7 C0 4.69 0 2.38 0 0 Z " fill="#393B41" transform="translate(162,49)"/>
<path d="M0 0 C1.66611905 -0.042721 3.33382885 -0.04063832 5 0 C6 1 6 1 6.0625 4.0625 C6.041875 5.031875 6.02125 6.00125 6 7 C5.34 7 4.68 7 4 7 C4 5.35 4 3.7 4 2 C3.34 2 2.68 2 2 2 C2 3.65 2 5.3 2 7 C1.34 7 0.68 7 0 7 C0 4.69 0 2.38 0 0 Z " fill="#38393E" transform="translate(122,49)"/>
<path d="M0 0 C1.66611905 -0.042721 3.33382885 -0.04063832 5 0 C6 1 6 1 6.0625 4.0625 C6.041875 5.031875 6.02125 6.00125 6 7 C5.34 7 4.68 7 4 7 C4 5.35 4 3.7 4 2 C3.34 2 2.68 2 2 2 C2 3.65 2 5.3 2 7 C1.34 7 0.68 7 0 7 C0 4.69 0 2.38 0 0 Z " fill="#36383C" transform="translate(103,35)"/>
<path d="M0 0 C0.33 0 0.66 0 1 0 C1.144375 0.78375 1.28875 1.5675 1.4375 2.375 C1.87798925 4.96421018 1.87798925 4.96421018 3 7 C3.66 7 4.32 7 5 7 C5 7.66 5 8.32 5 9 C3.35 9 1.7 9 0 9 C-0.33 8.34 -0.66 7.68 -1 7 C-1.99 7.495 -1.99 7.495 -3 8 C-3.33 6.02 -3.66 4.04 -4 2 C-3.01 2.33 -2.02 2.66 -1 3 C-0.67 2.01 -0.34 1.02 0 0 Z " fill="#464646" transform="translate(31,30)"/>
<path d="M0 0 C0.66 0 1.32 0 2 0 C3.46726798 3.81489674 2.43336419 6.29011622 1 10 C1.66 10 2.32 10 3 10 C3 10.66 3 11.32 3 12 C1.35 12 -0.3 12 -2 12 C-1.34 8.04 -0.68 4.08 0 0 Z " fill="#83858B" transform="translate(339,27)"/>
<path d="M0 0 C0.99 0.33 1.98 0.66 3 1 C3.33 1.99 3.66 2.98 4 4 C0.37 3.67 -3.26 3.34 -7 3 C-7.33 3.99 -7.66 4.98 -8 6 C-8 5.34 -8 4.68 -8 4 C-8.99 3.67 -9.98 3.34 -11 3 C-10.28972656 2.86722656 -9.57945313 2.73445313 -8.84765625 2.59765625 C-7.92855469 2.42105469 -7.00945313 2.24445313 -6.0625 2.0625 C-4.68771484 1.80146484 -4.68771484 1.80146484 -3.28515625 1.53515625 C-1.04710156 1.22285012 -1.04710156 1.22285012 0 0 Z " fill="#868686" transform="translate(21,64)"/>
<path d="M0 0 C2.64 0 5.28 0 8 0 C8 0.66 8 1.32 8 2 C7.01 2 6.02 2 5 2 C5 4.31 5 6.62 5 9 C4.34 9 3.68 9 3 9 C3 6.69 3 4.38 3 2 C2.01 2 1.02 2 0 2 C0 1.34 0 0.68 0 0 Z " fill="#3B3734" transform="translate(132,47)"/>
<path d="M0 0 C0.99 0.495 0.99 0.495 2 1 C2.99 0.67 3.98 0.34 5 0 C5.66 1.65 6.32 3.3 7 5 C6.01 5.495 6.01 5.495 5 6 C5 5.34 5 4.68 5 4 C4.01 4.33 3.02 4.66 2 5 C1.67 6.65 1.34 8.3 1 10 C0.67 10 0.34 10 0 10 C0 6.7 0 3.4 0 0 Z " fill="#888888" transform="translate(24,28)"/>
<path d="M0 0 C0.99 0.33 1.98 0.66 3 1 C3 2.65 3 4.3 3 6 C2.67 5.34 2.34 4.68 2 4 C0.824375 4.5259375 0.824375 4.5259375 -0.375 5.0625 C-1.674375 5.5265625 -1.674375 5.5265625 -3 6 C-3.66 5.67 -4.32 5.34 -5 5 C-5 4.01 -5 3.02 -5 2 C-3.35 1.67 -1.7 1.34 0 1 C0 0.67 0 0.34 0 0 Z " fill="#787878" transform="translate(44,72)"/>
<path d="M0 0 C3.3 0 6.6 0 10 0 C10 0.33 10 0.66 10 1 C8.35 1 6.7 1 5 1 C4.67 1.99 4.34 2.98 4 4 C3.34 3.67 2.68 3.34 2 3 C2 4.32 2 5.64 2 7 C1.34 7 0.68 7 0 7 C0 4.69 0 2.38 0 0 Z " fill="#6C6A69" transform="translate(83,49)"/>
<path d="M0 0 C1.02104551 0.97850195 2.0206121 1.97980427 3 3 C3 3.33 3 3.66 3 4 C-3.435 4.495 -3.435 4.495 -10 5 C-10 4.01 -10 3.02 -10 2 C-6.7 2 -3.4 2 0 2 C0 1.34 0 0.68 0 0 Z " fill="#404040" transform="translate(24,65)"/>
<path d="M0 0 C0.99 0 1.98 0 3 0 C3 2.25 3 2.25 2 5 C-0.52667787 6.67198768 -3.19936568 7.85805571 -6 9 C-6.99 8.01 -7.98 7.02 -9 6 C-5.535 5.505 -5.535 5.505 -2 5 C-1.34 3.35 -0.68 1.7 0 0 Z " fill="#666666" transform="translate(34,59)"/>
<path d="M0 0 C1.65 0 3.3 0 5 0 C5 0.66 5 1.32 5 2 C4.01 2.495 4.01 2.495 3 3 C2.27306096 4.97888961 1.60183749 6.97954558 1 9 C0.34 9 -0.32 9 -1 9 C-1.125 2.25 -1.125 2.25 0 0 Z " fill="#8B8D92" transform="translate(357,52)"/>
<path d="M0 0 C0.66 0 1.32 0 2 0 C2 0.66 2 1.32 2 2 C2.66 2 3.32 2 4 2 C4 1.34 4 0.68 4 0 C4.66 0 5.32 0 6 0 C4.52307692 6.64615385 4.52307692 6.64615385 1.875 8.4375 C1.25625 8.623125 0.6375 8.80875 0 9 C0 8.34 0 7.68 0 7 C0.66 7 1.32 7 2 7 C1.34 4.69 0.68 2.38 0 0 Z " fill="#313133" transform="translate(196,50)"/>
<path d="M0 0 C1.32 0 2.64 0 4 0 C4.38133299 1.9914056 4.71325582 3.99279077 5 6 C4 7 4 7 1.4375 7.0625 C0.2309375 7.0315625 0.2309375 7.0315625 -1 7 C-1 6.34 -1 5.68 -1 5 C-0.01 5 0.98 5 2 5 C1.01 4.67 0.02 4.34 -1 4 C-0.67 2.68 -0.34 1.36 0 0 Z " fill="#38383A" transform="translate(122,35)"/>
<path d="M0 0 C2.0625 0.4375 2.0625 0.4375 4 1 C4 1.99 4 2.98 4 4 C3.01 4 2.02 4 1 4 C1 4.66 1 5.32 1 6 C1.99 5.67 2.98 5.34 4 5 C4 5.66 4 6.32 4 7 C2.35 7 0.7 7 -1 7 C-1.04254356 5.00045254 -1.04080783 2.99958364 -1 1 C-0.67 0.67 -0.34 0.34 0 0 Z " fill="#3E3E40" transform="translate(73,35)"/>
<path d="M0 0 C2.4294516 3.6441774 2.16179575 5.71241272 2 10 C1.01 10 0.02 10 -1 10 C-1 9.34 -1 8.68 -1 8 C-1.66 8 -2.32 8 -3 8 C-2.67 6.35 -2.34 4.7 -2 3 C-1.34 3 -0.68 3 0 3 C0 2.01 0 1.02 0 0 Z " fill="#E1E2E3" transform="translate(343,29)"/>
<path d="M0 0 C0.99 0 1.98 0 3 0 C2.67 2.97 2.34 5.94 2 9 C1.01 9 0.02 9 -1 9 C-1.125 2.25 -1.125 2.25 0 0 Z " fill="#96989C" transform="translate(333,30)"/>
<path d="M0 0 C0.99 0 1.98 0 3 0 C2.34 3.3 1.68 6.6 1 10 C1.66 10.33 2.32 10.66 3 11 C2.01 11 1.02 11 0 11 C-1.62651522 7.74696956 -1.11453156 4.60774398 -1 1 C-0.67 0.67 -0.34 0.34 0 0 Z " fill="#4F4F4F" transform="translate(9,56)"/>
<path d="M0 0 C2.0625 0.4375 2.0625 0.4375 4 1 C3.01 1 2.02 1 1 1 C1.33 1.66 1.66 2.32 2 3 C2.039992 4.99960012 2.04346799 7.00047242 2 9 C1.01 9 0.02 9 -1 9 C-1.09765625 2.84765625 -1.09765625 2.84765625 -1 1 C-0.67 0.67 -0.34 0.34 0 0 Z " fill="#9B9CA1" transform="translate(398,52)"/>
<path d="M0 0 C1.67542976 0.28604898 3.34385343 0.61781233 5 1 C5 1.66 5 2.32 5 3 C3.68 2.67 2.36 2.34 1 2 C1 3.32 1 4.64 1 6 C2.32 5.67 3.64 5.34 5 5 C4.67 5.66 4.34 6.32 4 7 C2.35 6.67 0.7 6.34 -1 6 C-1.042721 4.33388095 -1.04063832 2.66617115 -1 1 C-0.67 0.67 -0.34 0.34 0 0 Z " fill="#3D3D3F" transform="translate(115,35)"/>
<path d="M0 0 C0.99 0 1.98 0 3 0 C3.33 0.66 3.66 1.32 4 2 C4.99 2.33 5.98 2.66 7 3 C7 3.66 7 4.32 7 5 C4.39417629 5.93065133 3.35801776 6.14917407 0.75 5.0625 C0.1725 4.711875 -0.405 4.36125 -1 4 C-0.67 2.68 -0.34 1.36 0 0 Z " fill="#B4B4B4" transform="translate(45,16)"/>
<path d="M0 0 C2 2 2 2 2.125 4.625 C2.08375 5.40875 2.0425 6.1925 2 7 C1.34 7 0.68 7 0 7 C0 8.65 0 10.3 0 12 C-1.65 12.66 -3.3 13.32 -5 14 C-5.33 13.34 -5.66 12.68 -6 12 C-5.38125 11.690625 -4.7625 11.38125 -4.125 11.0625 C-0.92315624 7.95482812 -0.68447192 4.29596194 0 0 Z " fill="#3E3E3E" transform="translate(36,13)"/>
<path d="M0 0 C2.475 0.495 2.475 0.495 5 1 C4.34 4.63 3.68 8.26 3 12 C0.21362367 7.8204355 1.20437488 5.85331323 2 1 C1.34 0.67 0.68 0.34 0 0 Z " fill="#E6E6E7" transform="translate(390,25)"/>
<path d="M0 0 C2 2 2 2 2.046875 4.12890625 C1.94890625 4.93199219 1.8509375 5.73507813 1.75 6.5625 C1.61851563 7.77099609 1.61851563 7.77099609 1.484375 9.00390625 C1.32453125 9.66261719 1.1646875 10.32132813 1 11 C0.01 11.495 0.01 11.495 -1 12 C-0.6596875 10.3603125 -0.6596875 10.3603125 -0.3125 8.6875 C0.40146383 5.09468727 0.40146383 5.09468727 -1.4375 3.0625 C-1.953125 2.711875 -2.46875 2.36125 -3 2 C-2.01 1.34 -1.02 0.68 0 0 Z " fill="#BABABA" transform="translate(34,11)"/>
<path d="M0 0 C1.65 0.33 3.3 0.66 5 1 C5 2.65 5 4.3 5 6 C4.34 6 3.68 6 3 6 C3 5.34 3 4.68 3 4 C2.34 4 1.68 4 1 4 C1.33 4.99 1.66 5.98 2 7 C1.01 6.67 0.02 6.34 -1 6 C-0.67 5.01 -0.34 4.02 0 3 C0.99 3 1.98 3 3 3 C3 2.34 3 1.68 3 1 C2.01 1.33 1.02 1.66 0 2 C0 1.34 0 0.68 0 0 Z " fill="#58595C" transform="translate(161,64)"/>
<path d="M0 0 C0.33 0 0.66 0 1 0 C1.1953125 2.05078125 1.390625 4.1015625 1.5859375 6.15234375 C1.72257812 6.76207031 1.85921875 7.37179688 2 8 C2.66 8.33 3.32 8.66 4 9 C0.04 9 -3.92 9 -8 9 C-8 8.67 -8 8.34 -8 8 C-5.69 7.34 -3.38 6.68 -1 6 C-0.67 4.02 -0.34 2.04 0 0 Z " fill="#CFCFD1" transform="translate(354,53)"/>
<path d="M0 0 C2 3 2 3 2 5 C5.465 4.505 5.465 4.505 9 4 C9 4.66 9 5.32 9 6 C6.26752652 7.36623674 4.01801098 7.128426 1 7 C0 6 0 6 -0.0625 2.9375 C-0.041875 1.968125 -0.02125 0.99875 0 0 Z " fill="#808288" transform="translate(304,54)"/>
<path d="M0 0 C1.65 0 3.3 0 5 0 C4.67 1.65 4.34 3.3 4 5 C2.68 5 1.36 5 0 5 C0 3.35 0 1.7 0 0 Z " fill="#E6E6E8" transform="translate(347,54)"/>
<path d="M0 0 C0.33 0 0.66 0 1 0 C1 2.97 1 5.94 1 9 C-0.65 8.67 -2.3 8.34 -4 8 C-4 6.68 -4 5.36 -4 4 C-3.01 3.67 -2.02 3.34 -1 3 C-0.67 2.01 -0.34 1.02 0 0 Z " fill="#E4E1DC" transform="translate(153,47)"/>
<path d="M0 0 C1.65 1.65 3.3 3.3 5 5 C5.66 4.67 6.32 4.34 7 4 C7 5.32 7 6.64 7 8 C5.35 8.33 3.7 8.66 2 9 C2 8.34 2 7.68 2 7 C1.34 6.67 0.68 6.34 0 6 C0 4 0 2 0 0 Z " fill="#8C8C8C" transform="translate(39,23)"/>
<path d="M0 0 C0.66 0.33 1.32 0.66 2 1 C2 2.32 2 3.64 2 5 C3.32 5 4.64 5 6 5 C6 5.66 6 6.32 6 7 C4.02 7 2.04 7 0 7 C-0.38133299 5.0085944 -0.71325582 3.00720923 -1 1 C-0.67 0.67 -0.34 0.34 0 0 Z " fill="#EDEDED" transform="translate(13,56)"/>
<path d="M0 0 C1.32 0 2.64 0 4 0 C3.67 1.65 3.34 3.3 3 5 C1.68 5 0.36 5 -1 5 C-0.67 3.35 -0.34 1.7 0 0 Z " fill="#E5E5E6" transform="translate(366,54)"/>
<path d="M0 0 C1.32 0 2.64 0 4 0 C3.67 1.65 3.34 3.3 3 5 C1.68 5 0.36 5 -1 5 C-0.67 3.35 -0.34 1.7 0 0 Z " fill="#E7E7E9" transform="translate(389,54)"/>
<path d="M0 0 C1.32 0 2.64 0 4 0 C3.67 1.65 3.34 3.3 3 5 C1.68 5 0.36 5 -1 5 C-0.67 3.35 -0.34 1.7 0 0 Z " fill="#EEEEEE" transform="translate(337,54)"/>
<path d="M0 0 C1.65 0 3.3 0 5 0 C5 0.66 5 1.32 5 2 C6.32 2.33 7.64 2.66 9 3 C8.01 3.495 8.01 3.495 7 4 C6.34 3.67 5.68 3.34 5 3 C5 3.66 5 4.32 5 5 C3.35 4.67 1.7 4.34 0 4 C0 2.68 0 1.36 0 0 Z " fill="#D9D9D7" transform="translate(116,37)"/>
<path d="M0 0 C0.66 0.33 1.32 0.66 2 1 C1.835 2.216875 1.67 3.43375 1.5 4.6875 C1.10545459 7.81607836 0.90130275 10.84168804 1 14 C-1.18841354 10.71737969 -1.24854665 9.68209102 -1.1875 5.875 C-1.18105469 4.98554687 -1.17460937 4.09609375 -1.16796875 3.1796875 C-1 1 -1 1 0 0 Z " fill="#EAEAEA" transform="translate(33,38)"/>
<path d="M0 0 C0.33 0 0.66 0 1 0 C0.67 2.97 0.34 5.94 0 9 C-0.99 9 -1.98 9 -3 9 C-2.25 2.25 -2.25 2.25 0 0 Z " fill="#DFDFE1" transform="translate(370,30)"/>
<path d="M0 0 C1.32 0 2.64 0 4 0 C3.67 1.65 3.34 3.3 3 5 C1.68 5 0.36 5 -1 5 C-0.67 3.35 -0.34 1.7 0 0 Z " fill="#EDEDEE" transform="translate(347,32)"/>
<path d="M0 0 C1.32 0 2.64 0 4 0 C3.67 1.65 3.34 3.3 3 5 C1.68 5 0.36 5 -1 5 C-0.67 3.35 -0.34 1.7 0 0 Z " fill="#E3E3E4" transform="translate(324,32)"/>
<path d="M0 0 C1.98 0.99 3.96 1.98 6 3 C5.34 3.66 4.68 4.32 4 5 C4 4.34 4 3.68 4 3 C3.34 3.66 2.68 4.32 2 5 C1.01 5.66 0.02 6.32 -1 7 C-1.625 4.625 -1.625 4.625 -2 2 C-1.34 1.34 -0.68 0.68 0 0 Z " fill="#505050" transform="translate(21,25)"/>
<path d="M0 0 C1.65 0 3.3 0 5 0 C4.01 0.495 4.01 0.495 3 1 C3.33 1.598125 3.66 2.19625 4 2.8125 C5 5 5 5 5 8 C3.68 8.33 2.36 8.66 1 9 C1.33 6.36 1.66 3.72 2 1 C1.34 0.67 0.68 0.34 0 0 Z " fill="#DAD6D0" transform="translate(193,49)"/>
<path d="M0 0 C1.98 0.99 1.98 0.99 4 2 C3.34 2 2.68 2 2 2 C2.33 4.97 2.66 7.94 3 11 C2.34 11 1.68 11 1 11 C0.67 7.37 0.34 3.74 0 0 Z " fill="#F1F1F1" transform="translate(22,39)"/>
<path d="M0 0 C0 0.99 0 1.98 0 3 C-1.98 3 -3.96 3 -6 3 C-6.33 2.01 -6.66 1.02 -7 0 C-4.3333581 -1.33332095 -2.83319697 -0.67102033 0 0 Z " fill="#6DABD5" transform="translate(247,38)"/>
<path d="M0 0 C1.32 0.66 2.64 1.32 4 2 C4 5 4 5 2.5 6.6875 C2.005 7.120625 1.51 7.55375 1 8 C1 7.01 1 6.02 1 5 C0.01 4.67 -0.98 4.34 -2 4 C-1.34 3.67 -0.68 3.34 0 3 C0 2.01 0 1.02 0 0 Z " fill="#5E5E5E" transform="translate(38,34)"/>
<path d="M0 0 C0.66 0 1.32 0 2 0 C1.67 3.3 1.34 6.6 1 10 C0.34 10 -0.32 10 -1 10 C-1.02689216 8.52093108 -1.04634621 7.04172517 -1.0625 5.5625 C-1.07410156 4.73878906 -1.08570312 3.91507813 -1.09765625 3.06640625 C-1 1 -1 1 0 0 Z " fill="#6B6B6A" transform="translate(115,18)"/>
<path d="M0 0 C0 0.99 0 1.98 0 3 C-1.32 3.33 -2.64 3.66 -4 4 C-4.33 5.32 -4.66 6.64 -5 8 C-5 6.68 -5 5.36 -5 4 C-5.99 4 -6.98 4 -8 4 C-8 3.34 -8 2.68 -8 2 C-6.865625 1.855625 -5.73125 1.71125 -4.5625 1.5625 C-1.19222799 1.38828522 -1.19222799 1.38828522 0 0 Z " fill="#2A2A2A" transform="translate(33,19)"/>
<path d="M0 0 C0.99 0 1.98 0 3 0 C3.125 4.75 3.125 4.75 2 7 C1.01 6.67 0.02 6.34 -1 6 C-0.67 4.02 -0.34 2.04 0 0 Z " fill="#A5A5A5" transform="translate(38,13)"/>
<path d="M0 0 C2.31 0 4.62 0 7 0 C6.01 0.495 6.01 0.495 5 1 C4.67 1.99 4.34 2.98 4 4 C2.68 4 1.36 4 0 4 C0 2.68 0 1.36 0 0 Z " fill="#868686" transform="translate(10,74)"/>
<path d="M0 0 C2.0625 0.4375 2.0625 0.4375 4 1 C3.34 2.65 2.68 4.3 2 6 C-0.97 5.505 -0.97 5.505 -4 5 C-2.68 4.67 -1.36 4.34 0 4 C-0.33 3.01 -0.66 2.02 -1 1 C-0.67 0.67 -0.34 0.34 0 0 Z " fill="#9B9894" transform="translate(87,64)"/>
<path d="M0 0 C2.0625 0.4375 2.0625 0.4375 4 1 C3.01 1 2.02 1 1 1 C1.57452746 4.93075644 1.57452746 4.93075644 4 8 C2.35 7.67 0.7 7.34 -1 7 C-1.04254356 5.00045254 -1.04080783 2.99958364 -1 1 C-0.67 0.67 -0.34 0.34 0 0 Z " fill="#7A7C82" transform="translate(346,53)"/>
<path d="M0 0 C-0.33 0.99 -0.66 1.98 -1 3 C-3.0625 3.6875 -3.0625 3.6875 -5 4 C-5.33 2.68 -5.66 1.36 -6 0 C-3 -1 -3 -1 0 0 Z " fill="#C4C4C4" transform="translate(22,56)"/>
<path d="M0 0 C0.66 0 1.32 0 2 0 C1.88637738 1.4800841 1.75877092 2.95910074 1.625 4.4375 C1.52058594 5.67306641 1.52058594 5.67306641 1.4140625 6.93359375 C1.27742188 7.61550781 1.14078125 8.29742187 1 9 C0.01 9.495 0.01 9.495 -1 10 C-1.33 8.35 -1.66 6.7 -2 5 C-1.34 5 -0.68 5 0 5 C0 3.35 0 1.7 0 0 Z " fill="#7F8187" transform="translate(390,26)"/>
<path d="M0 0 C2.475 0.99 2.475 0.99 5 2 C4.67 3.32 4.34 4.64 4 6 C2.68 5.67 1.36 5.34 0 5 C0 3.35 0 1.7 0 0 Z " fill="#6F6D6D" transform="translate(83,22)"/>
<path d="M0 0 C0.33 0.66 0.66 1.32 1 2 C1.66 2.33 2.32 2.66 3 3 C1.35 4.65 -0.3 6.3 -2 8 C-2.66 6.68 -3.32 5.36 -4 4 C-3.34 3.67 -2.68 3.34 -2 3 C-1.34 3.33 -0.68 3.66 0 4 C0 2.68 0 1.36 0 0 Z " fill="#6F6F6F" transform="translate(16,14)"/>
<path d="M0 0 C0.6875 1.8125 0.6875 1.8125 1 4 C-0.1875 5.8125 -0.1875 5.8125 -2 7 C-4.1875 6.6875 -4.1875 6.6875 -6 6 C-5.01 5.34 -4.02 4.68 -3 4 C-2.34 3.01 -1.68 2.02 -1 1 C-0.67 0.67 -0.34 0.34 0 0 Z " fill="#909197" transform="translate(395,54)"/>
<path d="M0 0 C1.85776765 3.13498292 2.20140476 5.37471432 2 9 C1.01 9 0.02 9 -1 9 C-1.09765625 2.84765625 -1.09765625 2.84765625 -1 1 C-0.67 0.67 -0.34 0.34 0 0 Z " fill="#2B2C30" transform="translate(87,33)"/>
<path d="M0 0 C0.99 0 1.98 0 3 0 C3 3 3 6 3 9 C1.5 7.875 1.5 7.875 0 6 C-0.1875 2.8125 -0.1875 2.8125 0 0 Z " fill="#939393" transform="translate(14,25)"/>
<path d="M0 0 C0.33 0 0.66 0 1 0 C1 2.31 1 4.62 1 7 C1.66 7 2.32 7 3 7 C3 7.99 3 8.98 3 10 C2.01 10 1.02 10 0 10 C-0.95024979 6.30458414 -0.95024979 3.69541586 0 0 Z " fill="#999999" transform="translate(22,43)"/>
<path d="M0 0 C0.66 0 1.32 0 2 0 C2 0.66 2 1.32 2 2 C2.99 2 3.98 2 5 2 C5 3.32 5 4.64 5 6 C3.35 6 1.7 6 0 6 C0.66 5.67 1.32 5.34 2 5 C1.34 3.35 0.68 1.7 0 0 Z " fill="#18191B" transform="translate(134,36)"/>
<path d="M0 0 C0.99 0 1.98 0 3 0 C3 1.65 3 3.3 3 5 C1.68 5 0.36 5 -1 5 C-0.67 3.35 -0.34 1.7 0 0 Z " fill="#EBEBEC" transform="translate(401,32)"/>
<path d="M0 0 C0.99 0 1.98 0 3 0 C2.67 3.63 2.34 7.26 2 11 C1.67 11 1.34 11 1 11 C0.67 7.37 0.34 3.74 0 0 Z " fill="#9FA1A5" transform="translate(357,26)"/>
<path d="M0 0 C1.32 0.33 2.64 0.66 4 1 C3.67 3.31 3.34 5.62 3 8 C2.34 8 1.68 8 1 8 C1.020625 7.05125 1.04125 6.1025 1.0625 5.125 C1.22551826 2.09333717 1.22551826 2.09333717 0 0 Z " fill="#797B82" transform="translate(339,52)"/>
<path d="M0 0 C0.99 0.33 1.98 0.66 3 1 C3 1.99 3 2.98 3 4 C3.66 4 4.32 4 5 4 C5 4.66 5 5.32 5 6 C3.68 6 2.36 6 1 6 C0.67 4.02 0.34 2.04 0 0 Z " fill="#8C8C8C" transform="translate(30,48)"/>
<path d="M0 0 C0.66 0.33 1.32 0.66 2 1 C1.67 2.32 1.34 3.64 1 5 C1.99 5.33 2.98 5.66 4 6 C2.0625 6.5625 2.0625 6.5625 0 7 C-1 6 -1 6 -1.125 3.5 C-1 1 -1 1 0 0 Z " fill="#7C7E84" transform="translate(382,32)"/>
<path d="M0 0 C0.66 0 1.32 0 2 0 C2 1.65 2 3.3 2 5 C0.35 5 -1.3 5 -3 5 C-3.33 4.34 -3.66 3.68 -4 3 C-3.01 2.67 -2.02 2.34 -1 2 C-0.67 1.34 -0.34 0.68 0 0 Z " fill="#8D8F94" transform="translate(351,34)"/>
<path d="M0 0 C1.65 0 3.3 0 5 0 C4.67 1.32 4.34 2.64 4 4 C2.68 3.67 1.36 3.34 0 3 C0 2.01 0 1.02 0 0 Z " fill="#797979" transform="translate(33,74)"/>
<path d="M0 0 C0 3 0 3 -2 6 C-5.125 6.6875 -5.125 6.6875 -8 7 C-6.62141149 4.24282298 -4.62533685 3.53678254 -2 2 C-1.34 1.34 -0.68 0.68 0 0 Z " fill="#B87E43" transform="translate(267,65)"/>
<path d="M0 0 C1.32 0.33 2.64 0.66 4 1 C3.67 2.65 3.34 4.3 3 6 C2.01 5.67 1.02 5.34 0 5 C0 3.35 0 1.7 0 0 Z " fill="#909090" transform="translate(45,59)"/>
<path d="M0 0 C0.33 0 0.66 0 1 0 C1 1.98 1 3.96 1 6 C1.66 6 2.32 6 3 6 C3 6.66 3 7.32 3 8 C1.68 8 0.36 8 -1 8 C-0.67 5.36 -0.34 2.72 0 0 Z " fill="#7D7F85" transform="translate(376,53)"/>
<path d="M0 0 C0.99 0 1.98 0 3 0 C2.67 1.65 2.34 3.3 2 5 C1.01 5 0.02 5 -1 5 C-0.67 3.35 -0.34 1.7 0 0 Z " fill="#F6F6F6" transform="translate(319,54)"/>
<path d="M0 0 C0.99 0 1.98 0 3 0 C2.67 1.65 2.34 3.3 2 5 C1.01 5 0.02 5 -1 5 C-0.67 3.35 -0.34 1.7 0 0 Z " fill="#C3C4C7" transform="translate(318,25)"/>
</svg>
