<?xml version="1.0" encoding="UTF-8"?>
<svg version="1.1" xmlns="http://www.w3.org/2000/svg" width="1905" height="373">
<path d="M0 0 C1.05960937 0.87591797 1.05960937 0.87591797 2.140625 1.76953125 C6.91972629 5.80987834 11.0489445 10.15207915 15 15 C15.78503906 15.9590625 16.57007813 16.918125 17.37890625 17.90625 C37.73652459 43.25717241 43.87677359 72.62391408 40.72753906 104.78222656 C38.59855519 120.0711051 31.45924157 133.93508772 22 146 C21.505 146.65871094 21.01 147.31742188 20.5 147.99609375 C-5.73584571 180.59413205 -53.94832659 188.99677182 -92.8125 194.375 C-93.77490601 194.50832733 -94.73731201 194.64165466 -95.72888184 194.77902222 C-98.49165007 195.15828524 -101.25523911 195.53045845 -104.01953125 195.8984375 C-104.85182755 196.01062119 -105.68412384 196.12280487 -106.54164124 196.23838806 C-110.38915283 196.73816812 -114.10979198 197.13814868 -118 197 C-98.74337186 224.42610675 -65.73305025 240.56275566 -33.375 246.3125 C-31.58590074 246.56091631 -29.79420345 246.79162343 -28 247 C-27.17628906 247.10957031 -26.35257812 247.21914063 -25.50390625 247.33203125 C-5.04330108 249.66771677 14.96033667 247.04569246 35 243 C31.09198067 254.47056486 20.25053192 264.34292013 12 273 C11.23429687 273.83015625 10.46859375 274.6603125 9.6796875 275.515625 C-16.59607358 303.12744172 -53.89645996 320.26428042 -91 327 C-92.21816406 327.22558594 -93.43632812 327.45117188 -94.69140625 327.68359375 C-141.25971765 334.84415065 -191.62127692 322.58683728 -229.80859375 294.96875 C-232.26412002 293.03803979 -234.64317685 291.0497582 -237 289 C-237.77214844 288.33742188 -238.54429687 287.67484375 -239.33984375 286.9921875 C-241.94027505 284.70785401 -244.47672531 282.36937283 -247 280 C-247.52609863 279.50790039 -248.05219727 279.01580078 -248.59423828 278.50878906 C-262.45885458 265.43289047 -273.86827977 250.73203396 -283 234 C-283.51554443 233.05954834 -283.51554443 233.05954834 -284.04150391 232.10009766 C-307.48628354 188.74210772 -311.76161559 138.52514456 -298.24609375 91.36962891 C-283.53607516 43.34954937 -251.16508438 3.73034359 -207 -20 C-142.39724243 -53.9771478 -56.17866842 -47.51280999 0 0 Z M-182.6484375 63.2421875 C-195.62846061 78.46460663 -201.7352403 97.98810003 -200.82421875 117.828125 C-199.28141593 136.04264402 -191.76041174 151.83640922 -178.6640625 164.671875 C-177.09432008 166.20793322 -177.09432008 166.20793322 -175 166 C-173.82665037 164.55888596 -172.71230731 163.06959052 -171.625 161.5625 C-156.05489045 141.77897371 -129.75828077 134.69224479 -106.20825195 129.82128906 C-90.690549 126.54613015 -77.69863865 121.07604694 -68 108 C-63.21948668 99.71267414 -62.89143525 89.53865312 -64.4609375 80.28125 C-68.25707865 66.168537 -77.87660563 55.94903662 -90.1875 48.5625 C-121.36321695 31.24265725 -158.05659527 37.71351318 -182.6484375 63.2421875 Z " fill="#843C86" transform="translate(307,42)"/>
<path d="M0 0 C2.04469786 1.89134552 3.73242392 3.68897843 5.5 5.8125 C27.25127424 30.51052508 58.30831514 46.20322815 91 50 C91.82371094 50.10957031 92.64742187 50.21914063 93.49609375 50.33203125 C113.95669892 52.66771677 133.96033667 50.04569246 154 46 C150.09198067 57.47056486 139.25053192 67.34292013 131 76 C130.23429687 76.83015625 129.46859375 77.6603125 128.6796875 78.515625 C102.40392642 106.12744172 65.10354004 123.26428042 28 130 C26.78183594 130.22558594 25.56367188 130.45117188 24.30859375 130.68359375 C-22.16331232 137.82932692 -72.84124925 125.66541099 -110.87890625 97.8984375 C-113.30187775 95.98225546 -115.66399579 94.02099138 -118 92 C-118.78761719 91.32195312 -119.57523437 90.64390625 -120.38671875 89.9453125 C-122.26927116 88.30916747 -124.14044154 86.66217516 -126 85 C-124.50909312 80.49358655 -122.00002691 77.09374556 -119.0625 73.4375 C-118.58176025 72.83341309 -118.10102051 72.22932617 -117.60571289 71.60693359 C-114.16967107 67.33823304 -110.61446242 63.1877138 -106.9375 59.125 C-106.2405603 58.34854126 -106.2405603 58.34854126 -105.52954102 57.55639648 C-104.39640041 56.32940617 -103.20306692 55.15850889 -102 54 C-101.34 54 -100.68 54 -100 54 C-100 53.34 -100 52.68 -100 52 C-98.45111498 50.58293498 -96.83238466 49.24190504 -95.1875 47.9375 C-90.76131883 44.41554817 -90.76131883 44.41554817 -86.41796875 40.79296875 C-68.03740784 25.1229053 -25.64900256 -4.74831218 0 0 Z " fill="#422A6F" transform="translate(188,239)"/>
<path d="M0 0 C17.69728008 13.08469112 28.79361398 30.52364471 33.04069519 52.03884888 C33.58232272 55.84797391 33.67847712 59.58695228 33.69262695 63.42529297 C33.69919815 64.2100148 33.70576935 64.99473663 33.71253967 65.80323792 C33.73217018 68.38835775 33.74391717 70.97341954 33.75390625 73.55859375 C33.75798178 74.44882359 33.7620573 75.33905342 33.76625633 76.25625992 C33.78708132 80.97552504 33.80139407 85.69476146 33.81079102 90.4140625 C33.82180112 95.24628832 33.8561484 100.07804677 33.89596272 104.91010857 C33.92234098 108.66121163 33.93050184 112.41220732 33.93407249 116.16339493 C33.93889003 117.94208021 33.95036252 119.72076232 33.96911049 121.49935532 C34.11210096 135.97318388 32.730417 149.82464067 25.703125 162.81640625 C25.35548096 163.48051514 25.00783691 164.14462402 24.6496582 164.82885742 C21.79007364 170.15384822 18.59769408 174.90417321 14.515625 179.37890625 C13.73832031 180.25933594 12.96101562 181.13976562 12.16015625 182.046875 C-0.28469366 195.37407764 -17.35745904 204.65826064 -35.82055664 205.5378418 C-39.41892167 205.57474938 -43.01119865 205.55398793 -46.609375 205.50390625 C-47.85203125 205.49488281 -49.0946875 205.48585938 -50.375 205.4765625 C-53.41166504 205.45320354 -56.44791353 205.42044908 -59.484375 205.37890625 C-60.37000589 201.58816088 -60.60118801 198.09194727 -60.58203125 194.203125 C-60.57880859 193.04619141 -60.57558594 191.88925781 -60.57226562 190.69726562 C-60.55969727 188.89999023 -60.55969727 188.89999023 -60.546875 187.06640625 C-60.54236328 185.84888672 -60.53785156 184.63136719 -60.53320312 183.37695312 C-60.52144078 180.37755399 -60.50500326 177.37825536 -60.484375 174.37890625 C-59.38935669 174.31944824 -59.38935669 174.31944824 -58.2722168 174.25878906 C-54.90420191 174.06604202 -51.53829928 173.84762358 -48.171875 173.62890625 C-47.02396484 173.56703125 -45.87605469 173.50515625 -44.69335938 173.44140625 C-29.00952752 172.3750834 -18.08935426 166.71983999 -7.52734375 155.234375 C-5.72235526 152.71153258 -4.57956282 150.52298235 -3.35668945 147.70043945 C-3.00387405 146.8908931 -2.65105865 146.08134674 -2.28755188 145.24726868 C-1.88997932 144.32242928 -1.88997932 144.32242928 -1.484375 143.37890625 C-2.4149321 143.388899 -2.4149321 143.388899 -3.36428833 143.39909363 C-9.88684852 143.46604422 -16.40930935 143.51095171 -22.93212891 143.54370117 C-25.35860161 143.55868338 -27.78504772 143.57907617 -30.21142578 143.60522461 C-57.39348786 143.8905859 -79.48079213 140.15202233 -100.10546875 120.8515625 C-116.47322477 103.83877176 -123.008408 83.43083857 -122.69921875 60.24609375 C-122.07977724 40.50860965 -113.11658661 23.23908126 -99.484375 9.37890625 C-98.79601562 8.67765625 -98.10765625 7.97640625 -97.3984375 7.25390625 C-71.21065011 -17.66830034 -29.69382053 -19.37568478 0 0 Z M-78.42578125 33.2578125 C-87.99480471 43.48819396 -91.12605834 55.35080305 -90.79296875 69.0859375 C-90.16742959 80.87254877 -84.32589344 92.10568399 -75.796875 100.19140625 C-64.78665837 109.1023987 -53.52023195 111.69585648 -39.76953125 111.57421875 C-38.55865341 111.57138885 -37.34777557 111.56855896 -36.10020447 111.56564331 C-32.24899232 111.55448655 -28.39801636 111.5293898 -24.546875 111.50390625 C-21.92903983 111.49387065 -19.31120099 111.48474581 -16.69335938 111.4765625 C-10.29028458 111.45456192 -3.88734667 111.42112901 2.515625 111.37890625 C2.57886464 99.04522992 2.58741627 86.71257558 2.515625 74.37890625 C2.50982422 73.25436035 2.50402344 72.12981445 2.49804688 70.97119141 C2.33384961 55.15078526 -1.12583147 43.0104073 -12.359375 31.44921875 C-31.7815508 13.20177133 -59.8320576 15.26267955 -78.42578125 33.2578125 Z " fill="#21173F" transform="translate(873.484375,122.62109375)"/>
<path d="M0 0 C17.69728008 13.08469112 28.79361398 30.52364471 33.04069519 52.03884888 C33.58232272 55.84797391 33.67847712 59.58695228 33.69262695 63.42529297 C33.69919815 64.2100148 33.70576935 64.99473663 33.71253967 65.80323792 C33.73217018 68.38835775 33.74391717 70.97341954 33.75390625 73.55859375 C33.75798178 74.44882359 33.7620573 75.33905342 33.76625633 76.25625992 C33.78708132 80.97552504 33.80139407 85.69476146 33.81079102 90.4140625 C33.82180112 95.24628832 33.8561484 100.07804677 33.89596272 104.91010857 C33.92234098 108.66121163 33.93050184 112.41220732 33.93407249 116.16339493 C33.93889003 117.94208021 33.95036252 119.72076232 33.96911049 121.49935532 C34.11210096 135.97318388 32.730417 149.82464067 25.703125 162.81640625 C25.35548096 163.48051514 25.00783691 164.14462402 24.6496582 164.82885742 C21.79007364 170.15384822 18.59769408 174.90417321 14.515625 179.37890625 C13.73832031 180.25933594 12.96101563 181.13976562 12.16015625 182.046875 C-0.28469366 195.37407764 -17.35745904 204.65826064 -35.82055664 205.5378418 C-39.41892167 205.57474938 -43.01119865 205.55398793 -46.609375 205.50390625 C-47.85203125 205.49488281 -49.0946875 205.48585938 -50.375 205.4765625 C-53.41166504 205.45320354 -56.44791353 205.42044908 -59.484375 205.37890625 C-60.37000589 201.58816088 -60.60118801 198.09194727 -60.58203125 194.203125 C-60.57880859 193.04619141 -60.57558594 191.88925781 -60.57226562 190.69726562 C-60.55969727 188.89999023 -60.55969727 188.89999023 -60.546875 187.06640625 C-60.54236328 185.84888672 -60.53785156 184.63136719 -60.53320312 183.37695312 C-60.52144078 180.37755399 -60.50500326 177.37825536 -60.484375 174.37890625 C-59.38935669 174.31944824 -59.38935669 174.31944824 -58.2722168 174.25878906 C-54.90420191 174.06604202 -51.53829928 173.84762358 -48.171875 173.62890625 C-47.02396484 173.56703125 -45.87605469 173.50515625 -44.69335938 173.44140625 C-29.00952752 172.3750834 -18.08935426 166.71983999 -7.52734375 155.234375 C-5.72235526 152.71153258 -4.57956282 150.52298235 -3.35668945 147.70043945 C-3.00387405 146.8908931 -2.65105865 146.08134674 -2.28755188 145.24726868 C-1.88997932 144.32242928 -1.88997932 144.32242928 -1.484375 143.37890625 C-2.4149321 143.388899 -2.4149321 143.388899 -3.36428833 143.39909363 C-9.88684852 143.46604422 -16.40930935 143.51095171 -22.93212891 143.54370117 C-25.35860161 143.55868338 -27.78504772 143.57907617 -30.21142578 143.60522461 C-57.39348786 143.8905859 -79.48079213 140.15202233 -100.10546875 120.8515625 C-116.47322477 103.83877176 -123.008408 83.43083857 -122.69921875 60.24609375 C-122.07977724 40.50860965 -113.11658661 23.23908126 -99.484375 9.37890625 C-98.79601563 8.67765625 -98.10765625 7.97640625 -97.3984375 7.25390625 C-71.21065011 -17.66830034 -29.69382053 -19.37568478 0 0 Z M-78.42578125 33.2578125 C-87.99480471 43.48819396 -91.12605834 55.35080305 -90.79296875 69.0859375 C-90.16742959 80.87254877 -84.32589344 92.10568399 -75.796875 100.19140625 C-64.78665837 109.1023987 -53.52023195 111.69585648 -39.76953125 111.57421875 C-38.55865341 111.57138885 -37.34777557 111.56855896 -36.10020447 111.56564331 C-32.24899232 111.55448655 -28.39801636 111.5293898 -24.546875 111.50390625 C-21.92903983 111.49387065 -19.31120099 111.48474581 -16.69335938 111.4765625 C-10.29028458 111.45456192 -3.88734667 111.42112901 2.515625 111.37890625 C2.57886464 99.04522992 2.58741627 86.71257558 2.515625 74.37890625 C2.50982422 73.25436035 2.50402344 72.12981445 2.49804688 70.97119141 C2.33384961 55.15078526 -1.12583147 43.0104073 -12.359375 31.44921875 C-31.7815508 13.20177133 -59.8320576 15.26267955 -78.42578125 33.2578125 Z " fill="#21173F" transform="translate(1216.484375,121.62109375)"/>
<path d="M0 0 C10.56 0 21.12 0 32 0 C32.0093457 2.50682373 32.01869141 5.01364746 32.02832031 7.59643555 C32.06224052 15.92254137 32.11787214 24.24840326 32.18390274 32.57431316 C32.22324228 37.61734416 32.25549667 42.66020406 32.27099609 47.70336914 C32.28625229 52.57951506 32.32085479 57.4551902 32.36830902 62.33112526 C32.38303102 64.18199358 32.39103568 66.03292915 32.39188385 67.88385582 C32.40680875 84.13754359 34.13262283 99.14946135 46.2890625 111.28515625 C58.938725 122.02732996 71.94652393 124.26078017 88 123 C95.57775232 121.46692872 101.9532756 117.72472192 108 113 C108.61617187 112.52175781 109.23234375 112.04351562 109.8671875 111.55078125 C118.23013238 104.17280543 122.64613643 92.85901137 124 82 C124.35087245 75.70393712 124.23342108 69.38881562 124.1953125 63.0859375 C124.19157628 61.2617712 124.18873219 59.43760287 124.18673706 57.61343384 C124.17914855 52.84265474 124.15954181 48.07199996 124.1373291 43.30126953 C124.11676696 38.42091554 124.10771329 33.5405412 124.09765625 28.66015625 C124.07629083 19.1067078 124.04114836 9.55338375 124 0 C134.56 0 145.12 0 156 0 C157.09684107 81.66506842 157.09684107 81.66506842 157.17724609 116.13687134 C157.18402309 118.69008525 157.19421602 121.24329262 157.20800781 123.79647827 C157.33868877 149.70677295 155.0525159 172.77851269 137 193 C136.33355469 193.76054687 135.66710938 194.52109375 134.98046875 195.3046875 C121.92652048 209.30317006 103.85931166 217.59072574 84.77734375 218.4140625 C82.16435822 218.49461907 79.55099055 218.56295257 76.9375 218.625 C72.338125 218.74875 67.73875 218.8725 63 219 C63 208.44 63 197.88 63 187 C67.57875 186.8453125 67.57875 186.8453125 72.25 186.6875 C86.74385333 186.03060456 100.17081235 183.27110591 111.1171875 173.078125 C119.39314895 163.94366133 123.04155961 154.07634894 124 142 C122.78376953 142.79664063 122.78376953 142.79664063 121.54296875 143.609375 C103.10089971 155.37451334 82.1757518 159.38126896 60.4934082 154.97241211 C41.29335359 150.27496544 23.38336449 138.46258582 12.8046875 121.60546875 C1.84680566 103.34316363 -0.47898262 85.75499609 -0.29296875 64.84375 C-0.28735705 62.96090029 -0.28309442 61.07804613 -0.28010559 59.19519043 C-0.2687805 54.29619749 -0.23942321 49.39748149 -0.20599365 44.49859619 C-0.17502307 39.47696679 -0.16154323 34.45529161 -0.14648438 29.43359375 C-0.11453861 19.62225605 -0.06187526 9.81119463 0 0 Z " fill="#21173F" transform="translate(1475,108)"/>
<path d="M0 0 C15.91855544 12.58384765 25.95819936 30.09739375 29.125 50.125 C29.36638419 53.26301486 29.38013099 56.37592754 29.35205078 59.52197266 C29.35234283 60.40125427 29.35263489 61.28053589 29.35293579 62.1864624 C29.35155734 65.05410092 29.33606709 67.92147013 29.3203125 70.7890625 C29.31657708 72.79259092 29.31373261 74.79612119 29.31173706 76.7996521 C29.30414229 82.04389592 29.28452995 87.28802695 29.2623291 92.53222656 C29.24178066 97.89516678 29.23271619 103.25812542 29.22265625 108.62109375 C29.20127976 119.12244507 29.16719459 129.62371312 29.125 140.125 C18.02343961 140.19484604 6.92193243 140.24798573 -4.17980385 140.28043652 C-9.33609464 140.29601981 -14.49223389 140.31712235 -19.6484375 140.35131836 C-24.63460126 140.38417561 -29.62062025 140.40190802 -34.606884 140.40963173 C-36.49885712 140.41512831 -38.39082329 140.42586018 -40.28273392 140.44219017 C-64.45605969 140.64233651 -86.03619381 135.0647066 -104.14453125 118.08276367 C-119.46871186 102.9367174 -126.91711215 83.17104399 -127.1875 61.8125 C-127.10456761 40.1097311 -119.01990534 21.52316462 -103.875 6.125 C-103.18664062 5.42375 -102.49828125 4.7225 -101.7890625 4 C-74.10401162 -22.34711162 -29.83463621 -22.58611074 0 0 Z M-82.0078125 29.0546875 C-92.12228961 39.55374549 -95.40120332 51.59859851 -95.1484375 65.7265625 C-94.6357439 77.54897235 -88.73030834 88.83870457 -80.1875 96.9375 C-69.17728337 105.84849245 -57.91085695 108.44195023 -44.16015625 108.3203125 C-42.94927841 108.3174826 -41.73840057 108.31465271 -40.49082947 108.31173706 C-36.63961732 108.3005803 -32.78864136 108.27548355 -28.9375 108.25 C-26.31966483 108.2399644 -23.70182599 108.23083956 -21.08398438 108.22265625 C-14.68090958 108.20065567 -8.27797167 108.16722276 -1.875 108.125 C-1.84980102 103.1852249 -1.83191106 98.24548927 -1.82006836 93.30566406 C-1.8151182 91.63410794 -1.80835638 89.96255594 -1.79956055 88.29101562 C-1.7534459 79.28509563 -1.82146671 70.30079298 -2.27734375 61.3046875 C-2.31109604 60.57657867 -2.34484833 59.84846985 -2.37962341 59.09829712 C-3.13111997 46.0180763 -8.68901282 35.84094426 -18.0625 26.875 C-37.62729917 10.57649951 -63.46489685 12.27776382 -82.0078125 29.0546875 Z " fill="#21173F" transform="translate(1049.875,125.875)"/>
<path d="M0 0 C15.91855544 12.58384765 25.95819936 30.09739375 29.125 50.125 C29.36638419 53.26301486 29.38013099 56.37592754 29.35205078 59.52197266 C29.35234283 60.40125427 29.35263489 61.28053589 29.35293579 62.1864624 C29.35155734 65.05410092 29.33606709 67.92147013 29.3203125 70.7890625 C29.31657708 72.79259092 29.31373261 74.79612119 29.31173706 76.7996521 C29.30414229 82.04389592 29.28452995 87.28802695 29.2623291 92.53222656 C29.24178066 97.89516678 29.23271619 103.25812542 29.22265625 108.62109375 C29.20127976 119.12244507 29.16719459 129.62371312 29.125 140.125 C18.02343961 140.19484604 6.92193243 140.24798573 -4.17980385 140.28043652 C-9.33609464 140.29601981 -14.49223389 140.31712235 -19.6484375 140.35131836 C-24.63460126 140.38417561 -29.62062025 140.40190802 -34.606884 140.40963173 C-36.49885712 140.41512831 -38.39082329 140.42586018 -40.28273392 140.44219017 C-64.45605969 140.64233651 -86.03619381 135.0647066 -104.14453125 118.08276367 C-119.46871186 102.9367174 -126.91711215 83.17104399 -127.1875 61.8125 C-127.10456761 40.1097311 -119.01990534 21.52316462 -103.875 6.125 C-103.18664063 5.42375 -102.49828125 4.7225 -101.7890625 4 C-74.10401162 -22.34711162 -29.83463621 -22.58611074 0 0 Z M-82.0078125 29.0546875 C-92.12228961 39.55374549 -95.40120332 51.59859851 -95.1484375 65.7265625 C-94.6357439 77.54897235 -88.73030834 88.83870457 -80.1875 96.9375 C-69.17728337 105.84849245 -57.91085695 108.44195023 -44.16015625 108.3203125 C-42.94927841 108.3174826 -41.73840057 108.31465271 -40.49082947 108.31173706 C-36.63961732 108.3005803 -32.78864136 108.27548355 -28.9375 108.25 C-26.31966483 108.2399644 -23.70182599 108.23083956 -21.08398438 108.22265625 C-14.68090958 108.20065567 -8.27797167 108.16722276 -1.875 108.125 C-1.84980102 103.1852249 -1.83191106 98.24548927 -1.82006836 93.30566406 C-1.8151182 91.63410794 -1.80835638 89.96255594 -1.79956055 88.29101562 C-1.7534459 79.28509563 -1.82146671 70.30079298 -2.27734375 61.3046875 C-2.31109604 60.57657867 -2.34484833 59.84846985 -2.37962341 59.09829712 C-3.13111997 46.0180763 -8.68901282 35.84094426 -18.0625 26.875 C-37.62729917 10.57649951 -63.46489685 12.27776382 -82.0078125 29.0546875 Z " fill="#21173F" transform="translate(1822.875,122.875)"/>
<path d="M0 0 C3.59306192 3.22622593 6.94422143 6.67017717 10.2578125 10.1796875 C12.4250277 12.40864672 14.44728825 14.25340775 17 16 C15.6232587 19.09219949 14.04755625 21.19873142 11.65318298 23.58059692 C10.61628578 24.61945038 10.61628578 24.61945038 9.55844116 25.67929077 C8.8004422 26.42852814 8.04244324 27.1777655 7.26147461 27.94970703 C6.46299606 28.74687134 5.66451752 29.54403564 4.84184265 30.36535645 C2.19990619 33.00079847 -0.4489269 35.62919925 -3.09765625 38.2578125 C-4.93136907 40.08525633 -6.76456862 41.91321532 -8.59727478 43.7416687 C-12.9309796 48.06342306 -17.26875168 52.38105177 -21.60886902 56.69636524 C-29.84667488 64.88717763 -38.0773709 73.08511337 -46.30407524 81.28707504 C-49.0122931 83.98503594 -51.72388008 86.67957711 -54.43580627 89.37380981 C-56.08760775 91.01878624 -57.73930132 92.66387102 -59.39086914 94.30908203 C-60.53090393 95.43901077 -60.53090393 95.43901077 -61.69396973 96.59176636 C-62.3824147 97.27869568 -63.07085968 97.965625 -63.78016663 98.67337036 C-64.68193178 99.56985637 -64.68193178 99.56985637 -65.60191441 100.4844532 C-67.09900746 101.9665511 -67.09900746 101.9665511 -68 104 C-52.68229086 107.66056207 -40.03591723 108.3990812 -25.65625 100.7890625 C-18.72588904 96.12126056 -11.73973053 89.8866468 -7 83 C-2.91664456 83.52886833 -1.05646982 85.59629038 1.765625 88.47265625 C2.65507813 89.37177734 3.54453125 90.27089844 4.4609375 91.19726562 C5.38132812 92.14279297 6.30171875 93.08832031 7.25 94.0625 C8.19461673 95.02216973 9.13992195 95.98116229 10.0859375 96.93945312 C12.39749172 99.28638828 14.7017634 101.64003391 17 104 C10.44528313 118.29539638 -7.28701767 129.1863462 -21.27734375 135.00390625 C-39.9368331 141.8305487 -62.95597489 141.71656784 -81.02490234 133.33422852 C-102.29981132 122.9836712 -115.82414958 107.90109619 -124.1953125 85.8515625 C-130.46540919 66.33972314 -128.61254966 43.9006302 -119.6875 25.5625 C-116.63381267 19.85539725 -113.33115752 14.80673561 -109 10 C-108.19820313 9.10539062 -107.39640625 8.21078125 -106.5703125 7.2890625 C-78.77618027 -22.11632377 -31.71982629 -25.28799448 0 0 Z M-80 26 C-80.64710938 26.53496094 -81.29421875 27.06992188 -81.9609375 27.62109375 C-90.57752271 35.46632527 -95.28193086 46.75217806 -96.28125 58.23046875 C-96.49926362 65.97903616 -95.49098343 73.01803314 -92 80 C-87.82741081 78.36312397 -85.03574927 75.30669032 -81.94921875 72.1796875 C-81.08367119 71.31345261 -81.08367119 71.31345261 -80.20063782 70.42971802 C-78.98042338 69.20648633 -77.76263649 67.98082895 -76.54711914 66.75292969 C-74.7095724 64.89728973 -72.86431462 63.04961463 -71.01757812 61.203125 C-65.69167827 55.86037375 -60.46867494 50.50648825 -55.57299805 44.76220703 C-52.61862285 41.4524631 -49.32997322 38.49531432 -46.0625 35.5 C-44.65662131 34.1976186 -43.25166351 32.89424239 -41.84765625 31.58984375 C-41.1839502 30.97351074 -40.52024414 30.35717773 -39.83642578 29.72216797 C-36.47184052 26.56691877 -33.21335786 23.30849016 -30 20 C-45.63196547 9.57868969 -66.44952795 14.72390047 -80 26 Z " fill="#21173F" transform="translate(546,129)"/>
<path d="M0 0 C3.59306192 3.22622593 6.94422143 6.67017717 10.2578125 10.1796875 C12.4250277 12.40864672 14.44728825 14.25340775 17 16 C15.6232587 19.09219949 14.04755625 21.19873142 11.65318298 23.58059692 C10.61628578 24.61945038 10.61628578 24.61945038 9.55844116 25.67929077 C8.8004422 26.42852814 8.04244324 27.1777655 7.26147461 27.94970703 C6.46299606 28.74687134 5.66451752 29.54403564 4.84184265 30.36535645 C2.19990619 33.00079847 -0.4489269 35.62919925 -3.09765625 38.2578125 C-4.93136907 40.08525633 -6.76456862 41.91321532 -8.59727478 43.7416687 C-12.9309796 48.06342306 -17.26875168 52.38105177 -21.60886902 56.69636524 C-29.84667488 64.88717763 -38.0773709 73.08511337 -46.30407524 81.28707504 C-49.0122931 83.98503594 -51.72388008 86.67957711 -54.43580627 89.37380981 C-56.08760775 91.01878624 -57.73930132 92.66387102 -59.39086914 94.30908203 C-60.53090393 95.43901077 -60.53090393 95.43901077 -61.69396973 96.59176636 C-62.3824147 97.27869568 -63.07085968 97.965625 -63.78016663 98.67337036 C-64.68193178 99.56985637 -64.68193178 99.56985637 -65.60191441 100.4844532 C-67.09900746 101.9665511 -67.09900746 101.9665511 -68 104 C-52.68229086 107.66056207 -40.03591723 108.3990812 -25.65625 100.7890625 C-18.72588904 96.12126056 -11.73973053 89.8866468 -7 83 C-2.91664456 83.52886833 -1.05646982 85.59629038 1.765625 88.47265625 C2.65507813 89.37177734 3.54453125 90.27089844 4.4609375 91.19726562 C5.38132812 92.14279297 6.30171875 93.08832031 7.25 94.0625 C8.19461673 95.02216973 9.13992195 95.98116229 10.0859375 96.93945312 C12.39749172 99.28638828 14.7017634 101.64003391 17 104 C10.44528313 118.29539638 -7.28701767 129.1863462 -21.27734375 135.00390625 C-39.9368331 141.8305487 -62.95597489 141.71656784 -81.02490234 133.33422852 C-102.29981132 122.9836712 -115.82414958 107.90109619 -124.1953125 85.8515625 C-130.46540919 66.33972314 -128.61254966 43.9006302 -119.6875 25.5625 C-116.63381267 19.85539725 -113.33115752 14.80673561 -109 10 C-108.19820312 9.10539062 -107.39640625 8.21078125 -106.5703125 7.2890625 C-78.77618027 -22.11632377 -31.71982629 -25.28799448 0 0 Z M-80 26 C-80.64710937 26.53496094 -81.29421875 27.06992188 -81.9609375 27.62109375 C-90.57752271 35.46632527 -95.28193086 46.75217806 -96.28125 58.23046875 C-96.49926362 65.97903616 -95.49098343 73.01803314 -92 80 C-87.82741081 78.36312397 -85.03574927 75.30669032 -81.94921875 72.1796875 C-81.08367119 71.31345261 -81.08367119 71.31345261 -80.20063782 70.42971802 C-78.98042338 69.20648633 -77.76263649 67.98082895 -76.54711914 66.75292969 C-74.7095724 64.89728973 -72.86431462 63.04961463 -71.01757812 61.203125 C-65.69167827 55.86037375 -60.46867494 50.50648825 -55.57299805 44.76220703 C-52.61862285 41.4524631 -49.32997322 38.49531432 -46.0625 35.5 C-44.65662131 34.1976186 -43.25166351 32.89424239 -41.84765625 31.58984375 C-41.1839502 30.97351074 -40.52024414 30.35717773 -39.83642578 29.72216797 C-36.47184052 26.56691877 -33.21335786 23.30849016 -30 20 C-45.63196547 9.57868969 -66.44952795 14.72390047 -80 26 Z " fill="#21173F" transform="translate(1393,126)"/>
<path d="M0 0 C14.38301205 12.14836329 24.6542565 30.14700448 26.7225647 48.96214294 C26.88750369 51.19580851 27.0027329 53.4263043 27.09765625 55.6640625 C27.13708847 56.54543381 27.17652069 57.42680511 27.21714783 58.33488464 C27.77624862 72.8215708 27.60958427 87.33400086 27.56866455 101.82879639 C27.55642544 106.63585859 27.55200846 111.44293417 27.54621124 116.25000763 C27.53665187 123.47919858 27.51743842 130.70830452 27.5 137.9375 C16.94 137.9375 6.38 137.9375 -4.5 137.9375 C-4.51458252 135.52155518 -4.52916504 133.10561035 -4.54418945 130.61645508 C-4.59476796 122.58972518 -4.6614025 114.56318457 -4.73571491 106.53664112 C-4.78023917 101.67524215 -4.81953371 96.81392354 -4.84643555 91.95239258 C-4.87264897 87.25136884 -4.91317561 82.55065736 -4.96318626 77.84982872 C-4.979734 76.06594445 -4.9913229 74.28200633 -4.99761391 72.49805641 C-5.06784444 54.39557914 -7.18670375 39.89803116 -19.98046875 26.234375 C-24.06367599 22.51200933 -28.45227456 20.12244401 -33.5 17.9375 C-34.27859375 17.59847656 -35.0571875 17.25945312 -35.859375 16.91015625 C-46.29454857 13.11077259 -58.57022589 13.71129513 -68.82421875 17.6796875 C-81.16582987 23.48114558 -89.5099111 32.2238977 -94.5 44.9375 C-96.15132254 50.64261503 -96.80215075 55.72734143 -96.81884766 61.6484375 C-96.83391609 62.89377007 -96.83391609 62.89377007 -96.84928894 64.16426086 C-96.87992589 66.88033419 -96.89710137 69.59630985 -96.9140625 72.3125 C-96.93278986 74.20679554 -96.95236443 76.10108288 -96.9727478 77.99536133 C-97.02390937 82.96005398 -97.06362029 87.92477363 -97.10089111 92.8895874 C-97.14103128 97.96421907 -97.19207779 103.03873997 -97.2421875 108.11328125 C-97.33875755 118.05461714 -97.42221345 127.99599937 -97.5 137.9375 C-108.06 137.9375 -118.62 137.9375 -129.5 137.9375 C-129.56811065 126.98356039 -129.62300784 116.02976427 -129.65543652 105.07565975 C-129.67101029 99.98777762 -129.69209484 94.90004943 -129.72631836 89.81225586 C-129.75921032 84.89092586 -129.77691512 79.96974278 -129.78463173 75.04831123 C-129.79012221 73.18228408 -129.80084162 71.31626383 -129.81719017 69.45030022 C-130.03032646 44.08643682 -124.52302745 22.46270659 -106.37890625 3.7265625 C-76.88261105 -25.52186468 -31.88843221 -24.46419694 0 0 Z " fill="#21173F" transform="translate(708.5,129.0625)"/>
<path d="M0 0 C10.56 0 21.12 0 32 0 C32 71.94 32 143.88 32 218 C21.77 218 11.54 218 1 218 C0.17790719 171.21856298 -0.136759 124.45639619 -0.07202661 77.66822827 C-0.06047622 69.15908312 -0.05526037 60.64993672 -0.05032361 52.14078557 C-0.04011102 34.76051291 -0.02191965 17.38026245 0 0 Z " fill="#21173F" transform="translate(1426,46)"/>
<path d="M0 0 C10.56 0 21.12 0 32 0 C32 51.48 32 102.96 32 156 C21.77 156 11.54 156 1 156 C0.82392279 146.31260899 0.65433234 136.62524588 0.5 126.9375 C0.48812275 126.19244328 0.4762455 125.44738655 0.46400833 124.67975235 C0.01473578 96.18202986 -0.08754203 67.68845958 -0.0625 39.1875 C-0.06164398 38.20623516 -0.06078796 37.22497032 -0.05990601 36.21397018 C-0.04858652 24.14262535 -0.02779734 12.07131752 0 0 Z " fill="#21173F" transform="translate(1867,106)"/>
<path d="M0 0 C-1.11375 0.47308594 -2.2275 0.94617188 -3.375 1.43359375 C-18.74969393 8.05546866 -32.93969017 15.41244217 -46 26 C-46.5269043 26.42539062 -47.05380859 26.85078125 -47.59667969 27.2890625 C-71.14119296 46.40413322 -87.43540141 69.09324479 -101 96 C-105.96468913 93.34720731 -109.83420772 90.60000264 -113.9375 86.75 C-115.37416016 85.41195312 -115.37416016 85.41195312 -116.83984375 84.046875 C-117.55269531 83.37140625 -118.26554687 82.6959375 -119 82 C-117.50909312 77.49358655 -115.00002691 74.09374556 -112.0625 70.4375 C-111.58176025 69.83341309 -111.10102051 69.22932617 -110.60571289 68.60693359 C-107.16967107 64.33823304 -103.61446242 60.1877138 -99.9375 56.125 C-99.2405603 55.34854126 -99.2405603 55.34854126 -98.52954102 54.55639648 C-97.39640041 53.32940617 -96.20306692 52.15850889 -95 51 C-94.34 51 -93.68 51 -93 51 C-93 50.34 -93 49.68 -93 49 C-91.45111498 47.58293498 -89.83238466 46.24190504 -88.1875 44.9375 C-83.76131883 41.41554817 -83.76131883 41.41554817 -79.41796875 37.79296875 C-63.52051282 24.23983812 -22.05131415 -6.783384 0 0 Z " fill="#221741" transform="translate(181,242)"/>
<path d="M0 0 C1.19367188 -0.01675781 2.38734375 -0.03351562 3.6171875 -0.05078125 C10.64475608 0.67701817 14.34493421 4.10450592 18.64453125 9.34375 C22.62141592 14.63227209 22.77116937 19.87099912 22.125 26.3125 C20.03503698 32.91238321 16.54974197 38.16157677 10.5 41.6875 C4.55825755 44.33447925 -1.46114253 44.40842584 -7.625 42.4296875 C-14.84710266 39.18404017 -18.26330986 35.19520807 -21.25 28 C-22.53005387 20.44768219 -21.69956705 14.33227019 -17.26953125 8 C-12.35292555 2.05049394 -7.56378159 0.0243993 0 0 Z " fill="#21173F" transform="translate(1882.875,38.6875)"/>
<path d="M0 0 C3.83669597 2.02693372 6.99766408 4.10071426 9 8 C10.10280384 12.47105742 10.36739202 15.9182346 8.875 20.3125 C6.15801362 24.20684715 3.51413003 26.49528999 -1 28 C-6.73421758 28.54096392 -9.50752204 27.57356201 -14 24 C-17.40320241 21.06620481 -17.9347857 18.78257156 -18.3125 14.25 C-18.23309189 9.45904407 -16.86083447 6.839541 -14 3 C-9.59672466 -0.10230763 -5.25630342 -0.95473775 0 0 Z " fill="#21173F" transform="translate(1678,242)"/>
</svg>
