<?xml version="1.0" encoding="UTF-8"?>
<svg version="1.1" xmlns="http://www.w3.org/2000/svg" width="292" height="292">
<path d="M0 0 C96.36 0 192.72 0 292 0 C292 96.36 292 192.72 292 292 C195.64 292 99.28 292 0 292 C0 195.64 0 99.28 0 0 Z " fill="#273D57" transform="translate(0,0)"/>
<path d="M0 0 C1.79299952 0.26186419 3.58433748 0.53510518 5.375 0.8125 C6.87160156 1.03873047 6.87160156 1.03873047 8.3984375 1.26953125 C13.03281902 2.20947631 17.49222175 3.58280317 22 5 C21.74831055 5.55349121 21.49662109 6.10698242 21.23730469 6.67724609 C20.07256668 9.24212516 18.91127296 11.80855035 17.75 14.375 C17.35425781 15.24511719 16.95851562 16.11523438 16.55078125 17.01171875 C13.86897092 22.94687275 11.36804195 28.93291322 9 35 C9.99 35.33 10.98 35.66 12 36 C21.22653261 46.64599916 21.85713567 59.19716921 21.22241211 72.67651367 C20.33938632 81.90127376 17.13624459 90.90808389 10 97 C8.7934375 98.0828125 8.7934375 98.0828125 7.5625 99.1875 C2.76833475 102.57849493 -2.10477703 103.27172104 -7.875 103.625 C-9.60363281 103.73714844 -9.60363281 103.73714844 -11.3671875 103.8515625 C-12.23601562 103.90054688 -13.10484375 103.94953125 -14 104 C-14.33 105.32 -14.66 106.64 -15 108 C-10.51073591 110.52260505 -6.41172886 111.59418685 -1.375 112.3125 C8.30626084 113.91857682 17.05230515 116.78279001 23 125 C27.05357432 130.79082045 26.83080852 137.20973802 26 144 C23.79030537 151.38610891 19.42327025 156.80703192 13 161 C4.76116267 165.11941866 -2.71052691 166.19641958 -11.8125 166.25 C-13.10897461 166.2809375 -13.10897461 166.2809375 -14.43164062 166.3125 C-23.93789112 166.36989623 -30.9922498 163.31222934 -38.25 157.0625 C-41.6099043 153.10261279 -42.48707763 149.31977473 -42.30078125 144.11328125 C-41.58689707 139.09754955 -39.70326635 135.42190974 -35.80078125 132.1640625 C-29.7306338 128 -29.7306338 128 -27 128 C-27.42152344 127.51789063 -27.84304687 127.03578125 -28.27734375 126.5390625 C-29.09912109 125.59160156 -29.09912109 125.59160156 -29.9375 124.625 C-30.48277344 123.99851562 -31.02804688 123.37203125 -31.58984375 122.7265625 C-34.5049635 119.15735771 -34.32782283 116.01723251 -34.2890625 111.546875 C-33.87213938 107.87344429 -32.40362785 105.74700325 -30 103 C-28.515 102.01 -28.515 102.01 -27 101 C-27 100.34 -27 99.68 -27 99 C-28.2138363 97.93642013 -29.47245038 96.92363775 -30.75 95.9375 C-35.20228725 92.13810999 -37.21146986 88.51620347 -39 83 C-39.33644531 82.02160156 -39.33644531 82.02160156 -39.6796875 81.0234375 C-43.31635947 68.12072462 -41.724121 54.27593363 -35.71484375 42.4765625 C-31.67096189 35.69545698 -26.21973504 31.92640078 -19.125 28.6875 C-16.15250574 28.03355126 -13.33350983 27.71798281 -10.3046875 27.45703125 C-9.31194824 27.37042236 -8.31920898 27.28381348 -7.29638672 27.19458008 C-6.5385791 27.13036865 -5.78077148 27.06615723 -5 27 C-4.88406494 26.2886792 -4.76812988 25.5773584 -4.64868164 24.84448242 C-4.1224992 21.62506633 -3.59254451 18.40628239 -3.0625 15.1875 C-2.88009766 14.06794922 -2.69769531 12.94839844 -2.50976562 11.79492188 C-2.33251953 10.72177734 -2.15527344 9.64863281 -1.97265625 8.54296875 C-1.81031494 7.55321045 -1.64797363 6.56345215 -1.48071289 5.54370117 C-1 3 -1 3 0 0 Z " fill="#FCFCFC" transform="translate(148,53)"/>
<path d="M0 0 C4.3811842 2.37314144 6.331038 5.34447443 8 10 C8.74595099 15.69170825 8.27782223 20.13978083 5 25 C1.5518755 28.11172211 -0.64914184 29.89804844 -5.3125 30.25 C-9.94402804 29.9359981 -12.12075612 28.46163413 -15.6875 25.6875 C-18.83388909 21.6421426 -19.40190894 16.92814292 -19.25 11.953125 C-18.70315277 7.680881 -16.71403003 4.84791065 -14 1.625 C-9.42027646 -0.85568359 -5.0938875 -0.7518087 0 0 Z " fill="#4FDF88" transform="translate(207,171)"/>
<path d="M0 0 C3.70841049 3.43371342 4.78305034 8.50825808 5.20825195 13.3918457 C5.30419684 16.05577204 5.32201989 18.70942991 5.3125 21.375 C5.32861328 22.26960938 5.34472656 23.16421875 5.36132812 24.0859375 C5.36572003 30.1291926 4.58879956 35.48554865 2 41 C0 43 0 43 -2.4375 43.3125 C-5 43 -5 43 -6.6875 42 C-10.728046 35.84297753 -10.30754716 28.01100554 -10.25 20.9375 C-10.25773438 19.98294922 -10.26546875 19.02839844 -10.2734375 18.04492188 C-10.25684574 12.03455563 -10.17156896 6.20564941 -6.6875 1.0625 C-4.2681121 -0.46081831 -2.79933738 -0.48988404 0 0 Z " fill="#2C415B" transform="translate(141,98)"/>
<path d="M0 0 C4.63641868 0.77273645 8.69128129 2.23854308 12.75 4.625 C14.19430855 7.51361709 14.12688506 9.42147701 13.75 12.625 C11.02737298 15.84916358 8.85229326 18.39802675 4.54296875 18.86328125 C0.35112553 18.98268908 -2.54620661 18.96282083 -6.375 17.125 C-8.51126386 14.27664819 -8.97718047 12.22471266 -8.73046875 8.6640625 C-7.58567284 3.80566034 -5.02705962 0.96674223 0 0 Z " fill="#2C425B" transform="translate(137.25,185.375)"/>
</svg>
