<?xml version="1.0" encoding="UTF-8"?>
<svg version="1.1" xmlns="http://www.w3.org/2000/svg" width="225" height="225">
<path d="M0 0 C74.25 0 148.5 0 225 0 C225 74.25 225 148.5 225 225 C150.75 225 76.5 225 0 225 C0 150.75 0 76.5 0 0 Z " fill="#808080" transform="translate(0,0)"/>
<path d="M0 0 C58.41 0 116.82 0 177 0 C176.67 0.99 176.34 1.98 176 3 C176.30791692 4.671549 176.64386903 6.33805547 177 8 C177.02199222 9.66652156 177.02508077 11.33352206 177 13 C169.81950058 13.65383409 162.72006918 14.0426806 155.5078125 13.9609375 C153.8215979 13.94256836 153.8215979 13.94256836 152.10131836 13.92382812 C149.83628037 13.8914311 147.57138925 13.84598289 145.30688477 13.78710938 C144.26072998 13.77228516 143.2145752 13.75746094 142.13671875 13.7421875 C140.72459106 13.70907471 140.72459106 13.70907471 139.28393555 13.67529297 C138.15338745 13.83602295 138.15338745 13.83602295 137 14 C136.34 14.99 135.68 15.98 135 17 C135.33 16.67 135.66 16.34 136 16 C138.19509737 15.91212051 140.39300761 15.89305752 142.58984375 15.90234375 C143.2495668 15.9037587 143.90928986 15.90517365 144.58900452 15.90663147 C146.70521511 15.91224443 148.82132126 15.92479094 150.9375 15.9375 C152.36132659 15.94251404 153.78515484 15.94707712 155.20898438 15.95117188 C158.80602038 15.96246101 162.40299741 15.98074885 166 16 C166.66 16 167.32 16 168 16 C171 16 174 16 177 16 C177 15.34 177 14.68 177 14 C192.84 14 208.68 14 225 14 C225 38.42 225 62.84 225 88 C150.75 88 76.5 88 0 88 C0 58.96 0 29.92 0 0 Z M166 14 C168 15 168 15 168 15 Z " fill="#7F7F7F" transform="translate(0,137)"/>
<path d="M0 0 C74.25 0 148.5 0 225 0 C225 34.32 225 68.64 225 104 C191.34 104 157.68 104 123 104 C123 103.67 123 103.34 123 103 C124.65 103 126.3 103 128 103 C128 102.01 128 101.02 128 100 C126.02 100 124.04 100 122 100 C122.020625 98.948125 122.04125 97.89625 122.0625 96.8125 C122.1395912 93.25481895 122.1395912 93.25481895 121.5 90.875 C120.76470738 86.64706745 120.89599017 82.46939879 120.9375 78.1875 C120.94201172 77.30384766 120.94652344 76.42019531 120.95117188 75.50976562 C120.96290134 73.33981441 120.98083505 71.16989828 121 69 C124.96 69 128.92 69 133 69 C133 68.34 133 67.68 133 67 C134.65 67 136.3 67 138 67 C138.2165625 68.5778125 138.2165625 68.5778125 138.4375 70.1875 C139.21839377 75.48022441 140.36410176 80.6571608 141.53125 85.875 C142.05379765 88.24388269 142.52426197 90.62130987 143 93 C143.65749715 96.00206063 144.32710198 99.00135735 145 102 C145.33 101.67 145.66 101.34 146 101 C146.99 100.34 147.98 99.68 149 99 C149.29573679 97.06128106 149.57911353 95.11808629 149.74609375 93.1640625 C150 91 150 91 151.125 87.1875 C152.31372887 84.0143878 152.31372887 84.0143878 151 81 C148.99983534 79.79117904 148.99983534 79.79117904 147 79 C148.32 79 149.64 79 151 79 C151 78.34 151 77.68 151 77 C151.99 76.34 152.98 75.68 154 75 C154 74.34 154 73.68 154 73 C155.65 73 157.3 73 159 73 C158.55296014 68.52116304 158.55296014 68.52116304 156 65 C156.66 62.69 157.32 60.38 158 58 C154.68455701 56.89485234 151.79589889 56.67892369 148.3125 56.4375 C147.13300781 56.35371094 145.95351562 56.26992188 144.73828125 56.18359375 C143.38283203 56.09271484 143.38283203 56.09271484 142 56 C141.855625 54.88625 141.71125 53.7725 141.5625 52.625 C141.21627965 49.17857953 141.21627965 49.17857953 140 47 C145.61 47 151.22 47 157 47 C157 45.02 157 43.04 157 41 C157.66 39.68 158.32 38.36 159 37 C106.53 36.67 54.06 36.34 0 36 C0 24.12 0 12.24 0 0 Z M142 57 C146.29 57 150.58 57 155 57 C154.67 57.66 154.34 58.32 154 59 C150.04 58.67 146.08 58.34 142 58 C142 57.67 142 57.34 142 57 Z M147 81 C150 82 150 82 150 82 Z " fill="#878787" transform="translate(0,0)"/>
<path d="M0 0 C37.29 0 74.58 0 113 0 C112.67 0.99 112.34 1.98 112 3 C112.72148727 3.60181595 112.72148727 3.60181595 113.45755005 4.21578979 C115.36737508 6.42495665 115.47443162 7.66054302 115.67919922 10.54736328 C115.74347107 11.43731995 115.80774292 12.32727661 115.8739624 13.24420166 C116.07224542 17.57963831 116.14283583 21.90248465 116.1328125 26.2421875 C116.13376923 27.17298126 116.13472595 28.10377502 116.13571167 29.06277466 C116.1363867 31.01060047 116.13458015 32.95842862 116.13037109 34.90625 C116.12497635 37.88807166 116.1303578 40.86974522 116.13671875 43.8515625 C116.13605856 45.7526045 116.13477863 47.6536464 116.1328125 49.5546875 C116.13483673 50.44324432 116.13686096 51.33180115 116.13894653 52.24728394 C116.13421829 53.48975388 116.13421829 53.48975388 116.12939453 54.75732422 C116.12859894 55.4821701 116.12780334 56.20701599 116.12698364 56.9538269 C115.86924505 61.10694278 115.0767896 63.19075732 112 66 C112 66.33 112 66.66 112 67 C75.04 67 38.08 67 0 67 C0 44.89 0 22.78 0 0 Z " fill="#838383" transform="translate(0,37)"/>
<path d="M0 0 C74.25 0 148.5 0 225 0 C225 22.77 225 45.54 225 69 C191.34 69 157.68 69 123 69 C123 68.67 123 68.34 123 68 C124.65 68 126.3 68 128 68 C128 67.01 128 66.02 128 65 C126.02 65 124.04 65 122 65 C122.020625 63.948125 122.04125 62.89625 122.0625 61.8125 C122.1395912 58.25481895 122.1395912 58.25481895 121.5 55.875 C120.76470738 51.64706745 120.89599017 47.46939879 120.9375 43.1875 C120.94201172 42.30384766 120.94652344 41.42019531 120.95117188 40.50976562 C120.96290134 38.33981441 120.98083505 36.16989828 121 34 C124.96 34 128.92 34 133 34 C133 33.34 133 32.68 133 32 C134.65 32 136.3 32 138 32 C138.144375 33.051875 138.28875 34.10375 138.4375 35.1875 C139.21839377 40.48022441 140.36410176 45.6571608 141.53125 50.875 C142.05379765 53.24388269 142.52426197 55.62130987 143 58 C143.65749715 61.00206063 144.32710198 64.00135735 145 67 C145.33 66.67 145.66 66.34 146 66 C146.99 65.34 147.98 64.68 149 64 C149.29573679 62.06128106 149.57911353 60.11808629 149.74609375 58.1640625 C150 56 150 56 151.125 52.1875 C152.31372887 49.0143878 152.31372887 49.0143878 151 46 C148.99983534 44.79117904 148.99983534 44.79117904 147 44 C148.32 44 149.64 44 151 44 C151 43.34 151 42.68 151 42 C151.99 41.34 152.98 40.68 154 40 C154 39.34 154 38.68 154 38 C155.65 38 157.3 38 159 38 C158.55296014 33.52116304 158.55296014 33.52116304 156 30 C156.66 27.69 157.32 25.38 158 23 C154.68455701 21.89485234 151.79589889 21.67892369 148.3125 21.4375 C147.13300781 21.35371094 145.95351562 21.26992188 144.73828125 21.18359375 C143.38283203 21.09271484 143.38283203 21.09271484 142 21 C141.7834375 19.329375 141.7834375 19.329375 141.5625 17.625 C141.21627965 14.17857953 141.21627965 14.17857953 140 12 C145.61 12 151.22 12 157 12 C157 10.02 157 8.04 157 6 C157.66 4.68 158.32 3.36 159 2 C106.53 1.67 54.06 1.34 0 1 C0 0.67 0 0.34 0 0 Z M142 22 C146.29 22 150.58 22 155 22 C154.67 22.66 154.34 23.32 154 24 C150.04 23.67 146.08 23.34 142 23 C142 22.67 142 22.34 142 22 Z M147 46 C150 47 150 47 150 47 Z " fill="#5E5E5E" transform="translate(0,35)"/>
<path d="M0 0 C74.25 0 148.5 0 225 0 C225 5.28 225 10.56 225 16 C191.01 16 157.02 16 122 16 C122 15.67 122 15.34 122 15 C114.74 15 107.48 15 100 15 C100 14.34 100 13.68 100 13 C96.54168414 12.97105453 93.08339928 12.95322 89.625 12.9375 C88.64015625 12.92912109 87.6553125 12.92074219 86.640625 12.91210938 C85.69960937 12.90888672 84.75859375 12.90566406 83.7890625 12.90234375 C82.91975098 12.89710693 82.05043945 12.89187012 81.15478516 12.88647461 C78.94950006 12.85877649 78.94950006 12.85877649 77 14 C73.36613567 14.31713725 69.73152308 14.51171036 66.08984375 14.71875 C63.13091514 14.65571925 63.13091514 14.65571925 62 16 C60.48834346 16.39148761 58.96530368 16.73972457 57.4375 17.0625 C56.61121094 17.23910156 55.78492188 17.41570313 54.93359375 17.59765625 C53.97646484 17.79681641 53.97646484 17.79681641 53 18 C53 18.66 53 19.32 53 20 C35.51 20 18.02 20 0 20 C0 13.4 0 6.8 0 0 Z M98 15 C100 16 100 16 100 16 Z " fill="#8B8B8B" transform="translate(0,0)"/>
<path d="M0 0 C0.99 0.495 0.99 0.495 2 1 C1.01 1.495 1.01 1.495 0 2 C0 1.34 0 0.68 0 0 Z M25 -20 C29.29 -20 33.58 -20 38 -20 C37.67 -19.01 37.34 -18.02 37 -17 C37.72148727 -16.39818405 37.72148727 -16.39818405 38.45755005 -15.78421021 C40.36737508 -13.57504335 40.47443162 -12.33945698 40.67919922 -9.45263672 C40.74347107 -8.56268005 40.80774292 -7.67272339 40.8739624 -6.75579834 C41.07224542 -2.42036169 41.14283583 1.90248465 41.1328125 6.2421875 C41.13376923 7.17298126 41.13472595 8.10377502 41.13571167 9.06277466 C41.1363867 11.01060047 41.13458015 12.95842862 41.13037109 14.90625 C41.12497635 17.88807166 41.1303578 20.86974522 41.13671875 23.8515625 C41.13605856 25.7526045 41.13477863 27.6536464 41.1328125 29.5546875 C41.13483673 30.44324432 41.13686096 31.33180115 41.13894653 32.24728394 C41.13421829 33.48975388 41.13421829 33.48975388 41.12939453 34.75732422 C41.12859894 35.4821701 41.12780334 36.20701599 41.12698364 36.9538269 C40.86924505 41.10694278 40.0767896 43.19075732 37 46 C37 46.33 37 46.66 37 47 C0.04 47 -36.92 47 -75 47 C-75 33.47 -75 19.94 -75 6 C-62.46 6 -49.92 6 -37 6 C-37 5.34 -37 4.68 -37 4 C-34.69 4 -32.38 4 -30 4 C-29.731875 5.03125 -29.46375 6.0625 -29.1875 7.125 C-28.18561539 10.65646562 -26.67052662 13.72855204 -25 17 C-24.30899447 18.99172182 -23.64097297 20.99161804 -23 23 C-21.6341442 26.54767741 -20.10329887 29.99138504 -18.5 33.4375 C-16.75875553 37.23844663 -15.19373656 40.9847043 -14 45 C-13.67 44.67 -13.34 44.34 -13 44 C-12.34 43.34 -11.68 42.68 -11 42 C-10.75622117 38.64255888 -10.75622117 38.64255888 -10.875 34.875 C-10.89304687 33.59367187 -10.91109375 32.31234375 -10.9296875 30.9921875 C-10.95289062 30.00476563 -10.97609375 29.01734375 -11 28 C-11.99 27.67 -12.98 27.34 -14 27 C-14 26.01 -14 25.02 -14 24 C-14.45375 23.566875 -14.9075 23.13375 -15.375 22.6875 C-17.60483558 20.37190152 -18.03419232 18.06785968 -19 15 C-19.65084379 13.49306708 -20.3186693 11.99339644 -21 10.5 C-22.56319932 7.05398811 -23.85520202 3.61051669 -25 0 C-25.495 -0.99 -25.495 -0.99 -26 -2 C-22.04 -2.33 -18.08 -2.66 -14 -3 C-13.67 -5.31 -13.34 -7.62 -13 -10 C-9.37 -10 -5.74 -10 -2 -10 C-2 -6.37 -2 -2.74 -2 1 C-1.34 1.33 -0.68 1.66 0 2 C-1 4 -1 4 -2.125 5.6875 C-3.36963891 8.97690284 -2.51100592 11.53651543 -2 15 C-2.21891054 17.38456126 -2.54713817 19.72048738 -2.94140625 22.08203125 C-2.97041016 23.03142578 -2.97041016 23.03142578 -3 24 C-2.34 24.66 -1.68 25.32 -1 26 C-1 25.34 -1 24.68 -1 24 C1.64 24 4.28 24 7 24 C7.12375 25.010625 7.2475 26.02125 7.375 27.0625 C7.91256429 30.96027485 7.91256429 30.96027485 9 34.5 C10.0002376 38.00083159 10.55802565 41.39054277 11 45 C12.32 44.67 13.64 44.34 15 44 C15.144375 42.783125 15.28875 41.56625 15.4375 40.3125 C15.73342603 37.88504877 16.09358799 35.57885406 16.625 33.1875 C17.20602493 30.83145101 17.20602493 30.83145101 16 28 C16.495 27.566875 16.99 27.13375 17.5 26.6875 C19.33218192 25.00259517 19.33218192 25.00259517 19 22 C20.98 21.67 22.96 21.34 25 21 C25 19.02 25 17.04 25 15 C23.02 14.505 23.02 14.505 21 14 C21.75 8.25 21.75 8.25 24 6 C23.67751743 4.66400079 23.34227417 3.33106622 23 2 C23.4375 -0.75 23.4375 -0.75 24 -3 C23.34 -3.33 22.68 -3.66 22 -4 C22.11583111 -5.54238266 22.24316572 -7.08390272 22.375 -8.625 C22.44460937 -9.48351563 22.51421875 -10.34203125 22.5859375 -11.2265625 C23 -14 23 -14 25 -20 Z " fill="#6D6D6D" transform="translate(75,57)"/>
<path d="M0 0 C58.41 0 116.82 0 177 0 C176.67 0.99 176.34 1.98 176 3 C176.30791692 4.671549 176.64386903 6.33805547 177 8 C177.02199222 9.66652156 177.02508077 11.33352206 177 13 C169.81950058 13.65383409 162.72006918 14.0426806 155.5078125 13.9609375 C153.8215979 13.94256836 153.8215979 13.94256836 152.10131836 13.92382812 C149.83628037 13.8914311 147.57138925 13.84598289 145.30688477 13.78710938 C144.26072998 13.77228516 143.2145752 13.75746094 142.13671875 13.7421875 C140.72459106 13.70907471 140.72459106 13.70907471 139.28393555 13.67529297 C138.15338745 13.83602295 138.15338745 13.83602295 137 14 C136.34 14.99 135.68 15.98 135 17 C126.94969231 18.58585009 118.19158038 18.05716571 110.0078125 18.05078125 C108.9670607 18.05029785 107.9263089 18.04981445 106.85401917 18.04931641 C87.65043452 18.01072577 68.44724373 17.74900241 49.24499512 17.53643799 C43.67961681 17.47512537 38.11422177 17.4153701 32.54882812 17.35546875 C21.69920207 17.23847024 10.84959715 17.11964947 0 17 C0 11.39 0 5.78 0 0 Z M166 14 C168 15 168 15 168 15 Z " fill="#8B8B8B" transform="translate(0,137)"/>
<path d="M0 0 C13.86 0 27.72 0 42 0 C41.01 5.28 40.02 10.56 39 16 C39.99 16.33 40.98 16.66 42 17 C41.98839844 18.18335937 41.97679687 19.36671875 41.96484375 20.5859375 C41.81673422 30.40470978 41.81673422 30.40470978 42.5 40.1875 C43.00140787 44.41259868 43.18085946 48.62336526 43.25 52.875 C43.27578125 54.13054687 43.3015625 55.38609375 43.328125 56.6796875 C42.97788292 60.2238038 42.30035649 61.39696503 40 64 C40 64.66 40 65.32 40 66 C33.73 66 27.46 66 21 66 C21 65.01 21 64.02 21 63 C20.01 62.34 19.02 61.68 18 61 C16.91188422 57.39989122 16.89243515 53.92788257 16.9375 50.1875 C16.94652344 49.21167969 16.95554687 48.23585937 16.96484375 47.23046875 C16.97644531 46.49441406 16.98804687 45.75835937 17 45 C16.67 45.33 16.34 45.66 16 46 C12.7 46 9.4 46 6 46 C6 38.41 6 30.82 6 23 C9.3 23 12.6 23 16 23 C16.33 22.67 16.66 22.34 17 22 C13.37 22 9.74 22 6 22 C6.09765625 19.23307292 6.1953125 16.46614583 6.29296875 13.69921875 C5.95370576 10.57347578 5.31240476 9.98206123 3 8 C2.3125 5.3125 2.3125 5.3125 2 3 C1.01 2.67 0.02 2.34 -1 2 C-0.67 1.34 -0.34 0.68 0 0 Z M38 16 C39 18 39 18 39 18 Z M17 20 C17.33 20.66 17.66 21.32 18 22 C18.33 21.34 18.66 20.68 19 20 C18.34 20 17.68 20 17 20 Z " fill="#646464" transform="translate(58,37)"/>
<path d="M0 0 C6.27 0 12.54 0 19 0 C19 0.66 19 1.32 19 2 C18.34 2 17.68 2 17 2 C13.72419928 13.7928826 13.03058407 23.00804101 19 34 C19.9749489 35.02443869 20.97291499 36.02783932 22 37 C23 38.66666667 24 40.33333333 25 42 C25.556875 42.474375 26.11375 42.94875 26.6875 43.4375 C28.68755343 45.81851599 28.1233093 47.97892224 28 51 C28.495 52.98 28.495 52.98 29 55 C24.38 55.33 19.76 55.66 15 56 C14.24572703 60.97906259 14.24572703 60.97906259 14 66 C8.56731506 67.13606798 3.30933397 67.12824385 -2.2109375 67.09765625 C-3.17907379 67.0962413 -4.14721008 67.09482635 -5.14468384 67.09336853 C-8.22148799 67.08779365 -11.29821803 67.07524577 -14.375 67.0625 C-16.46744686 67.05748175 -18.55989487 67.05291941 -20.65234375 67.04882812 C-25.7682575 67.03783245 -30.88411621 67.02058515 -36 67 C-36 66.67 -36 66.34 -36 66 C-34.35 66 -32.7 66 -31 66 C-31 65.01 -31 64.02 -31 63 C-32.98 63 -34.96 63 -37 63 C-36.979375 61.948125 -36.95875 60.89625 -36.9375 59.8125 C-36.8604088 56.25481895 -36.8604088 56.25481895 -37.5 53.875 C-38.23529262 49.64706745 -38.10400983 45.46939879 -38.0625 41.1875 C-38.05798828 40.30384766 -38.05347656 39.42019531 -38.04882812 38.50976562 C-38.03709866 36.33981441 -38.01916495 34.16989828 -38 32 C-34.04 32 -30.08 32 -26 32 C-26 31.34 -26 30.68 -26 30 C-24.35 30 -22.7 30 -21 30 C-20.855625 31.051875 -20.71125 32.10375 -20.5625 33.1875 C-19.78160623 38.48022441 -18.63589824 43.6571608 -17.46875 48.875 C-16.94620235 51.24388269 -16.47573803 53.62130987 -16 56 C-15.34250285 59.00206063 -14.67289802 62.00135735 -14 65 C-13.67 64.67 -13.34 64.34 -13 64 C-12.01 63.34 -11.02 62.68 -10 62 C-9.70426321 60.06128106 -9.42088647 58.11808629 -9.25390625 56.1640625 C-9 54 -9 54 -7.875 50.1875 C-6.68627113 47.0143878 -6.68627113 47.0143878 -8 44 C-10.00016466 42.79117904 -10.00016466 42.79117904 -12 42 C-10.68 42 -9.36 42 -8 42 C-8 41.34 -8 40.68 -8 40 C-7.01 39.34 -6.02 38.68 -5 38 C-5 37.34 -5 36.68 -5 36 C-3.35 36 -1.7 36 0 36 C-0.44703986 31.52116304 -0.44703986 31.52116304 -3 28 C-2.34 25.69 -1.68 23.38 -1 21 C-4.31544299 19.89485234 -7.20410111 19.67892369 -10.6875 19.4375 C-11.86699219 19.35371094 -13.04648438 19.26992188 -14.26171875 19.18359375 C-15.61716797 19.09271484 -15.61716797 19.09271484 -17 19 C-17.144375 17.88625 -17.28875 16.7725 -17.4375 15.625 C-17.78372035 12.17857953 -17.78372035 12.17857953 -19 10 C-13.39 10 -7.78 10 -2 10 C-2 8.02 -2 6.04 -2 4 C-1.34 2.68 -0.68 1.36 0 0 Z M-17 20 C-12.71 20 -8.42 20 -4 20 C-4.33 20.66 -4.66 21.32 -5 22 C-8.96 21.67 -12.92 21.34 -17 21 C-17 20.67 -17 20.34 -17 20 Z M-12 44 C-9 45 -9 45 -9 45 Z " fill="#595959" transform="translate(159,37)"/>
<path d="M0 0 C4.29 0 8.58 0 13 0 C12.67 0.99 12.34 1.98 12 3 C12.72148727 3.60181595 12.72148727 3.60181595 13.45755005 4.21578979 C15.36737508 6.42495665 15.47443162 7.66054302 15.67919922 10.54736328 C15.74347107 11.43731995 15.80774292 12.32727661 15.8739624 13.24420166 C16.07224542 17.57963831 16.14283583 21.90248465 16.1328125 26.2421875 C16.13376923 27.17298126 16.13472595 28.10377502 16.13571167 29.06277466 C16.1363867 31.01060047 16.13458015 32.95842862 16.13037109 34.90625 C16.12497635 37.88807166 16.1303578 40.86974522 16.13671875 43.8515625 C16.13605856 45.7526045 16.13477863 47.6536464 16.1328125 49.5546875 C16.13483673 50.44324432 16.13686096 51.33180115 16.13894653 52.24728394 C16.13421829 53.48975388 16.13421829 53.48975388 16.12939453 54.75732422 C16.12859894 55.4821701 16.12780334 56.20701599 16.12698364 56.9538269 C15.86924505 61.10694278 15.0767896 63.19075732 12 66 C12 66.33 12 66.66 12 67 C-12.75 67 -37.5 67 -63 67 C-63.33 66.34 -63.66 65.68 -64 65 C-58.69047687 63.8963839 -53.57985681 63.88443366 -48.1875 63.9375 C-47.31673828 63.94201172 -46.44597656 63.94652344 -45.54882812 63.95117188 C-43.36582099 63.96308228 -41.18294764 63.9803447 -39 64 C-38.67 64 -38.34 64 -38 64 C-35.64358476 62.08593338 -35.64358476 62.08593338 -35.8046875 58.7421875 C-35.82789062 57.46601562 -35.85109375 56.18984375 -35.875 54.875 C-35.89304687 53.59367187 -35.91109375 52.31234375 -35.9296875 50.9921875 C-35.95289062 50.00476563 -35.97609375 49.01734375 -36 48 C-37.485 47.505 -37.485 47.505 -39 47 C-39 46.01 -39 45.02 -39 44 C-39.45375 43.566875 -39.9075 43.13375 -40.375 42.6875 C-42.60483558 40.37190152 -43.03419232 38.06785968 -44 35 C-44.65084379 33.49306708 -45.3186693 31.99339644 -46 30.5 C-47.56319932 27.05398811 -48.85520202 23.61051669 -50 20 C-50.33 19.34 -50.66 18.68 -51 18 C-47.04 17.67 -43.08 17.34 -39 17 C-38.67 14.69 -38.34 12.38 -38 10 C-34.37 10 -30.74 10 -27 10 C-27 13.63 -27 17.26 -27 21 C-26.34 21.33 -25.68 21.66 -25 22 C-26 24 -26 24 -27.125 25.6875 C-28.36963891 28.97690284 -27.51100592 31.53651543 -27 35 C-27.21891054 37.38456126 -27.54713817 39.72048738 -27.94140625 42.08203125 C-27.96074219 42.71496094 -27.98007813 43.34789062 -28 44 C-27.34 44.66 -26.68 45.32 -26 46 C-26 45.34 -26 44.68 -26 44 C-23.36 44 -20.72 44 -18 44 C-17.87625 45.010625 -17.7525 46.02125 -17.625 47.0625 C-17.08743571 50.96027485 -17.08743571 50.96027485 -16 54.5 C-14.9997624 58.00083159 -14.44197435 61.39054277 -14 65 C-12.02 64.505 -12.02 64.505 -10 64 C-9.855625 62.783125 -9.71125 61.56625 -9.5625 60.3125 C-9.26657397 57.88504877 -8.90641201 55.57885406 -8.375 53.1875 C-7.79397507 50.83145101 -7.79397507 50.83145101 -9 48 C-8.505 47.566875 -8.01 47.13375 -7.5 46.6875 C-5.66781808 45.00259517 -5.66781808 45.00259517 -6 42 C-3.03 41.505 -3.03 41.505 0 41 C0 39.02 0 37.04 0 35 C-1.32 34.67 -2.64 34.34 -4 34 C-3.25 28.25 -3.25 28.25 -1 26 C-1.32248257 24.66400079 -1.65772583 23.33106622 -2 22 C-1.5625 19.25 -1.5625 19.25 -1 17 C-1.66 16.67 -2.32 16.34 -3 16 C-2.88416889 14.45761734 -2.75683428 12.91609728 -2.625 11.375 C-2.55539063 10.51648437 -2.48578125 9.65796875 -2.4140625 8.7734375 C-2 6 -2 6 0 0 Z M-25 20 C-24.01 20.495 -24.01 20.495 -23 21 C-23.99 21.495 -23.99 21.495 -25 22 C-25 21.34 -25 20.68 -25 20 Z " fill="#020202" transform="translate(100,37)"/>
<path d="M0 0 C1.79244141 0.01740234 1.79244141 0.01740234 3.62109375 0.03515625 C5.41740234 0.04869141 5.41740234 0.04869141 7.25 0.0625 C8.17683594 0.07410156 9.10367188 0.08570313 10.05859375 0.09765625 C10.05859375 0.42765625 10.05859375 0.75765625 10.05859375 1.09765625 C7.74859375 1.09765625 5.43859375 1.09765625 3.05859375 1.09765625 C3.05859375 1.75765625 3.05859375 2.41765625 3.05859375 3.09765625 C1.07859375 3.09765625 -0.90140625 3.09765625 -2.94140625 3.09765625 C-2.94140625 3.75765625 -2.94140625 4.41765625 -2.94140625 5.09765625 C-0.94185879 5.14019981 1.05901011 5.13846408 3.05859375 5.09765625 C3.38859375 4.76765625 3.71859375 4.43765625 4.05859375 4.09765625 C6.05817739 4.05684842 8.05904629 4.05511269 10.05859375 4.09765625 C10.18234375 4.71640625 10.30609375 5.33515625 10.43359375 5.97265625 C10.93056731 8.28886457 10.93056731 8.28886457 13.05859375 10.09765625 C12.05957031 10.15824219 11.06054688 10.21882812 10.03125 10.28125 C8.74089844 10.36503906 7.45054688 10.44882813 6.12109375 10.53515625 C4.83332031 10.61636719 3.54554687 10.69757812 2.21875 10.78125 C-0.80164582 10.74684813 -0.80164582 10.74684813 -1.94140625 12.09765625 C-3.45306279 12.48914386 -4.97610257 12.83738082 -6.50390625 13.16015625 C-7.33019531 13.33675781 -8.15648437 13.51335938 -9.0078125 13.6953125 C-9.64589844 13.82808594 -10.28398438 13.96085937 -10.94140625 14.09765625 C-10.94140625 14.75765625 -10.94140625 15.41765625 -10.94140625 16.09765625 C-28.43140625 16.09765625 -45.92140625 16.09765625 -63.94140625 16.09765625 C-63.94140625 12.13765625 -63.94140625 8.17765625 -63.94140625 4.09765625 C-62.44975952 4.06007202 -62.44975952 4.06007202 -60.92797852 4.02172852 C-57.25091878 3.92780743 -53.57405475 3.82755006 -49.8972168 3.7253418 C-48.30351325 3.68193479 -46.70976145 3.64026406 -45.1159668 3.6003418 C-42.82976717 3.54277818 -40.54381176 3.47904476 -38.2578125 3.4140625 C-37.18280235 3.38899376 -37.18280235 3.38899376 -36.08607483 3.36341858 C-32.72613243 3.54746971 -32.72613243 3.54746971 -29.94140625 2.09765625 C-27.45444138 2.04977245 -24.98960202 2.05535488 -22.50390625 2.09765625 C-13.18399414 2.18760207 -13.18399414 2.18760207 -3.94140625 1.09765625 C-2.94140625 0.09765625 -2.94140625 0.09765625 0 0 Z M45.05859375 5.09765625 C49.67859375 5.09765625 54.29859375 5.09765625 59.05859375 5.09765625 C59.05859375 5.42765625 59.05859375 5.75765625 59.05859375 6.09765625 C92.71859375 6.42765625 126.37859375 6.75765625 161.05859375 7.09765625 C161.05859375 8.74765625 161.05859375 10.39765625 161.05859375 12.09765625 C127.06859375 12.09765625 93.07859375 12.09765625 58.05859375 12.09765625 C58.05859375 11.76765625 58.05859375 11.43765625 58.05859375 11.09765625 C50.79859375 11.09765625 43.53859375 11.09765625 36.05859375 11.09765625 C36.05859375 10.43765625 36.05859375 9.77765625 36.05859375 9.09765625 C28.46859375 9.09765625 20.87859375 9.09765625 13.05859375 9.09765625 C12.72859375 8.43765625 12.39859375 7.77765625 12.05859375 7.09765625 C22.94859375 7.09765625 33.83859375 7.09765625 45.05859375 7.09765625 C45.05859375 6.43765625 45.05859375 5.77765625 45.05859375 5.09765625 Z M34.05859375 11.09765625 C36.05859375 12.09765625 36.05859375 12.09765625 36.05859375 12.09765625 Z " fill="#939393" transform="translate(63.94140625,3.90234375)"/>
<path d="M0 0 C9.57 0 19.14 0 29 0 C27.81915697 5.90421517 26.66220706 11.30100436 25 17 C25 17.66 25 18.32 25 19 C26.32 19.66 27.64 20.32 29 21 C29 27.27 29 33.54 29 40 C26.36 40 23.72 40 21 40 C21 40.99 21 41.98 21 43 C23.64 43 26.28 43 29 43 C29.70780262 47.06986509 30.12757798 51.05575671 30.25 55.1875 C30.27578125 56.00605469 30.3015625 56.82460937 30.328125 57.66796875 C29.90831353 60.65162881 29.20605926 61.94382162 27 64 C24.30078125 64.390625 24.30078125 64.390625 21.3125 64.25 C20.31863281 64.21390625 19.32476562 64.1778125 18.30078125 64.140625 C17.54152344 64.09421875 16.78226563 64.0478125 16 64 C16 64.66 16 65.32 16 66 C13.36 66 10.72 66 8 66 C7.67 65.01 7.34 64.02 7 63 C6.484375 62.54625 5.96875 62.0925 5.4375 61.625 C4 60 4 60 3.8125 57.5 C3.874375 56.675 3.93625 55.85 4 55 C4 54.01 4 53.02 4 52 C4 45 4 38 4 31 C5.32 30.34 6.64 29.68 8 29 C7.67 28.01 7.34 27.02 7 26 C1.72 25.67 -3.56 25.34 -9 25 C-9 24.67 -9 24.34 -9 24 C-5.37 23.67 -1.74 23.34 2 23 C2 22.01 2 21.02 2 20 C-1.63 19.67 -5.26 19.34 -9 19 C-9 17.35 -9 15.7 -9 14 C-5.04 14 -1.08 14 3 14 C2.67 11.69 2.34 9.38 2 7 C-1.3 6.67 -4.6 6.34 -8 6 C-8 5.01 -8 4.02 -8 3 C-6.865625 2.87625 -5.73125 2.7525 -4.5625 2.625 C-3.386875 2.41875 -2.21125 2.2125 -1 2 C-0.67 1.34 -0.34 0.68 0 0 Z M12 20 C12 20.33 12 20.66 12 21 C16.29 21.33 20.58 21.66 25 22 C25 21.34 25 20.68 25 20 C20.71 20 16.42 20 12 20 Z M-9 26 C-5.04 26 -1.08 26 3 26 C3 26.33 3 26.66 3 27 C-0.96 27 -4.92 27 -9 27 C-9 26.67 -9 26.34 -9 26 Z " fill="#696969" transform="translate(130,37)"/>
<path d="M0 0 C74.25 0 148.5 0 225 0 C225 4.95 225 9.9 225 15 C209.16 15 193.32 15 177 15 C176.67 16.32 176.34 17.64 176 19 C168.41 19 160.82 19 153 19 C153 18.67 153 18.34 153 18 C150.69 18 148.38 18 146 18 C146 18.33 146 18.66 146 19 C137.42 19 128.84 19 120 19 C119.505 17.515 119.505 17.515 119 16 C120.82337891 15.90912109 120.82337891 15.90912109 122.68359375 15.81640625 C124.26824228 15.73201668 125.85287702 15.6473679 127.4375 15.5625 C128.23994141 15.52318359 129.04238281 15.48386719 129.86914062 15.44335938 C133.75239561 15.5945704 133.75239561 15.5945704 137 14 C139.3756852 13.9116033 141.72208674 13.88469695 144.09765625 13.90234375 C145.16094398 13.90446617 145.16094398 13.90446617 146.24571228 13.90663147 C148.51801712 13.91224557 150.79022475 13.92480037 153.0625 13.9375 C154.59960796 13.94251319 156.13671745 13.94707641 157.67382812 13.95117188 C161.44925642 13.96221958 165.22461171 13.97949359 169 14 C169 10.04 169 6.08 169 2 C113.23 1.67 57.46 1.34 0 1 C0 0.67 0 0.34 0 0 Z " fill="#979797" transform="translate(0,136)"/>
<path d="M0 0 C5.28 0 10.56 0 16 0 C16.495 2.475 16.495 2.475 17 5 C17.9072554 7.10070066 17.9072554 7.10070066 19 9.0625 C20.49924297 11.84602096 21.2075343 13.83013721 22 17 C16.06 17 10.12 17 4 17 C4 17.66 4 18.32 4 19 C2.35 19.33 0.7 19.66 -1 20 C-1 20.33 -1 20.66 -1 21 C-13.21 21 -25.42 21 -38 21 C-38 14.73 -38 8.46 -38 2 C-25.46 2 -12.92 2 0 2 C0 1.34 0 0.68 0 0 Z " fill="#5A5A5A" transform="translate(38,83)"/>
<path d="M0 0 C0.88061096 0.00015106 1.76122192 0.00030212 2.66851807 0.00045776 C4.08121979 0.01594162 4.08121979 0.01594162 5.52246094 0.03173828 C6.49342712 0.03456818 7.46439331 0.03739807 8.46478271 0.04031372 C11.56225979 0.05149786 14.65944644 0.07659936 17.75683594 0.10205078 C19.85839426 0.11208286 21.95995712 0.12120831 24.06152344 0.12939453 C29.21007263 0.15143145 34.35840506 0.18594933 39.50683594 0.22705078 C39.50683594 0.88705078 39.50683594 1.54705078 39.50683594 2.22705078 C41.15683594 2.22705078 42.80683594 2.22705078 44.50683594 2.22705078 C44.50683594 2.55705078 44.50683594 2.88705078 44.50683594 3.22705078 C37.24683594 3.55705078 29.98683594 3.88705078 22.50683594 4.22705078 C61.77683594 4.22705078 101.04683594 4.22705078 141.50683594 4.22705078 C141.50683594 5.87705078 141.50683594 7.52705078 141.50683594 9.22705078 C102.84016927 9.22705078 64.1735026 9.22705078 25.50683594 9.22705078 C23.14088677 9.29823562 20.77502569 9.37131889 18.40917969 9.44580078 C17.34589195 9.47909485 17.34589195 9.47909485 16.26112366 9.51306152 C13.98885648 9.58424531 11.71659617 9.65564579 9.44433594 9.72705078 C7.90722701 9.7752421 6.37011764 9.82341937 4.83300781 9.87158203 C1.05761205 9.98990839 -2.71777757 10.10842913 -6.49316406 10.22705078 C-6.49316406 10.55705078 -6.49316406 10.88705078 -6.49316406 11.22705078 C-9.46316406 11.22705078 -12.43316406 11.22705078 -15.49316406 11.22705078 C-15.49316406 10.89705078 -15.49316406 10.56705078 -15.49316406 10.22705078 C-13.18316406 10.22705078 -10.87316406 10.22705078 -8.49316406 10.22705078 C-8.82316406 9.23705078 -9.15316406 8.24705078 -9.49316406 7.22705078 C-9.30566406 4.66455078 -9.30566406 4.66455078 -8.49316406 2.22705078 C-5.61970408 0.37930275 -3.37888287 -0.01941887 0 0 Z " fill="#969696" transform="translate(83.4931640625,1.77294921875)"/>
<path d="M0 0 C3 1 3 1 5 2 C5 1.34 5 0.68 5 0 C6.27875 -0.061875 7.5575 -0.12375 8.875 -0.1875 C9.95394531 -0.23970703 9.95394531 -0.23970703 11.0546875 -0.29296875 C11.69664063 -0.19628906 12.33859375 -0.09960938 13 0 C13.66 0.99 14.32 1.98 15 3 C12.54220024 3.22126178 10.08472352 3.42750395 7.625 3.625 C6.57699219 3.72167969 6.57699219 3.72167969 5.5078125 3.8203125 C3.67630889 3.96119739 1.83687252 3.98761659 0 4 C-0.66 3.34 -1.32 2.68 -2 2 C-1.34 2 -0.68 2 0 2 C0 1.34 0 0.68 0 0 Z M47 -2 C51.62 -2 56.24 -2 61 -2 C61 -1.67 61 -1.34 61 -1 C94.66 -0.67 128.32 -0.34 163 0 C163 1.65 163 3.3 163 5 C129.01 5 95.02 5 60 5 C60 4.67 60 4.34 60 4 C52.74 4 45.48 4 38 4 C38 3.34 38 2.68 38 2 C30.41 2 22.82 2 15 2 C14.67 1.34 14.34 0.68 14 0 C24.89 0 35.78 0 47 0 C47 -0.66 47 -1.32 47 -2 Z M-10 4 C-6.7 4 -3.4 4 0 4 C0 4.33 0 4.66 0 5 C-4.455 5.495 -4.455 5.495 -9 6 C-9.33 5.34 -9.66 4.68 -10 4 Z M36 4 C38 5 38 5 38 5 Z M-20 4 C-17.03 4 -14.06 4 -11 4 C-9 8 -9 8 -9 9 C-26.49 9 -43.98 9 -62 9 C-62 8.67 -62 8.34 -62 8 C-45.83 8 -29.66 8 -13 8 C-13 7.01 -13 6.02 -13 5 C-15.31 5 -17.62 5 -20 5 C-20 4.67 -20 4.34 -20 4 Z " fill="#767676" transform="translate(62,11)"/>
<path d="M0 0 C44.88 0 89.76 0 136 0 C136 1.32 136 2.64 136 4 C128.73999807 4.96520153 121.63858783 5.13630275 114.32006836 5.11352539 C113.08005066 5.11367142 111.84003296 5.11381744 110.56243896 5.1139679 C107.18908808 5.11339383 103.81579967 5.10840573 100.44245982 5.10139394 C96.90708144 5.09510932 93.37170208 5.09455258 89.83631897 5.09336853 C83.15361775 5.0902702 76.47093304 5.08207715 69.78823906 5.07201904 C62.17511825 5.0608112 54.56199661 5.05533572 46.94886959 5.05032361 C31.29923685 5.03989317 15.64962056 5.02232295 0 5 C0 3.35 0 1.7 0 0 Z " fill="#8A8A8A" transform="translate(0,138)"/>
<path d="M0 0 C58.41 0 116.82 0 177 0 C176.67 0.99 176.34 1.98 176 3 C176.30791692 4.671549 176.64386903 6.33805547 177 8 C177.02199222 9.66652156 177.02508077 11.33352206 177 13 C169.81950058 13.65383409 162.72006918 14.0426806 155.5078125 13.9609375 C153.8215979 13.94256836 153.8215979 13.94256836 152.10131836 13.92382812 C149.83628037 13.8914311 147.57138925 13.84598289 145.30688477 13.78710938 C144.26072998 13.77228516 143.2145752 13.75746094 142.13671875 13.7421875 C140.72459106 13.70907471 140.72459106 13.70907471 139.28393555 13.67529297 C138.15338745 13.83602295 138.15338745 13.83602295 137 14 C136.34 14.99 135.68 15.98 135 17 C126.94969231 18.58585009 118.19158038 18.05716571 110.0078125 18.05078125 C108.9670607 18.05029785 107.9263089 18.04981445 106.85401917 18.04931641 C87.65043452 18.01072577 68.44724373 17.74900241 49.24499512 17.53643799 C43.67961681 17.47512537 38.11422177 17.4153701 32.54882812 17.35546875 C21.69920221 17.23847024 10.84959539 17.11979405 0 17 C0 16.67 0 16.34 0 16 C17.16 15.67 34.32 15.34 52 15 C52 14.67 52 14.34 52 14 C71.14 14 90.28 14 110 14 C110 13.34 110 12.68 110 12 C128.48 11.67 146.96 11.34 166 11 C164.02 10.505 164.02 10.505 162 10 C161.01 9.67 160.02 9.34 159 9 C159 8.67 159 8.34 159 8 C162.465 7.505 162.465 7.505 166 7 C166.33 6.01 166.66 5.02 167 4 C166.67 3.34 166.34 2.68 166 2 C165.38045944 2.00222061 164.76091888 2.00444122 164.12260437 2.00672913 C155.64425216 2.03540925 147.16589262 2.05236966 138.6875 2.0625 C137.97646999 2.06335602 137.26543999 2.06421204 136.53286362 2.06509399 C106.12403756 2.09718261 75.7193823 1.8228895 45.3125 1.5 C44.18602932 1.48804218 43.05955864 1.47608437 41.89895248 1.46376419 C27.93256913 1.31497389 13.9662558 1.16030284 0 1 C0 0.67 0 0.34 0 0 Z M123 2 C125 3 125 3 125 3 Z M166 14 C168 15 168 15 168 15 Z " fill="#020202" transform="translate(0,137)"/>
<path d="M0 0 C10.23 0 20.46 0 31 0 C31 2.31 31 4.62 31 7 C29.02 7.33 27.04 7.66 25 8 C26.98 8 28.96 8 31 8 C31 8.99 31 9.98 31 11 C11.86 11 -7.28 11 -27 11 C-27.495 10.01 -27.495 10.01 -28 9 C-23.05 8.67 -18.1 8.34 -13 8 C-13 7.67 -13 7.34 -13 7 C-14.05202606 7.00222061 -15.10405212 7.00444122 -16.18795776 7.00672913 C-26.27263939 7.02730982 -36.35731657 7.04213585 -46.44201469 7.05181217 C-51.62232232 7.05695458 -56.80261254 7.06388744 -61.98291016 7.07543945 C-87.00901184 7.12981074 -111.99012474 6.95692111 -137 6 C-137 5.67 -137 5.34 -137 5 C-92.12 4.67 -47.24 4.34 -1 4 C-0.67 2.68 -0.34 1.36 0 0 Z " fill="#454545" transform="translate(137,138)"/>
<path d="M0 0 C23.76 0 47.52 0 72 0 C72 0.66 72 1.32 72 2 C74.97 2.495 74.97 2.495 78 3 C78 3.33 78 3.66 78 4 C84.93 4.495 84.93 4.495 92 5 C92 5.33 92 5.66 92 6 C86.39 6 80.78 6 75 6 C74.67 6.99 74.34 7.98 74 9 C73.030625 8.979375 72.06125 8.95875 71.0625 8.9375 C68.12534105 8.64381501 68.12534105 8.64381501 67 10 C64.66702567 10.04092937 62.33294775 10.04241723 60 10 C60.33 9.01 60.66 8.02 61 7 C62.98 7 64.96 7 67 7 C67 6.34 67 5.68 67 5 C65.00045254 4.95745644 62.99958364 4.95919217 61 5 C60.67 5.33 60.34 5.66 60 6 C52.38211691 7.2194635 44.6781121 7.0612171 36.9921875 6.9375 C34.11705874 6.65221261 34.11705874 6.65221261 33 8 C30.55169574 8.08843793 28.13179401 8.11528752 25.68359375 8.09765625 C24.95253922 8.0962413 24.22148468 8.09482635 23.46827698 8.09336853 C21.12464368 8.08775408 18.78110461 8.07519922 16.4375 8.0625 C14.85221492 8.05748686 13.26692834 8.05292363 11.68164062 8.04882812 C7.7877239 8.03777997 3.89387795 8.02050572 0 8 C0 5.36 0 2.72 0 0 Z " fill="#2F2F2F" transform="translate(0,0)"/>
<path d="M0 0 C2 1 2 1 2.81640625 2.9609375 C3.06261719 3.75757813 3.30882812 4.55421875 3.5625 5.375 C3.81128906 6.16648437 4.06007812 6.95796875 4.31640625 7.7734375 C4.54199219 8.50820313 4.76757812 9.24296875 5 10 C5.495 11.485 5.495 11.485 6 13 C3.69 13 1.38 13 -1 13 C-1 13.66 -1 14.32 -1 15 C-13.54 15 -26.08 15 -39 15 C-39 11.04 -39 7.08 -39 3 C-26.46 3 -13.92 3 -1 3 C-0.67 2.01 -0.34 1.02 0 0 Z " fill="#7B7B7B" transform="translate(39,48)"/>
<path d="M0 0 C13.2 0 26.4 0 40 0 C40 4.29 40 8.58 40 13 C28.12 13 16.24 13 4 13 C2 8 2 8 2 6 C0.68 5.34 -0.64 4.68 -2 4 C-1.34 2.68 -0.68 1.36 0 0 Z " fill="#7C7C7C" transform="translate(185,36)"/>
<path d="M0 0 C1.45046672 0.01017904 2.90093694 0.01986857 4.35140991 0.02911377 C8.23681068 0.05523272 12.12212712 0.0880798 16.00746417 0.12226367 C20.08730866 0.15697177 24.16719763 0.1853137 28.24708557 0.21437073 C35.94959749 0.27017512 43.65205371 0.33159059 51.3545056 0.39509207 C60.13337226 0.4671894 68.9122831 0.53292482 77.691203 0.59816253 C95.72851907 0.73234166 113.76576536 0.87439092 131.80297852 1.02172852 C131.80297852 2.01172852 131.80297852 3.00172852 131.80297852 4.02172852 C75.37297852 4.02172852 18.94297852 4.02172852 -39.19702148 4.02172852 C-39.19702148 3.69172852 -39.19702148 3.36172852 -39.19702148 3.02172852 C-36.22702148 3.02172852 -33.25702148 3.02172852 -30.19702148 3.02172852 C-30.19702148 2.36172852 -30.19702148 1.70172852 -30.19702148 1.02172852 C-20.10634615 0.22098469 -10.12578374 -0.10003368 0 0 Z " fill="#4C4C4C" transform="translate(93.197021484375,15.978271484375)"/>
<path d="M0 0 C1.65 0 3.3 0 5 0 C5.144375 1.051875 5.28875 2.10375 5.4375 3.1875 C6.21839377 8.48022441 7.36410176 13.6571608 8.53125 18.875 C9.05379765 21.24388269 9.52426197 23.62130987 10 26 C10.65749715 29.00206063 11.32710198 32.00135735 12 35 C12.33 34.67 12.66 34.34 13 34 C14.85287502 33.92773498 16.70833878 33.9161878 18.5625 33.9375 C19.57441406 33.94652344 20.58632812 33.95554688 21.62890625 33.96484375 C22.80259766 33.98224609 22.80259766 33.98224609 24 34 C23.67 34.99 23.34 35.98 23 37 C12.11 37 1.22 37 -10 37 C-10 36.67 -10 36.34 -10 36 C-8.35 36 -6.7 36 -5 36 C-5 35.01 -5 34.02 -5 33 C-6.98 33 -8.96 33 -11 33 C-10.979375 31.948125 -10.95875 30.89625 -10.9375 29.8125 C-10.8604088 26.25481895 -10.8604088 26.25481895 -11.5 23.875 C-12.23529262 19.64706745 -12.10400983 15.46939879 -12.0625 11.1875 C-12.05798828 10.30384766 -12.05347656 9.42019531 -12.04882812 8.50976562 C-12.03709866 6.33981441 -12.01916495 4.16989828 -12 2 C-8.04 2 -4.08 2 0 2 C0 1.34 0 0.68 0 0 Z " fill="#020202" transform="translate(133,67)"/>
<path d="M0 0 C33 0 66 0 100 0 C100 1.32 100 2.64 100 4 C62.05 4 24.1 4 -15 4 C-15 3.67 -15 3.34 -15 3 C-10.05 2.67 -5.1 2.34 0 2 C0 1.34 0 0.68 0 0 Z " fill="#7D7D7D" transform="translate(125,7)"/>
<path d="M0 0 C0.87454834 0.00523682 1.74909668 0.01047363 2.65014648 0.01586914 C3.59438477 0.0190918 4.53862305 0.02231445 5.51147461 0.02563477 C6.50469727 0.03401367 7.49791992 0.04239258 8.52124023 0.05102539 C9.51833008 0.05553711 10.51541992 0.06004883 11.54272461 0.06469727 C14.01478872 0.07652532 16.48673541 0.0930069 18.95874023 0.11352539 C19.45374023 2.58852539 19.45374023 2.58852539 19.95874023 5.11352539 C14.01874023 5.11352539 8.07874023 5.11352539 1.95874023 5.11352539 C1.95874023 5.77352539 1.95874023 6.43352539 1.95874023 7.11352539 C0.30874023 7.44352539 -1.34125977 7.77352539 -3.04125977 8.11352539 C-3.04125977 8.44352539 -3.04125977 8.77352539 -3.04125977 9.11352539 C-15.25125977 9.11352539 -27.46125977 9.11352539 -40.04125977 9.11352539 C-40.04125977 6.47352539 -40.04125977 3.83352539 -40.04125977 1.11352539 C-38.92565674 1.11876221 -37.81005371 1.12399902 -36.66064453 1.12939453 C-32.53646644 1.14744314 -28.41229186 1.15895688 -24.28808594 1.16845703 C-22.50031956 1.17349757 -20.71255732 1.18032993 -18.92480469 1.18896484 C-16.36074808 1.20104269 -13.79674579 1.20675633 -11.23266602 1.21118164 C-10.02641319 1.21892357 -10.02641319 1.21892357 -8.79579163 1.2268219 C-6.87724262 1.22701754 -4.95880608 1.17554522 -3.04125977 1.11352539 C-2.04125977 0.11352539 -2.04125977 0.11352539 0 0 Z " fill="#606060" transform="translate(40.041259765625,94.886474609375)"/>
<path d="M0 0 C31.02 0 62.04 0 94 0 C94 0.99 94 1.98 94 3 C78.56125297 3.15442971 63.12245411 3.30244455 47.68357468 3.4429636 C40.51395227 3.5083661 33.34436034 3.57581433 26.17480469 3.64819336 C19.92091001 3.71132317 13.6669921 3.77049765 7.41301656 3.82505554 C4.10606402 3.85403906 0.79916621 3.88550286 -2.50772858 3.92053413 C-6.21248247 3.9594437 -9.91723785 3.9913626 -13.62207031 4.02172852 C-14.70101562 4.03467453 -15.77996094 4.04762054 -16.89160156 4.06095886 C-23.97917474 4.1095782 -30.94768751 3.70201807 -38 3 C-38 2.67 -38 2.34 -38 2 C-25.46 2 -12.92 2 0 2 C0 1.34 0 0.68 0 0 Z " fill="#494949" transform="translate(131,3)"/>
<path d="M0 0 C35.64 0 71.28 0 108 0 C104.68744927 2.20836715 103.75808792 2.2363054 99.91772461 2.17944336 C98.88332748 2.16960922 97.84893036 2.15977509 96.78318787 2.14964294 C95.66750931 2.12990921 94.55183075 2.11017548 93.40234375 2.08984375 C91.0514343 2.06942856 88.70052276 2.04925356 86.34960938 2.02929688 C82.63394263 1.98569906 78.91841578 1.93722428 75.20288086 1.88354492 C71.62353972 1.83546033 68.04438899 1.80546142 64.46484375 1.77734375 C63.34714096 1.75558578 62.22943817 1.73382782 61.0778656 1.71141052 C60.04662064 1.70472855 59.01537567 1.69804657 57.95288086 1.69116211 C57.04259628 1.67846786 56.13231171 1.66577362 55.19444275 1.6526947 C54.47027664 1.76730545 53.74611053 1.8819162 53 2 C52.34 2.99 51.68 3.98 51 5 C48.82333374 5.36076355 48.82333374 5.36076355 46.09130859 5.34057617 C44.55994766 5.34023628 44.55994766 5.34023628 42.99765015 5.33988953 C41.89240997 5.32440567 40.7871698 5.30892181 39.6484375 5.29296875 C38.5192691 5.28872391 37.39010071 5.28447906 36.22671509 5.28010559 C32.60923727 5.26327132 28.99231031 5.22560975 25.375 5.1875 C22.92709136 5.17245934 20.47917402 5.15876986 18.03125 5.14648438 C12.0206444 5.11335227 6.01036154 5.06310579 0 5 C0 3.35 0 1.7 0 0 Z " fill="#4C4C4C" transform="translate(0,147)"/>
<path d="M0 0 C0.79481277 0.00424484 1.58962555 0.00848969 2.40852356 0.01286316 C4.94587146 0.02964945 7.48242363 0.06730051 10.01953125 0.10546875 C11.7402229 0.1205157 13.46092701 0.13420409 15.18164062 0.14648438 C19.39874387 0.17955268 23.61525267 0.2313338 27.83203125 0.29296875 C27.83203125 0.62296875 27.83203125 0.95296875 27.83203125 1.29296875 C22.88203125 1.29296875 17.93203125 1.29296875 12.83203125 1.29296875 C13.85917786 2.54350005 13.85917786 2.54350005 16.05688477 2.40649414 C17.01522217 2.40125732 17.97355957 2.39602051 18.9609375 2.390625 C19.99541016 2.38740234 21.02988281 2.38417969 22.09570312 2.38085938 C23.18431641 2.37248047 24.27292969 2.36410156 25.39453125 2.35546875 C26.48701172 2.35095703 27.57949219 2.34644531 28.70507812 2.34179688 C31.4141162 2.32996701 34.12304724 2.31348418 36.83203125 2.29296875 C36.83203125 2.62296875 36.83203125 2.95296875 36.83203125 3.29296875 C86.82703125 3.78796875 86.82703125 3.78796875 137.83203125 4.29296875 C137.83203125 4.62296875 137.83203125 4.95296875 137.83203125 5.29296875 C118.99547316 5.33966943 100.1589268 5.37494811 81.32232285 5.39659309 C72.57635311 5.40690992 63.83041932 5.42097803 55.08447266 5.44384766 C47.46236944 5.46376908 39.84029226 5.47668223 32.21816373 5.48114574 C28.1815298 5.48375524 24.14497037 5.48989713 20.10836029 5.50442886 C16.30976951 5.51799307 12.51128398 5.52219375 8.71267128 5.51918411 C7.317871 5.5197348 5.92306724 5.52371919 4.52828789 5.5313797 C2.62482112 5.54132216 0.72129801 5.53774796 -1.18218994 5.53347778 C-2.24778263 5.53532137 -3.31337532 5.53716496 -4.4112587 5.53906441 C-7.17253902 5.29256075 -8.81745763 4.71691523 -11.16796875 3.29296875 C-8.4381073 -0.79475125 -4.41762045 -0.08860656 0 0 Z " fill="#BCBCBC" transform="translate(87.16796875,11.70703125)"/>
<path d="M0 0 C-0.33 1.32 -0.66 2.64 -1 4 C-9.33812569 4.75924397 -17.62949784 5.0832021 -26 5.0625 C-27.56028175 5.06050598 -27.56028175 5.06050598 -29.15208435 5.05847168 C-48.35360172 5.00588872 -67.55476317 4.7489802 -86.75500488 4.53643799 C-92.32038319 4.47512537 -97.88577823 4.4153701 -103.45117188 4.35546875 C-114.30079779 4.23847024 -125.15040461 4.11979405 -136 4 C-136 3.67 -136 3.34 -136 3 C-118.84 2.67 -101.68 2.34 -84 2 C-84 1.67 -84 1.34 -84 1 C-75.55791046 0.86806501 -67.11580014 0.73758223 -58.67366123 0.60884857 C-54.75174949 0.54900018 -50.82984608 0.48869016 -46.90795898 0.42724609 C-43.10835895 0.3677362 -39.30874066 0.30954204 -35.50910759 0.25218201 C-34.07457729 0.2303098 -32.6400536 0.20799879 -31.2055378 0.18519592 C-20.8027522 0.02025558 -10.40392238 -0.02543956 0 0 Z " fill="#2F2F2F" transform="translate(136,150)"/>
<path d="M0 0 C3 1 3 1 5 2 C5 1.34 5 0.68 5 0 C6.27875 -0.061875 7.5575 -0.12375 8.875 -0.1875 C9.95394531 -0.23970703 9.95394531 -0.23970703 11.0546875 -0.29296875 C11.69664063 -0.19628906 12.33859375 -0.09960938 13 0 C13.66 0.99 14.32 1.98 15 3 C12.54220024 3.22126178 10.08472352 3.42750395 7.625 3.625 C6.57699219 3.72167969 6.57699219 3.72167969 5.5078125 3.8203125 C3.67630889 3.96119739 1.83687252 3.98761659 0 4 C-0.66 3.34 -1.32 2.68 -2 2 C-1.34 2 -0.68 2 0 2 C0 1.34 0 0.68 0 0 Z M47 -2 C51.62 -2 56.24 -2 61 -2 C61 -1.67 61 -1.34 61 -1 C94.66 -0.67 128.32 -0.34 163 0 C163 0.33 163 0.66 163 1 C149.31408846 1.13253263 135.62815904 1.26303238 121.94220543 1.39115143 C115.58271735 1.45074414 109.22323661 1.51095807 102.86376953 1.57275391 C73.57514244 1.85688643 44.29014616 2.0901566 15 2 C14.67 1.34 14.34 0.68 14 0 C24.89 0 35.78 0 47 0 C47 -0.66 47 -1.32 47 -2 Z M-10 4 C-6.7 4 -3.4 4 0 4 C0 4.33 0 4.66 0 5 C-4.455 5.495 -4.455 5.495 -9 6 C-9.33 5.34 -9.66 4.68 -10 4 Z M-20 4 C-17.03 4 -14.06 4 -11 4 C-9 8 -9 8 -9 9 C-26.49 9 -43.98 9 -62 9 C-62 8.67 -62 8.34 -62 8 C-45.83 8 -29.66 8 -13 8 C-13 7.01 -13 6.02 -13 5 C-15.31 5 -17.62 5 -20 5 C-20 4.67 -20 4.34 -20 4 Z " fill="#010101" transform="translate(62,11)"/>
<path d="M0 0 C1.698647 -0.00287018 1.698647 -0.00287018 3.43161011 -0.00579834 C5.81687646 -0.00715509 8.20215032 -0.00349441 10.58740234 0.00488281 C14.23682199 0.01560923 17.88575162 0.00495968 21.53515625 -0.0078125 C23.85677192 -0.0064912 26.17838728 -0.00392943 28.5 0 C30.13450607 -0.00607269 30.13450607 -0.00607269 31.80203247 -0.01226807 C32.82014008 -0.00596375 33.83824768 0.00034058 34.88720703 0.00683594 C35.77876495 0.00842712 36.67032288 0.01001831 37.58889771 0.01165771 C40.39463072 0.29349423 42.55867289 1.10732487 45.1171875 2.265625 C45.1171875 2.595625 45.1171875 2.925625 45.1171875 3.265625 C37.1971875 3.760625 37.1971875 3.760625 29.1171875 4.265625 C29.1171875 4.595625 29.1171875 4.925625 29.1171875 5.265625 C-1.9028125 5.265625 -32.9228125 5.265625 -64.8828125 5.265625 C-64.8828125 4.935625 -64.8828125 4.605625 -64.8828125 4.265625 C-42.1128125 3.770625 -42.1128125 3.770625 -18.8828125 3.265625 C-18.8828125 2.935625 -18.8828125 2.605625 -18.8828125 2.265625 C-12.56531125 0.01249103 -6.66469598 -0.02485374 0 0 Z " fill="#A9A9A9" transform="translate(64.8828125,147.734375)"/>
<path d="M0 0 C1.32 0.33 2.64 0.66 4 1 C4 7.27 4 13.54 4 20 C1.36 20 -1.28 20 -4 20 C-4.33 20.66 -4.66 21.32 -5 22 C-6.32 21.67 -7.64 21.34 -9 21 C-9.12375 19.824375 -9.2475 18.64875 -9.375 17.4375 C-9.99634354 12.43124636 -11.40751243 7.77746271 -13 3 C-12.14535156 2.95101562 -11.29070312 2.90203125 -10.41015625 2.8515625 C-9.30542969 2.77679688 -8.20070312 2.70203125 -7.0625 2.625 C-5.40927734 2.52058594 -5.40927734 2.52058594 -3.72265625 2.4140625 C-2.37494141 2.20910156 -2.37494141 2.20910156 -1 2 C-0.67 1.34 -0.34 0.68 0 0 Z " fill="#888888" transform="translate(155,57)"/>
<path d="M0 0 C1.6874269 0.00015917 3.37485866 0.00585622 5.06225586 0.01586914 C6.39189613 0.01799156 6.39189613 0.01799156 7.74839783 0.02015686 C10.59133215 0.02577324 13.43418892 0.03832848 16.27709961 0.05102539 C18.19962452 0.05603828 20.12215065 0.06060155 22.04467773 0.06469727 C26.7680151 0.07574798 31.49129419 0.09302356 36.21459961 0.11352539 C35.88459961 1.76352539 35.55459961 3.41352539 35.21459961 5.11352539 C27.62459961 5.11352539 20.03459961 5.11352539 12.21459961 5.11352539 C12.21459961 4.78352539 12.21459961 4.45352539 12.21459961 4.11352539 C9.90459961 4.11352539 7.59459961 4.11352539 5.21459961 4.11352539 C5.21459961 4.44352539 5.21459961 4.77352539 5.21459961 5.11352539 C-3.36540039 5.11352539 -11.94540039 5.11352539 -20.78540039 5.11352539 C-21.11540039 4.12352539 -21.44540039 3.13352539 -21.78540039 2.11352539 C-19.96202148 2.02264648 -19.96202148 2.02264648 -18.10180664 1.92993164 C-16.51715811 1.84554207 -14.93252337 1.76089329 -13.34790039 1.67602539 C-12.54545898 1.63670898 -11.74301758 1.59739258 -10.91625977 1.55688477 C-6.87532906 1.33523034 -3.85442106 0.11559534 0 0 Z " fill="#A8A8A8" transform="translate(140.785400390625,149.886474609375)"/>
<path d="M0 0 C0.99 0.33 1.98 0.66 3 1 C3 7.27 3 13.54 3 20 C0.69 20 -1.62 20 -4 20 C-4 20.66 -4 21.32 -4 22 C-5.98 22 -7.96 22 -10 22 C-11.42635741 15.68327435 -12.75297849 9.35450323 -14 3 C-13.07316406 2.95101562 -12.14632812 2.90203125 -11.19140625 2.8515625 C-9.99386719 2.77679688 -8.79632813 2.70203125 -7.5625 2.625 C-6.36753906 2.55539063 -5.17257813 2.48578125 -3.94140625 2.4140625 C-2.97074219 2.27742188 -2.00007813 2.14078125 -1 2 C-0.67 1.34 -0.34 0.68 0 0 Z " fill="#AFAFAF" transform="translate(97,53)"/>
<path d="M0 0 C2.97 0 5.94 0 9 0 C8.67 0.99 8.34 1.98 8 3 C8.30791692 4.671549 8.64386903 6.33805547 9 8 C9.02199222 9.66652156 9.02508077 11.33352206 9 13 C-4.96302918 14.29538823 -18.9279227 14.11300728 -32.9375 14.0625 C-35.37434804 14.05747423 -37.81119708 14.05291323 -40.24804688 14.04882812 C-46.16538684 14.03790953 -52.08268861 14.02125703 -58 14 C-58 13.34 -58 12.68 -58 12 C-39.52 11.67 -21.04 11.34 -2 11 C-3.32 10.67 -4.64 10.34 -6 10 C-6.99 9.67 -7.98 9.34 -9 9 C-9 8.67 -9 8.34 -9 8 C-5.535 7.505 -5.535 7.505 -2 7 C-1.67 6.01 -1.34 5.02 -1 4 C-1.495 3.01 -1.495 3.01 -2 2 C-1.34 2 -0.68 2 0 2 C0 1.34 0 0.68 0 0 Z M-2 14 C0 15 0 15 0 15 Z " fill="#0B0B0B" transform="translate(168,137)"/>
<path d="M0 0 C0.99 0.33 1.98 0.66 3 1 C3.12375 2.051875 3.2475 3.10375 3.375 4.1875 C3.91257586 7.46671273 4.67124468 9.9881546 6 13 C6 13.33 6 13.66 6 14 C3.69 14 1.38 14 -1 14 C-1 14.66 -1 15.32 -1 16 C-4.3 16 -7.6 16 -11 16 C-11 11.05 -11 6.1 -11 1 C-9.370625 1.020625 -7.74125 1.04125 -6.0625 1.0625 C-4.37500659 1.08386068 -2.68608966 1.07205511 -1 1 C-0.67 0.67 -0.34 0.34 0 0 Z " fill="#8E8E8E" transform="translate(75,59)"/>
<path d="M0 0 C2.64 0 5.28 0 8 0 C8.66 1.32 9.32 2.64 10 4 C7.03 4 4.06 4 1 4 C0.67 4.99 0.34 5.98 0 7 C-13.53 7 -27.06 7 -41 7 C-41 6.01 -41 5.02 -41 4 C-23.675 3.505 -23.675 3.505 -6 3 C-6 2.67 -6 2.34 -6 2 C-4.02 2 -2.04 2 0 2 C0 1.34 0 0.68 0 0 Z " fill="#3F3F3F" transform="translate(41,9)"/>
<path d="M0 0 C17.16 0 34.32 0 52 0 C51.67 0.99 51.34 1.98 51 3 C34.17 3 17.34 3 0 3 C0 2.01 0 1.02 0 0 Z " fill="#464646" transform="translate(0,149)"/>
<path d="M0 0 C0.88061096 0.00015106 1.76122192 0.00030212 2.66851807 0.00045776 C4.08121979 0.01594162 4.08121979 0.01594162 5.52246094 0.03173828 C6.49342712 0.03456818 7.46439331 0.03739807 8.46478271 0.04031372 C11.56225979 0.05149786 14.65944644 0.07659936 17.75683594 0.10205078 C19.85839426 0.11208286 21.95995712 0.12120831 24.06152344 0.12939453 C29.21007263 0.15143145 34.35840506 0.18594933 39.50683594 0.22705078 C39.50683594 0.88705078 39.50683594 1.54705078 39.50683594 2.22705078 C41.15683594 2.22705078 42.80683594 2.22705078 44.50683594 2.22705078 C44.50683594 2.55705078 44.50683594 2.88705078 44.50683594 3.22705078 C28.17183594 3.72205078 28.17183594 3.72205078 11.50683594 4.22705078 C11.50683594 4.55705078 11.50683594 4.88705078 11.50683594 5.22705078 C4.90683594 5.22705078 -1.69316406 5.22705078 -8.49316406 5.22705078 C-8.49316406 4.23705078 -8.49316406 3.24705078 -8.49316406 2.22705078 C-5.52362115 0.52425771 -3.412316 -0.01961101 0 0 Z " fill="#A8A8A8" transform="translate(83.4931640625,1.77294921875)"/>
<path d="M0 0 C0.83272934 0.00222061 1.66545868 0.00444122 2.52342224 0.00672913 C3.46432205 0.00680466 4.40522186 0.00688019 5.37463379 0.00695801 C6.39754013 0.01211929 7.42044647 0.01728058 8.47434998 0.02259827 C9.51614914 0.02401321 10.5579483 0.02542816 11.63131714 0.02688599 C14.97355467 0.03250372 18.31572629 0.04505922 21.65794373 0.05775452 C23.91770839 0.06276723 26.17747409 0.06733053 28.4372406 0.07142639 C33.98999763 0.08247891 39.54271597 0.09923428 45.09544373 0.12025452 C45.09544373 1.11025452 45.09544373 2.10025452 45.09544373 3.12025452 C38.58099168 3.17084842 32.06659005 3.20594308 25.55198669 3.2301178 C23.33451952 3.24019276 21.11706568 3.25385311 18.89964294 3.27113342 C15.71748061 3.29531615 12.53549348 3.30672249 9.35325623 3.31556702 C7.85944931 3.33105087 7.85944931 3.33105087 6.33546448 3.34684753 C4.95425919 3.34707413 4.95425919 3.34707413 3.54515076 3.3473053 C2.73240692 3.35174652 1.91966309 3.35618774 1.08229065 3.36076355 C-0.90455627 3.12025452 -0.90455627 3.12025452 -2.90455627 1.12025452 C-1.90455627 0.12025452 -1.90455627 0.12025452 0 0 Z " fill="#A2A2A2" transform="translate(179.90455627441406,151.87974548339844)"/>
<path d="M0 0 C0 0.99 0 1.98 0 3 C-19.14 3 -38.28 3 -58 3 C-58.33 2.34 -58.66 1.68 -59 1 C-39.31596585 0.13060063 -19.69932903 -0.1301806 0 0 Z " fill="#767676" transform="translate(168,146)"/>
<path d="M0 0 C0.87076172 0.00451172 1.74152344 0.00902344 2.63867188 0.01367188 C4.82167901 0.02558228 7.00455236 0.0428447 9.1875 0.0625 C9.5175 0.0625 9.8475 0.0625 10.1875 0.0625 C12.85416667 0.0625 15.52083333 0.0625 18.1875 0.0625 C18.1875 0.7225 18.1875 1.3825 18.1875 2.0625 C20.8275 2.0625 23.4675 2.0625 26.1875 2.0625 C26.1875 1.4025 26.1875 0.7425 26.1875 0.0625 C34.75892857 -0.08035714 34.75892857 -0.08035714 38.1875 1.0625 C38.1875 0.7325 38.1875 0.4025 38.1875 0.0625 C41.1575 0.0625 44.1275 0.0625 47.1875 0.0625 C47.1875 0.7225 47.1875 1.3825 47.1875 2.0625 C49.8275 2.0625 52.4675 2.0625 55.1875 2.0625 C55.1875 2.3925 55.1875 2.7225 55.1875 3.0625 C32.0875 3.0625 8.9875 3.0625 -14.8125 3.0625 C-15.1425 2.4025 -15.4725 1.7425 -15.8125 1.0625 C-10.50297687 -0.0411161 -5.39235681 -0.05306634 0 0 Z " fill="#000000" transform="translate(51.8125,100.9375)"/>
<path d="M0 0 C11.88 0 23.76 0 36 0 C36 0.99 36 1.98 36 3 C23.79 3 11.58 3 -1 3 C-0.67 2.01 -0.34 1.02 0 0 Z " fill="#505050" transform="translate(189,49)"/>
<path d="M0 0 C12.21 0 24.42 0 37 0 C37.495 0.99 37.495 0.99 38 2 C34.11040173 3.27159943 30.21436421 3.12651187 26.171875 3.09765625 C25.42286926 3.0962413 24.67386353 3.09482635 23.90216064 3.09336853 C21.51806588 3.08778659 19.13406622 3.07523745 16.75 3.0625 C15.13020969 3.05748266 13.51041791 3.05292016 11.890625 3.04882812 C7.92704688 3.03782308 3.96353955 3.02057091 0 3 C0 2.01 0 1.02 0 0 Z " fill="#A0A0A0" transform="translate(0,2)"/>
<path d="M0 0 C0 0.99 0 1.98 0 3 C-16.17 3 -32.34 3 -49 3 C-49 2.34 -49 1.68 -49 1 C-43.14675437 0.85650255 -37.29348301 0.71412164 -31.44018555 0.57275391 C-29.45092036 0.52455478 -27.4616624 0.47605602 -25.47241211 0.42724609 C-22.60532473 0.35694973 -19.73821264 0.28774781 -16.87109375 0.21875 C-15.98852402 0.19687622 -15.10595428 0.17500244 -14.19664001 0.15246582 C-9.46269336 0.03968189 -4.73528525 -0.02245541 0 0 Z " fill="#7E7E7E" transform="translate(49,16)"/>
<path d="M0 0 C7.26 0 14.52 0 22 0 C22.33 2.31 22.66 4.62 23 7 C7.25512528 8.33257403 7.25512528 8.33257403 0 7 C0 4.69 0 2.38 0 0 Z M0 8 C2.64 8 5.28 8 8 8 C8 8.33 8 8.66 8 9 C5.36 9 2.72 9 0 9 C0 8.67 0 8.34 0 8 Z " fill="#000000" transform="translate(165,85)"/>
<path d="M0 0 C23.43 0 46.86 0 71 0 C69.68 0.33 68.36 0.66 67 1 C67 1.66 67 2.32 67 3 C64.69 3.33 62.38 3.66 60 4 C60 4.33 60 4.66 60 5 C56.7 5 53.4 5 50 5 C50 4.67 50 4.34 50 4 C51.65 3.67 53.3 3.34 55 3 C55 2.67 55 2.34 55 2 C36.85 1.67 18.7 1.34 0 1 C0 0.67 0 0.34 0 0 Z " fill="#DCDCDC" transform="translate(0,0)"/>
<path d="M0 0 C2.31 0 4.62 0 7 0 C7.16733157 1.4790916 7.33384686 2.95827556 7.5 4.4375 C7.5928125 5.26121094 7.685625 6.08492188 7.78125 6.93359375 C8 9 8 9 8 10 C4.7 10 1.4 10 -2 10 C-2 10.66 -2 11.32 -2 12 C-2.66 11.67 -3.32 11.34 -4 11 C-4.73075648 8.6859378 -5.40138258 6.35171131 -6 4 C-2.25 2 -2.25 2 0 2 C0 1.34 0 0.68 0 0 Z " fill="#828282" transform="translate(93,73)"/>
<path d="M0 0 C0.9583374 0.00523682 1.9166748 0.01047363 2.90405273 0.01586914 C4.45576172 0.02070313 4.45576172 0.02070313 6.03881836 0.02563477 C7.12743164 0.03401367 8.21604492 0.04239258 9.33764648 0.05102539 C10.97636719 0.05779297 10.97636719 0.05779297 12.64819336 0.06469727 C15.35723144 0.07652713 18.06616248 0.09300996 20.77514648 0.11352539 C20.77514648 1.10352539 20.77514648 2.09352539 20.77514648 3.11352539 C6.25514648 3.11352539 -8.26485352 3.11352539 -23.22485352 3.11352539 C-23.22485352 2.78352539 -23.22485352 2.45352539 -23.22485352 2.11352539 C-22.62423096 2.08846924 -22.0236084 2.06341309 -21.40478516 2.03759766 C-18.69873914 1.92197259 -15.99307068 1.79909603 -13.28735352 1.67602539 C-12.34182617 1.63670898 -11.39629883 1.59739258 -10.42211914 1.55688477 C-9.52299805 1.51499023 -8.62387695 1.4730957 -7.69750977 1.42993164 C-6.86485596 1.39327393 -6.03220215 1.35661621 -5.17431641 1.31884766 C-2.73229815 1.06164824 -2.54192587 0.12970433 0 0 Z " fill="#6F6F6F" transform="translate(103.224853515625,13.886474609375)"/>
<path d="M0 0 C1.65 0.33 3.3 0.66 5 1 C5 3.97 5 6.94 5 10 C2.69 10 0.38 10 -2 10 C-2 10.66 -2 11.32 -2 12 C-3.98 12 -5.96 12 -8 12 C-8.66 9.03 -9.32 6.06 -10 3 C-7.68880208 2.8046875 -5.37760417 2.609375 -3.06640625 2.4140625 C-2.38449219 2.27742188 -1.70257813 2.14078125 -1 2 C-0.67 1.34 -0.34 0.68 0 0 Z " fill="#A4A4A4" transform="translate(95,63)"/>
<path d="M0 0 C17.82 0 35.64 0 54 0 C54 0.66 54 1.32 54 2 C52.35 2 50.7 2 49 2 C49 2.66 49 3.32 49 4 C44 4 39 4 34 4 C34.99 3.34 35.98 2.68 37 2 C18.685 1.505 18.685 1.505 0 1 C0 0.67 0 0.34 0 0 Z " fill="#404040" transform="translate(0,1)"/>
<path d="M0 0 C1.32 0.33 2.64 0.66 4 1 C4 3.97 4 6.94 4 10 C2.02 10 0.04 10 -2 10 C-2.33 10.66 -2.66 11.32 -3 12 C-3 11.34 -3 10.68 -3 10 C-5.64 10 -8.28 10 -11 10 C-11.66 7.69 -12.32 5.38 -13 3 C-12.14535156 2.95101562 -11.29070312 2.90203125 -10.41015625 2.8515625 C-9.30542969 2.77679688 -8.20070312 2.70203125 -7.0625 2.625 C-5.40927734 2.52058594 -5.40927734 2.52058594 -3.72265625 2.4140625 C-2.37494141 2.20910156 -2.37494141 2.20910156 -1 2 C-0.67 1.34 -0.34 0.68 0 0 Z " fill="#A2A2A2" transform="translate(155,57)"/>
<path d="M0 0 C4.29 0 8.58 0 13 0 C13.33 1.32 13.66 2.64 14 4 C14.66 4.66 15.32 5.32 16 6 C11.545 6.495 11.545 6.495 7 7 C6.67 7.99 6.34 8.98 6 10 C5.01 9.67 4.02 9.34 3 9 C2.67 7.02 2.34 5.04 2 3 C1.01 2.67 0.02 2.34 -1 2 C-0.67 1.34 -0.34 0.68 0 0 Z " fill="#353535" transform="translate(58,37)"/>
<path d="M0 0 C2.31 0 4.62 0 7 0 C6.979375 0.78375 6.95875 1.5675 6.9375 2.375 C6.81315937 4.98114961 6.81315937 4.98114961 8 7 C6.865625 7.12375 5.73125 7.2475 4.5625 7.375 C2.7990625 7.684375 2.7990625 7.684375 1 8 C0.67 8.66 0.34 9.32 0 10 C-3.3 10 -6.6 10 -10 10 C-10 7.69 -10 5.38 -10 3 C-6.7 2.67 -3.4 2.34 0 2 C0 1.34 0 0.68 0 0 Z " fill="#737373" transform="translate(74,73)"/>
<path d="M0 0 C0.87076172 -0.00386719 1.74152344 -0.00773437 2.63867188 -0.01171875 C3.46560547 -0.01042969 4.29253906 -0.00914063 5.14453125 -0.0078125 C5.89710205 -0.00668457 6.64967285 -0.00555664 7.42504883 -0.00439453 C9.1875 0.125 9.1875 0.125 10.1875 1.125 C12.52047433 1.16592937 14.85455225 1.16741723 17.1875 1.125 C16.8575 1.785 16.5275 2.445 16.1875 3.125 C5.9575 3.125 -4.2725 3.125 -14.8125 3.125 C-15.1425 2.465 -15.4725 1.805 -15.8125 1.125 C-10.50939433 0.03139719 -5.38681155 -0.02446697 0 0 Z " fill="#151515" transform="translate(51.8125,100.875)"/>
<path d="M0 0 C0.74507812 0.00902344 1.49015625 0.01804688 2.2578125 0.02734375 C4.08868059 0.05081642 5.91938238 0.08668475 7.75 0.125 C7.75 0.455 7.75 0.785 7.75 1.125 C11.05 1.455 14.35 1.785 17.75 2.125 C17.75 2.455 17.75 2.785 17.75 3.125 C16.98333008 3.15005615 16.21666016 3.1751123 15.42675781 3.20092773 C11.95100717 3.31701423 8.47551908 3.43968366 5 3.5625 C3.7934375 3.60181641 2.586875 3.64113281 1.34375 3.68164062 C0.18359375 3.72353516 -0.9765625 3.76542969 -2.171875 3.80859375 C-3.24018555 3.84525146 -4.30849609 3.88190918 -5.40917969 3.91967773 C-7.83311152 4.09486909 -9.92886712 4.43698487 -12.25 5.125 C-12.25 4.135 -12.25 3.145 -12.25 2.125 C-8.4084024 -0.44280471 -4.4360825 -0.10188882 0 0 Z " fill="#A6A6A6" transform="translate(118.25,143.875)"/>
<path d="M0 0 C0.33 1.65 0.66 3.3 1 5 C-1.31 5 -3.62 5 -6 5 C-6 5.66 -6 6.32 -6 7 C-9.3 7 -12.6 7 -16 7 C-16 5.35 -16 3.7 -16 2 C-14.95199219 1.90912109 -14.95199219 1.90912109 -13.8828125 1.81640625 C-12.97273438 1.73261719 -12.06265625 1.64882812 -11.125 1.5625 C-10.22007813 1.48128906 -9.31515625 1.40007812 -8.3828125 1.31640625 C-5.06587257 0.87596013 -3.58757064 0 0 0 Z " fill="#B0B0B0" transform="translate(80,68)"/>
<path d="M0 0 C8.25 0 16.5 0 25 0 C25 0.33 25 0.66 25 1 C19.39 1 13.78 1 8 1 C7.67 1.99 7.34 2.98 7 4 C6.030625 3.979375 5.06125 3.95875 4.0625 3.9375 C1.12534105 3.64381501 1.12534105 3.64381501 0 5 C-2.33297433 5.04092937 -4.66705225 5.04241723 -7 5 C-6.67 4.01 -6.34 3.02 -6 2 C-4.02 2 -2.04 2 0 2 C0 1.34 0 0.68 0 0 Z " fill="#292929" transform="translate(67,5)"/>
<path d="M0 0 C0.66 0.33 1.32 0.66 2 1 C2 2.32 2 3.64 2 5 C1.01 5 0.02 5 -1 5 C-1 5.66 -1 6.32 -1 7 C-4.63 7 -8.26 7 -12 7 C-12 5.35 -12 3.7 -12 2 C-11.30132812 2.02320313 -10.60265625 2.04640625 -9.8828125 2.0703125 C-8.51769531 2.09738281 -8.51769531 2.09738281 -7.125 2.125 C-6.22007813 2.14820313 -5.31515625 2.17140625 -4.3828125 2.1953125 C-1.81193006 2.24324836 -1.81193006 2.24324836 0 0 Z " fill="#B1B1B1" transform="translate(76,52)"/>
<path d="M0 0 C0 0.99 0 1.98 0 3 C-5.61 3 -11.22 3 -17 3 C-17 2.67 -17 2.34 -17 2 C-11.21642935 -0.01167675 -6.09781001 -0.22084624 0 0 Z " fill="#9F9F9F" transform="translate(136,138)"/>
<path d="M0 0 C0.99 0.33 1.98 0.66 3 1 C3 1.66 3 2.32 3 3 C1.35 3 -0.3 3 -2 3 C-2 3.66 -2 4.32 -2 5 C-5.96 5 -9.92 5 -14 5 C-14 4.01 -14 3.02 -14 2 C-13.15695313 1.93941406 -12.31390625 1.87882812 -11.4453125 1.81640625 C-10.34960938 1.73261719 -9.25390625 1.64882813 -8.125 1.5625 C-7.03445312 1.48128906 -5.94390625 1.40007813 -4.8203125 1.31640625 C-2.05271029 1.16998297 -2.05271029 1.16998297 0 0 Z " fill="#C7C7C7" transform="translate(135,62)"/>
<path d="M0 0 C1.79244141 0.01740234 1.79244141 0.01740234 3.62109375 0.03515625 C5.41740234 0.04869141 5.41740234 0.04869141 7.25 0.0625 C8.17683594 0.07410156 9.10367188 0.08570313 10.05859375 0.09765625 C10.05859375 0.42765625 10.05859375 0.75765625 10.05859375 1.09765625 C7.74859375 1.09765625 5.43859375 1.09765625 3.05859375 1.09765625 C3.05859375 1.75765625 3.05859375 2.41765625 3.05859375 3.09765625 C-2.55140625 3.09765625 -8.16140625 3.09765625 -13.94140625 3.09765625 C-13.94140625 2.76765625 -13.94140625 2.43765625 -13.94140625 2.09765625 C-13.23113281 2.03707031 -12.52085938 1.97648438 -11.7890625 1.9140625 C-10.41041016 1.78837891 -10.41041016 1.78837891 -9.00390625 1.66015625 C-8.08738281 1.57894531 -7.17085937 1.49773438 -6.2265625 1.4140625 C-3.23147301 0.9993578 -3.24930621 0.10787869 0 0 Z " fill="#A6A6A6" transform="translate(63.94140625,3.90234375)"/>
<path d="M0 0 C2.97 0 5.94 0 9 0 C9 0.99 9 1.98 9 3 C6.03 3 3.06 3 0 3 C0 2.01 0 1.02 0 0 Z M-1 3 C-0.34 3.66 0.32 4.32 1 5 C-1.97 5 -4.94 5 -8 5 C-8 4.67 -8 4.34 -8 4 C-4.625 3.375 -4.625 3.375 -1 3 Z " fill="#B0B0B0" transform="translate(159,142)"/>
<path d="M0 0 C1.4540625 0.0309375 1.4540625 0.0309375 2.9375 0.0625 C3.2675 1.0525 3.5975 2.0425 3.9375 3.0625 C1.2975 3.0625 -1.3425 3.0625 -4.0625 3.0625 C-4.0625 3.7225 -4.0625 4.3825 -4.0625 5.0625 C-7.02425123 4.44972388 -8.44308783 3.80877478 -11.0625 2.0625 C-9.928125 1.918125 -8.79375 1.77375 -7.625 1.625 C-3.97252634 1.04829363 -3.54680005 0.07238367 0 0 Z " fill="#9F9F9F" transform="translate(71.0625,7.9375)"/>
<path d="M0 0 C3.63 0 7.26 0 11 0 C11.33 0.99 11.66 1.98 12 3 C10.56465159 3.2226746 9.12654475 3.42761906 7.6875 3.625 C6.88699219 3.74101562 6.08648437 3.85703125 5.26171875 3.9765625 C3 4 3 4 0 2 C0 1.34 0 0.68 0 0 Z " fill="#919191" transform="translate(38,12)"/>
<path d="M0 0 C4.95 0 9.9 0 15 0 C15 0.33 15 0.66 15 1 C12.36 1 9.72 1 7 1 C7 1.66 7 2.32 7 3 C4.36 3.33 1.72 3.66 -1 4 C-0.67 2.68 -0.34 1.36 0 0 Z " fill="#979797" transform="translate(34,6)"/>
<path d="M0 0 C0.33 0.99 0.66 1.98 1 3 C-0.60226955 3.22245393 -2.20696767 3.42746669 -3.8125 3.625 C-4.70582031 3.74101562 -5.59914063 3.85703125 -6.51953125 3.9765625 C-9 4 -9 4 -12 2 C-7.8794254 0.00214565 -4.54805635 -0.17835515 0 0 Z " fill="#8A8A8A" transform="translate(62,16)"/>
<path d="M0 0 C0.99 0.99 1.98 1.98 3 3 C-0.3 3 -3.6 3 -7 3 C-7.33 2.34 -7.66 1.68 -8 1 C-5.20129973 -0.39935013 -3.09501208 -0.25265405 0 0 Z M-8 3 C-7.34 3.66 -6.68 4.32 -6 5 C-6.99 4.67 -7.98 4.34 -9 4 C-8.67 3.67 -8.34 3.34 -8 3 Z " fill="#909090" transform="translate(59,12)"/>
<path d="M0 0 C1.98 0 3.96 0 6 0 C6 0.99 6 1.98 6 3 C4.02 3 2.04 3 0 3 C0 2.01 0 1.02 0 0 Z " fill="#858585" transform="translate(167,100)"/>
</svg>
