<?xml version="1.0" standalone="no"?>
<!DOCTYPE svg PUBLIC "-//W3C//DTD SVG 20010904//EN"
 "http://www.w3.org/TR/2001/REC-SVG-20010904/DTD/svg10.dtd">
<svg version="1.0" xmlns="http://www.w3.org/2000/svg"
 width="400.000000pt" height="400.000000pt" viewBox="0 0 400.000000 400.000000"
 preserveAspectRatio="xMidYMid meet">

<g transform="translate(0.000000,400.000000) scale(0.100000,-0.100000)"
fill="#000000" stroke="none">
<path d="M1552 3589 c-45 -29 -62 -67 -62 -136 0 -62 38 -596 46 -650 l5 -33
249 0 250 0 0 420 0 420 -227 0 c-215 0 -230 -2 -261 -21z"/>
<path d="M2100 3576 c0 -49 16 -124 40 -189 30 -79 108 -161 228 -238 173
-112 207 -165 200 -306 -3 -64 -1 -73 14 -73 23 0 24 3 48 315 27 357 26 434
-1 469 -41 53 -59 56 -304 56 l-225 0 0 -34z"/>
<path d="M1482 2676 c2 -29 8 -51 16 -54 17 -5 15 47 -3 78 -15 24 -15 23 -13
-24z"/>
<path d="M1560 2705 c0 -9 7 -29 15 -45 l16 -30 204 -1 c113 -1 215 -2 228 -2
20 -1 22 3 22 43 l0 45 -242 3 c-215 2 -243 1 -243 -13z"/>
<path d="M2100 2490 c0 -190 2 -230 14 -230 28 0 192 90 251 137 33 27 81 75
108 108 47 59 119 193 110 208 -2 4 -112 7 -244 7 l-239 0 0 -230z"/>
<path d="M2640 2682 c-10 -31 -10 -46 -2 -54 18 -18 37 33 25 69 l-10 28 -13
-43z"/>
<path d="M1458 2596 c18 -40 57 -59 47 -23 -7 22 -40 57 -55 57 -4 0 -1 -15 8
-34z"/>
<path d="M1527 2623 c-12 -11 -8 -58 6 -77 13 -17 14 -17 20 -2 4 9 1 29 -5
44 -6 15 -11 30 -10 35 2 9 -3 9 -11 0z"/>
<path d="M2602 2605 c-14 -30 -16 -75 -4 -75 14 0 34 69 24 85 -7 13 -10 12
-20 -10z"/>
<path d="M2672 2623 c-14 -6 -46 -62 -38 -70 10 -10 39 15 52 46 13 31 11 34
-14 24z"/>
<path d="M1567 2517 c-6 -16 15 -63 39 -87 12 -12 14 -11 14 15 -1 36 -44 95
-53 72z"/>
<path d="M1682 2488 l36 -43 166 -3 166 -2 0 45 0 45 -201 0 -202 0 35 -42z"/>
<path d="M2542 2499 c-23 -28 -27 -63 -7 -62 6 0 19 16 30 36 26 48 9 66 -23
26z"/>
<path d="M1516 2475 c24 -32 75 -52 58 -22 -17 29 -49 57 -66 57 -17 0 -16 -4
8 -35z"/>
<path d="M2586 2478 l-26 -33 23 -4 c13 -2 26 4 32 15 5 9 18 26 28 36 16 17
16 18 -7 18 -16 0 -34 -12 -50 -32z"/>
<path d="M1636 2433 c-8 -26 2 -49 38 -82 l26 -24 0 26 c0 15 -9 35 -21 45
-11 9 -24 26 -29 37 -7 19 -7 19 -14 -2z"/>
<path d="M2487 2432 c-4 -9 -16 -29 -28 -43 -16 -20 -19 -31 -11 -44 8 -16 13
-13 36 21 27 39 33 68 17 78 -5 3 -11 -2 -14 -12z"/>
<path d="M1550 2400 c-13 -9 -13 -10 1 -10 8 0 25 -11 37 -25 14 -16 32 -25
49 -25 l28 1 -37 34 c-39 37 -53 41 -78 25z"/>
<path d="M2521 2384 c-37 -31 -39 -44 -6 -44 15 0 31 9 41 25 9 14 24 25 33
25 14 0 14 2 1 10 -23 15 -36 12 -69 -16z"/>
<path d="M2385 2335 c-36 -36 -46 -57 -35 -76 7 -11 15 -8 39 15 32 30 41 53
32 76 -5 12 -12 9 -36 -15z"/>
<path d="M1720 2336 c0 -18 11 -38 31 -57 36 -33 49 -36 49 -11 0 20 -11 35
-52 71 l-28 24 0 -27z"/>
<path d="M1935 2299 c103 -51 115 -51 115 1 l0 40 -97 -1 -98 0 80 -40z"/>
<path d="M1625 2300 c-3 -5 -1 -10 5 -10 7 0 25 -11 42 -25 30 -25 62 -32 72
-16 4 5 -8 21 -25 35 -31 26 -82 35 -94 16z"/>
<path d="M2418 2281 c-31 -28 -32 -29 -9 -36 15 -4 31 -1 48 12 14 10 34 23
44 29 24 14 14 24 -23 24 -16 0 -41 -11 -60 -29z"/>
<path d="M1820 2270 c0 -21 10 -37 37 -59 21 -17 42 -31 46 -31 15 0 -3 54
-20 65 -9 6 -27 20 -40 32 l-23 22 0 -29z"/>
<path d="M2310 2288 c0 -8 -14 -21 -30 -28 -28 -12 -47 -45 -38 -70 2 -6 19 1
40 15 40 27 58 69 39 88 -8 8 -11 7 -11 -5z"/>
<path d="M1306 2251 c-4 -5 -1 -13 5 -16 5 -4 8 -13 5 -21 -3 -8 -2 -14 3 -14
5 0 11 9 14 20 5 21 -17 48 -27 31z"/>
<path d="M667 2233 c-19 -18 -5 -59 28 -86 39 -31 43 -43 18 -64 -16 -13 -15
-13 7 0 38 22 36 44 -9 85 -42 39 -50 57 -28 65 6 3 7 6 1 6 -6 1 -14 -2 -17
-6z"/>
<path d="M716 2233 c5 -5 12 -12 16 -18 4 -6 8 -2 8 8 0 9 -7 17 -17 17 -9 0
-12 -3 -7 -7z"/>
<path d="M793 2160 l32 -80 14 33 c8 17 25 53 36 80 20 43 21 47 4 47 -11 0
-16 -6 -13 -17 2 -10 -4 -36 -15 -58 l-19 -40 -17 39 c-9 21 -17 47 -18 57 -1
11 -9 19 -18 19 -15 0 -13 -11 14 -80z"/>
<path d="M925 2160 c0 -79 0 -80 25 -79 14 0 19 3 13 6 -7 2 -13 19 -13 36 l0
31 38 -37 c21 -20 46 -37 55 -37 12 0 5 11 -23 36 -22 20 -40 42 -40 49 0 7
16 27 35 44 30 26 33 31 15 31 -11 0 -20 -6 -20 -13 0 -14 -41 -57 -54 -57 -5
0 -6 16 -4 35 3 27 0 35 -12 35 -12 0 -15 -14 -15 -80z"/>
<path d="M1103 2168 c-2 -45 -7 -75 -15 -80 -8 -5 -2 -7 17 -7 17 0 24 3 18 6
-14 5 -16 52 -5 91 6 20 11 14 31 -38 13 -33 27 -57 31 -53 4 4 15 30 25 56
25 67 34 67 32 -3 -2 -57 -1 -60 22 -60 19 0 21 3 11 15 -7 9 -10 38 -8 80 4
87 -17 88 -54 2 l-27 -62 -17 40 c-9 22 -20 50 -25 63 -5 12 -14 22 -21 22 -9
0 -14 -22 -15 -72z"/>
<path d="M1367 2233 c-18 -17 -5 -54 29 -79 27 -21 35 -33 31 -51 -6 -32 11
-29 19 4 6 23 1 32 -36 64 -37 32 -42 40 -31 53 13 15 2 23 -12 9z"/>
<path d="M1411 2237 c2 -1 11 -8 20 -15 13 -9 16 -9 16 3 0 8 -9 15 -20 15
-11 0 -18 -1 -16 -3z"/>
<path d="M1734 2214 c-10 -8 -13 -12 -6 -9 8 4 27 -2 43 -14 29 -22 89 -29 89
-11 0 14 -61 50 -86 50 -11 0 -29 -7 -40 -16z"/>
<path d="M1926 2205 c8 -36 29 -62 58 -71 11 -4 35 -16 51 -27 17 -12 25 -15
19 -7 -6 8 -14 28 -18 43 -5 20 -17 33 -44 44 -20 8 -45 22 -55 31 -18 16 -18
15 -11 -13z"/>
<path d="M2202 2217 c-8 -9 -28 -21 -46 -27 -20 -6 -38 -22 -46 -38 -7 -15
-16 -34 -20 -43 -6 -12 6 -8 44 12 65 35 89 61 84 90 -3 20 -4 21 -16 6z"/>
<path d="M2320 2212 c-18 -11 -36 -24 -38 -30 -7 -21 63 -14 92 9 14 11 31 17
38 14 7 -4 4 1 -6 9 -26 21 -44 20 -86 -2z"/>
<path d="M1854 2128 c-10 -12 -14 -18 -7 -14 7 3 29 -3 50 -14 45 -24 62 -25
89 -6 18 14 17 16 -26 35 -58 26 -82 26 -106 -1z"/>
<path d="M2181 2128 c-42 -19 -44 -21 -26 -34 26 -19 48 -18 92 6 20 10 40 17
45 14 4 -3 8 -1 8 5 0 13 -33 31 -57 31 -10 -1 -38 -10 -62 -22z"/>
<path d="M653 2095 c0 -8 7 -15 15 -15 12 0 12 3 2 15 -7 8 -13 15 -15 15 -1
0 -2 -7 -2 -15z"/>
<path d="M1360 2097 c0 -10 8 -17 18 -17 9 0 13 4 7 8 -5 4 -13 11 -17 16 -5
5 -8 2 -8 -7z"/>
<path d="M3393 2043 c12 -3 17 -16 19 -41 l1 -37 4 35 c3 19 10 38 16 42 7 4
-4 7 -23 7 -19 -1 -27 -3 -17 -6z"/>
<path d="M3461 2003 c2 -46 2 -46 8 -13 l7 35 8 -32 c4 -18 11 -33 16 -33 5 0
12 15 16 33 l8 32 7 -35 c6 -33 6 -33 8 13 1 52 -14 63 -24 17 -4 -16 -10 -30
-15 -30 -5 0 -11 14 -15 30 -10 46 -25 35 -24 -17z"/>
<path d="M3140 1933 c-49 -25 -80 -76 -80 -130 0 -72 28 -113 123 -176 128
-85 155 -126 126 -191 -13 -27 -64 -56 -98 -56 -59 0 -131 69 -131 124 0 22
-20 20 -21 -1 -7 -141 -3 -157 26 -133 12 10 28 9 78 -5 78 -21 128 -10 174
37 57 59 66 114 32 185 -17 35 -39 55 -119 108 -111 72 -130 94 -130 146 0 52
28 74 95 74 62 0 97 -25 116 -82 16 -49 29 -31 29 42 l0 64 -32 -1 c-18 -1
-60 2 -93 6 -48 6 -67 4 -95 -11z"/>
<path d="M656 1931 c-3 -5 11 -18 31 -28 l38 -18 3 -238 2 -239 -30 -11 c-50
-19 -34 -27 55 -27 82 0 111 11 60 24 -42 11 -46 32 -43 248 l3 203 193 -237
c106 -131 199 -238 207 -238 13 0 15 39 15 259 0 269 1 274 43 282 10 2 18 9
18 14 -1 6 -38 11 -86 13 -71 2 -85 0 -85 -13 0 -8 9 -15 19 -15 43 0 51 -33
51 -217 0 -95 -3 -173 -7 -172 -5 0 -83 93 -174 207 l-165 207 -71 3 c-39 2
-74 -1 -77 -7z"/>
<path d="M1300 1925 c0 -8 6 -15 14 -15 8 0 24 -8 36 -18 22 -18 22 -20 11
-123 -6 -57 -16 -156 -21 -219 -8 -112 -9 -116 -39 -141 -17 -14 -31 -29 -31
-32 0 -4 41 -7 90 -7 93 0 111 9 61 29 -51 22 -55 46 -35 234 9 92 21 164 25
160 4 -4 39 -87 78 -183 93 -229 99 -242 112 -238 11 4 15 11 119 268 35 85
66 159 70 163 7 9 16 -74 26 -264 l7 -117 -27 -17 c-14 -9 -26 -21 -26 -26 0
-5 47 -9 105 -9 106 0 130 9 75 28 -17 7 -32 20 -35 34 -12 48 -41 414 -35
438 3 14 18 31 33 38 44 22 31 32 -41 32 l-69 0 -55 -132 c-30 -73 -70 -170
-89 -216 -18 -45 -36 -79 -40 -75 -4 5 -40 89 -80 188 -102 257 -86 235 -169
235 -56 0 -70 -3 -70 -15z"/>
<path d="M2026 1931 c-4 -5 6 -16 21 -23 15 -7 30 -24 34 -38 9 -32 11 -387 2
-430 -4 -24 -14 -36 -35 -44 -51 -19 -30 -26 77 -26 63 0 105 4 105 10 0 6 -6
10 -14 10 -8 0 -22 7 -30 16 -14 13 -16 50 -16 248 0 241 2 256 43 256 10 0
17 5 15 13 -6 15 -193 23 -202 8z"/>
<path d="M2306 1931 c-4 -5 9 -17 29 -27 19 -9 38 -20 40 -25 8 -12 -34 -420
-45 -447 -5 -12 -21 -27 -35 -34 -45 -20 -27 -28 65 -28 95 0 110 9 61 35 -16
8 -33 24 -36 36 -8 25 25 363 35 352 6 -7 83 -194 158 -380 9 -24 22 -43 28
-43 12 0 13 3 120 262 38 92 72 168 75 168 3 0 9 -39 12 -87 4 -49 9 -127 13
-174 8 -106 2 -135 -31 -143 -57 -14 -21 -26 80 -26 58 0 105 3 105 8 0 4 -13
14 -29 24 -34 19 -33 15 -54 273 -7 94 -10 181 -7 195 3 14 18 31 33 38 15 7
25 17 22 23 -9 14 -132 11 -138 -3 -77 -184 -160 -387 -164 -400 -3 -10 -8
-18 -12 -18 -3 0 -45 96 -92 213 l-85 212 -71 3 c-39 2 -74 -2 -77 -7z"/>
<path d="M1337 1223 c375 -2 991 -2 1370 0 378 1 72 2 -682 2 -753 0 -1063 -1
-688 -2z"/>
<path d="M1690 1010 c5 -74 15 -90 56 -90 35 0 52 30 56 98 2 37 -1 62 -7 62
-6 0 -9 -24 -7 -60 4 -65 -7 -90 -39 -90 -27 0 -41 35 -37 96 2 43 0 54 -12
54 -13 0 -14 -12 -10 -70z"/>
<path d="M1911 1048 c18 -18 51 -53 71 -78 37 -45 37 -45 38 -17 0 16 -4 26
-9 23 -5 -3 -28 19 -51 49 -27 35 -50 55 -63 55 -18 0 -17 -4 14 -32z"/>
<path d="M2005 1070 c4 -6 11 -8 16 -5 14 9 11 15 -7 15 -8 0 -12 -5 -9 -10z"/>
<path d="M2118 1015 c2 -42 -1 -71 -8 -80 -10 -12 -8 -15 11 -15 23 0 24 2 24
80 0 64 -3 80 -15 80 -12 0 -14 -12 -12 -65z"/>
<path d="M2253 1005 c20 -50 34 -71 39 -62 4 8 -2 31 -13 54 -11 23 -21 50
-22 62 -1 13 -8 21 -18 21 -16 0 -14 -9 14 -75z"/>
<path d="M2325 1070 c4 -6 11 -8 16 -5 14 9 11 15 -7 15 -8 0 -12 -5 -9 -10z"/>
<path d="M2420 1026 c3 -29 3 -65 -1 -78 -6 -24 -5 -25 47 -27 44 -1 54 1 54
15 0 13 -3 14 -14 4 -8 -6 -25 -10 -38 -8 -18 2 -24 10 -26 37 -3 33 -3 33 32
29 22 -2 36 0 36 7 0 7 -14 9 -35 7 -34 -4 -35 -3 -35 28 0 31 1 32 40 28 22
-2 40 0 40 4 0 5 -24 8 -53 8 l-53 0 6 -54z"/>
<path d="M2595 1001 c0 -76 1 -78 23 -78 17 0 20 3 13 10 -6 6 -11 39 -11 74
0 60 1 63 24 63 43 0 58 -49 20 -64 -12 -5 -9 -15 16 -51 32 -47 63 -70 83
-61 7 2 4 5 -6 5 -9 1 -31 22 -47 48 -27 42 -28 48 -15 63 35 38 10 70 -54 70
l-46 0 0 -79z"/>
<path d="M2802 1063 c-13 -24 2 -60 27 -68 24 -7 47 -44 34 -55 -4 -4 -17 -10
-28 -13 -16 -5 -15 -5 4 -4 13 1 30 12 39 25 14 21 12 24 -28 61 -29 26 -41
44 -37 55 8 22 0 20 -11 -1z"/>
<path d="M2850 1076 c0 -2 7 -9 15 -16 12 -10 15 -10 15 4 0 9 -7 16 -15 16
-8 0 -15 -2 -15 -4z"/>
<path d="M2965 1000 c0 -64 3 -80 15 -80 12 0 15 16 15 80 0 64 -3 80 -15 80
-12 0 -15 -16 -15 -80z"/>
<path d="M3070 1072 c0 -5 14 -7 30 -4 l30 4 0 -64 c0 -36 -5 -69 -12 -76 -9
-9 -7 -12 12 -12 25 0 25 1 22 76 l-4 77 31 -5 c17 -2 31 -1 31 4 0 4 -31 8
-70 8 -38 0 -70 -4 -70 -8z"/>
<path d="M3279 1043 c33 -40 41 -89 19 -111 -9 -9 -6 -12 16 -12 17 0 25 4 21
11 -16 25 -6 81 20 114 17 23 21 35 13 35 -8 0 -19 -15 -26 -32 l-13 -33 -19
24 c-11 12 -17 27 -14 32 3 5 -7 9 -21 9 l-26 0 30 -37z"/>
<path d="M1197 1038 c1 -18 2 -45 2 -60 1 -16 4 -28 9 -28 4 0 5 27 4 60 -2
33 -7 60 -10 60 -4 0 -6 -15 -5 -32z"/>
<path d="M1470 1012 c0 -34 4 -62 8 -62 8 0 6 109 -3 118 -3 3 -5 -22 -5 -56z"/>
<path d="M669 1007 c-2 -35 0 -57 6 -57 6 0 9 18 7 43 -5 71 -8 75 -13 14z"/>
<path d="M738 1038 c17 -17 15 -54 -4 -72 -8 -9 -11 -16 -5 -16 6 0 18 11 26
24 12 18 13 30 6 50 -6 14 -16 26 -23 26 -9 0 -9 -3 0 -12z"/>
<path d="M2311 1019 c-6 -18 -9 -34 -7 -36 2 -2 9 10 15 28 6 18 9 34 7 36 -2
2 -9 -10 -15 -28z"/>
<path d="M1288 1025 c-13 -13 9 -70 27 -73 19 -4 19 -3 1 10 -15 12 -16 19 -8
35 13 24 -2 46 -20 28z"/>
<path d="M826 1007 c3 -10 9 -15 12 -12 3 3 0 11 -7 18 -10 9 -11 8 -5 -6z"/>
<path d="M870 1005 c-20 -24 -8 -50 25 -52 21 -1 23 0 7 4 -28 6 -38 28 -22
48 7 8 10 15 7 15 -2 0 -10 -7 -17 -15z"/>
<path d="M945 984 c0 -19 3 -34 8 -34 4 0 7 13 7 29 0 17 -3 32 -7 34 -5 3 -8
-10 -8 -29z"/>
<path d="M978 1013 c6 -2 12 -18 12 -34 0 -16 4 -29 8 -29 4 0 8 12 8 28 -1
27 -12 42 -31 41 -5 0 -4 -3 3 -6z"/>
<path d="M1030 1005 c7 -8 10 -24 7 -35 -3 -11 -1 -20 4 -20 16 0 10 58 -7 64
-14 5 -15 4 -4 -9z"/>
<path d="M1080 1005 c-20 -24 -8 -50 25 -52 18 -1 22 1 10 4 -31 8 -38 19 -26
42 13 24 9 28 -9 6z"/>
<path d="M1116 1007 c3 -10 9 -15 12 -12 3 3 0 11 -7 18 -10 9 -11 8 -5 -6z"/>
<path d="M1154 1006 c-9 -22 -1 -49 16 -54 13 -5 13 -3 1 12 -12 14 -12 22 -3
37 8 12 8 19 2 19 -6 0 -13 -6 -16 -14z"/>
<path d="M1388 1008 c8 -10 11 -26 7 -39 -5 -14 -4 -19 4 -15 17 11 13 42 -6
57 -16 13 -17 12 -5 -3z"/>
<path d="M1513 1006 c14 -14 15 -22 6 -39 -11 -21 -11 -21 7 -4 20 19 12 46
-17 56 -9 3 -8 -1 4 -13z"/>
<path d="M1560 999 c-14 -26 3 -50 34 -48 19 2 19 2 -3 6 -19 4 -22 10 -19 34
5 34 3 36 -12 8z"/>
<path d="M1596 1007 c3 -10 9 -15 12 -12 3 3 0 11 -7 18 -10 9 -11 8 -5 -6z"/>
<path d="M787 996 c-9 -24 9 -46 37 -45 21 2 21 2 -1 6 -15 3 -23 13 -25 31
-3 23 -4 24 -11 8z"/>
<path d="M1345 1000 c-9 -14 4 -50 17 -50 7 0 7 5 -1 14 -6 7 -9 21 -5 30 7
18 -1 22 -11 6z"/>
<path d="M2790 939 c0 -11 4 -18 10 -14 5 3 7 12 3 20 -7 21 -13 19 -13 -6z"/>
<path d="M1885 930 c-3 -5 3 -10 15 -10 12 0 18 5 15 10 -3 6 -10 10 -15 10
-5 0 -12 -4 -15 -10z"/>
</g>
</svg>
