<svg version="1.1" id="Icon_Set" xmlns="http://www.w3.org/2000/svg" x="0" y="0" viewBox="0 0 256 256" style="enable-background:new 0 0 256 256" xml:space="preserve"><style>.st0{fill:#4c4372}.st5{fill:#fff}</style><circle cx="128" cy="128" r="103.5" style="fill:#f0c48a"/><path style="fill:#a4cff2" d="M57.073 118.045h141.855v82.854H57.073z"/><path style="fill:#7babf1" d="M185.214 118.045h13.714v82.854h-13.714z"/><path class="st0" d="M198.928 203.899H57.073a3 3 0 0 1-3-3v-82.854a3 3 0 0 1 3-3h141.855a3 3 0 0 1 3 3v82.854a3 3 0 0 1-3 3zm-138.855-6h135.855v-76.854H60.073v76.854z"/><path class="st5" d="M128.409 187.859H71.604v-78.936h44.772c6.646 0 12.033 5.387 12.033 12.032v66.904zM185.214 187.859h-56.805v-66.903c0-6.646 5.388-12.032 12.032-12.032h44.773v78.935z"/><path class="st0" d="M116.092 137.139H84.215a3 3 0 1 1 0-6h31.876a3 3 0 0 1 .001 6zM116.092 150.415H84.215a3 3 0 1 1 0-6h31.876a3 3 0 0 1 .001 6zM116.092 163.691H84.215a3 3 0 1 1 0-6h31.876a3 3 0 0 1 .001 6zM116.092 176.968H84.215a3 3 0 1 1 0-6h31.876a3 3 0 0 1 .001 6z"/><path style="fill:#d3e6f8" d="M174.721 108.924h10.493v78.936h-10.493z"/><path class="st0" d="M128.409 190.859H71.604a3 3 0 0 1-3-3v-78.936a3 3 0 0 1 3-3h44.772c8.289 0 15.033 6.743 15.033 15.032v66.903a3 3 0 0 1-3 3.001zm-53.805-6h50.805v-63.903c0-4.98-4.052-9.032-9.033-9.032H74.604v72.935z"/><path class="st0" d="M185.214 190.859h-56.805a3 3 0 0 1-3-3v-66.903c0-8.289 6.743-15.032 15.032-15.032h44.772a3 3 0 0 1 3 3v78.936a2.997 2.997 0 0 1-2.999 2.999zm-53.805-6h50.805v-72.936h-41.772c-4.98 0-9.032 4.052-9.032 9.032v63.904z"/><path class="st0" d="M172.75 137.139h-31.877a3 3 0 1 1 0-6h31.877a3 3 0 1 1 0 6zM172.75 150.415h-31.877a3 3 0 1 1 0-6h31.877a3 3 0 1 1 0 6zM172.75 163.691h-31.877a3 3 0 1 1 0-6h31.877a3 3 0 1 1 0 6zM172.75 176.968h-31.877a3 3 0 1 1 0-6h31.877a3 3 0 1 1 0 6z"/><path d="M165.589 97.756V87.624h-9.718a28.167 28.167 0 0 0-4.581-11.06l6.872-6.872-7.165-7.164-6.871 6.872a28.144 28.144 0 0 0-11.06-4.581V55.1h-10.132v9.719a28.138 28.138 0 0 0-11.06 4.581l-6.872-6.872-7.164 7.164 6.872 6.872a28.167 28.167 0 0 0-4.581 11.06H90.41v10.132h9.718a28.167 28.167 0 0 0 4.581 11.06l-6.872 6.872 7.164 7.164 6.872-6.871a28.16 28.16 0 0 0 11.06 4.58v9.719h10.132v-9.719a28.172 28.172 0 0 0 11.06-4.58l6.871 6.871 7.165-7.164-6.872-6.872a28.167 28.167 0 0 0 4.581-11.06h9.719zM128 107.618c-8.245 0-14.928-6.684-14.928-14.929 0-8.244 6.684-14.928 14.928-14.928 8.245 0 14.929 6.684 14.929 14.928 0 8.246-6.684 14.929-14.929 14.929z" style="fill:#fd919e"/><g><path class="st0" d="M133.066 133.279h-10.132a3 3 0 0 1-3-3v-7.314a30.87 30.87 0 0 1-7.638-3.163l-5.172 5.171a2.998 2.998 0 0 1-4.242 0l-7.165-7.164a2.998 2.998 0 0 1 0-4.242l5.172-5.172a30.832 30.832 0 0 1-3.164-7.639h-7.314a3 3 0 0 1-3-3V87.624a3 3 0 0 1 3-3h7.314a30.81 30.81 0 0 1 3.164-7.639l-5.172-5.172a3 3 0 0 1 0-4.242l7.165-7.164a3 3 0 0 1 4.243 0l5.171 5.172a30.794 30.794 0 0 1 7.639-3.164v-7.314a3 3 0 0 1 3-3h10.132a3 3 0 0 1 3 3v7.314a30.826 30.826 0 0 1 7.639 3.164l5.171-5.172c1.125-1.125 3.117-1.125 4.242 0l7.165 7.164a2.998 2.998 0 0 1 0 4.242l-5.172 5.172a30.832 30.832 0 0 1 3.164 7.639h7.313a3 3 0 0 1 3 3v10.132a3 3 0 0 1-3 3h-7.313a30.886 30.886 0 0 1-3.164 7.639l5.172 5.172a2.998 2.998 0 0 1 0 4.242l-7.165 7.164a2.998 2.998 0 0 1-4.242 0l-5.172-5.171a30.832 30.832 0 0 1-7.638 3.163v7.314a3 3 0 0 1-3.001 3zm-7.132-6h4.132v-6.719a3 3 0 0 1 2.467-2.952 25.03 25.03 0 0 0 9.884-4.094 2.996 2.996 0 0 1 3.83.345l4.75 4.75 2.922-2.922-4.75-4.751a3 3 0 0 1-.344-3.831 25.042 25.042 0 0 0 4.094-9.883 3 3 0 0 1 2.952-2.467h6.718v-4.132h-6.718a3 3 0 0 1-2.952-2.467 25.034 25.034 0 0 0-4.094-9.883 2.998 2.998 0 0 1 .344-3.831l4.75-4.751-2.922-2.922-4.75 4.751a3 3 0 0 1-3.831.344 25.025 25.025 0 0 0-9.883-4.094 3 3 0 0 1-2.467-2.952v-6.719h-4.132v6.719a3 3 0 0 1-2.467 2.952 25.015 25.015 0 0 0-9.882 4.094 2.999 2.999 0 0 1-3.832-.344l-4.75-4.751-2.922 2.922 4.75 4.751a3 3 0 0 1 .343 3.831 25.026 25.026 0 0 0-4.093 9.883 3 3 0 0 1-2.952 2.467H93.41v4.132h6.718a3 3 0 0 1 2.952 2.467 25.034 25.034 0 0 0 4.094 9.883 3 3 0 0 1-.343 3.831l-4.75 4.751 2.922 2.922 4.75-4.75a3 3 0 0 1 3.831-.344 25.041 25.041 0 0 0 9.883 4.093 3 3 0 0 1 2.467 2.952v6.719zM128 110.618c-9.886 0-17.928-8.043-17.928-17.929S118.114 74.762 128 74.762s17.929 8.042 17.929 17.928-8.043 17.928-17.929 17.928zm0-29.856c-6.577 0-11.928 5.351-11.928 11.928s5.351 11.929 11.928 11.929 11.929-5.352 11.929-11.929S134.577 80.762 128 80.762z"/></g></svg>
