<svg xmlns="http://www.w3.org/2000/svg" viewBox="0 0 24 24" fill="none" stroke="currentColor" stroke-width="2" stroke-linecap="round" stroke-linejoin="round">
  <path d="M21.327 8.566c0-4.339-2.843-5.61-2.843-5.61-1.433-.658-3.894-.935-6.451-.956h-.063c-2.557.021-5.016.298-6.45.956 0 0-2.843 1.272-2.843 5.61 0 .993-.019 2.181.012 3.441.103 4.243.778 8.425 4.701 9.463 1.809.479 3.362.579 4.612.510 2.268-.126 3.541-.809 3.541-.809l-.075-1.646s-1.621.511-3.441.449c-1.804-.062-3.707-.194-3.999-2.409a4.523 4.523 0 0 1-.04-.621s1.77.433 4.014.536c1.372.063 2.658-.08 3.965-.236 2.506-.299 4.688-1.843 4.962-3.254.434-2.223.398-5.424.398-5.424z"/>
  <path d="M17.79 10.33v3.97h-2.1v-3.85c0-1.08-.455-1.63-1.363-1.63-1.005 0-1.508.65-1.508 1.93v2.8h-2.092v-2.8c0-1.28-.504-1.93-1.508-1.93-.908 0-1.363.55-1.363 1.63v3.85h-2.1v-3.97c0-1.08.275-1.93.826-2.56.567-.63 1.31-.95 2.23-.95 1.067 0 1.875.41 2.405 1.23l.518.87.519-.87c.53-.82 1.338-1.23 2.405-1.23.92 0 1.663.32 2.23.95.551.63.826 1.48.826 2.56z"/>
</svg>

