<svg width="24" height="24" viewBox="0 0 24 24" fill="none" stroke="currentColor" stroke-width="2" stroke-linecap="round" stroke-linejoin="round">
  <path d="M12 11.5c-.87-1.69-3.24-4.84-5.44-6.4-2.1-1.48-2.89-1.24-3.42-1.01-.62.27-.72 1.17-.72 1.72 0 .55.3 4.52.5 5.18.65 2.19 2.97 2.93 5.1 2.69.11-.02.22-.03.33-.04-.11.01-.22.03-.33.04-3.13.47-5.91 1.61-2.26 5.67 4.01 4.15 5.5-.89 6.26-3.45.76 2.56 1.64 7.42 6.19 3.45 3.41-3.45.94-5.2-2.19-5.67-.11-.01-.22-.03-.33-.04.11.01.22.02.33.04 2.14.24 4.45-.5 5.1-2.69.2-.66.5-4.63.5-5.18 0-.55-.11-1.49-.72-1.77-.53-.24-1.33-.5-3.44.99-2.2 1.56-4.57 3.71-5.44 6.4Z" stroke-width="1.815"/>
</svg>