<svg version="1.1" id="Layer_3" xmlns="http://www.w3.org/2000/svg" x="0" y="0" viewBox="0 0 64 64" style="enable-background:new 0 0 64 64" xml:space="preserve"><style>.st1{fill:#63312d}.st2{fill:#f9a287}.st6{fill:#84dbff}.st7{fill:#efc36a}.st8{fill:#f9dd9d}</style><path class="st8" d="M46.329 12.876c-5.428.251-9.876 4.749-10.072 10.179a10.536 10.536 0 0 0 3.248 8.017c1.566 1.502 2.483 3.554 2.483 5.723v.434h9.689v-.431c0-2.192.955-4.243 2.528-5.769a10.532 10.532 0 0 0 3.21-7.582c-.001-6.012-5.013-10.852-11.086-10.571z"/><path d="M41.223 31.072a10.536 10.536 0 0 1-3.248-8.017c.192-5.313 4.456-9.722 9.724-10.146-.45-.037-.906-.055-1.37-.033-5.428.251-9.876 4.749-10.072 10.179a10.536 10.536 0 0 0 3.248 8.017c1.566 1.502 2.483 3.554 2.483 5.723v.434h1.718v-.434c0-2.169-.917-4.221-2.483-5.723z" style="fill:#ffe8bb"/><path class="st1" d="M51.677 37.729h-9.689a.5.5 0 0 1-.5-.5v-.434c0-1.988-.849-3.943-2.328-5.361a11.094 11.094 0 0 1-3.402-8.396c.207-5.714 4.841-10.396 10.549-10.66 3.078-.156 5.967.941 8.179 3.053a10.986 10.986 0 0 1 3.43 8.017c0 3.017-1.194 5.837-3.361 7.94-1.532 1.487-2.376 3.409-2.376 5.411v.431a.503.503 0 0 1-.502.499zm-9.19-1h8.689c.02-2.249.969-4.398 2.679-6.059a9.984 9.984 0 0 0 3.059-7.224 9.991 9.991 0 0 0-3.121-7.293c-2.011-1.92-4.653-2.897-7.44-2.778-5.193.24-9.408 4.5-9.596 9.697a10.093 10.093 0 0 0 3.094 7.64c1.659 1.59 2.618 3.781 2.636 6.017z"/><path class="st6" d="M41.139 37.23v4.303a2.3 2.3 0 0 0 2.301 2.301h6.784a2.3 2.3 0 0 0 2.301-2.301V37.23H41.139z"/><path d="M42.764 43.167v-4.303h9.76V37.23H41.139v4.303c0 1.064.727 1.951 1.708 2.214a2.314 2.314 0 0 1-.083-.58z" style="fill:#a9ebff"/><path class="st1" d="M50.224 44.334H43.44a2.805 2.805 0 0 1-2.801-2.801V37.23a.5.5 0 0 1 .5-.5h11.385a.5.5 0 0 1 .5.5v4.304c0 1.544-1.256 2.8-2.8 2.8zM41.64 37.73v3.804c0 .993.808 1.801 1.801 1.801h6.783c.993 0 1.801-.808 1.801-1.801V37.73H41.64z"/><path class="st8" d="M44.861 43.834h4.518v2.902h-4.518z"/><path class="st7" d="M44.861 43.834h4.518v.989h-4.518z"/><path class="st1" d="M49.379 47.237h-4.518a.5.5 0 0 1-.5-.5v-2.902a.5.5 0 0 1 .5-.5h4.518a.5.5 0 0 1 .5.5v2.902a.5.5 0 0 1-.5.5zm-4.018-1h3.518v-1.902h-3.518v1.902z"/><path class="st7" d="M49.379 43.834h2.259v2.902h-2.259z"/><path style="fill:#d3a553" d="M49.379 43.834h2.259v.989h-2.259z"/><path class="st1" d="M51.638 47.237h-2.259a.5.5 0 0 1-.5-.5v-2.902a.5.5 0 0 1 .5-.5h2.259a.5.5 0 0 1 .5.5v2.902a.5.5 0 0 1-.5.5zm-1.759-1h1.259v-1.902h-1.259v1.902z"/><path class="st7" d="M49.831 12.876h-3.005v.003c5.846-.002 10.589 4.722 10.589 10.568a10.53 10.53 0 0 1-3.21 7.582c-1.573 1.527-2.528 3.578-2.528 5.769v.431h3.502v-.431c0-2.192.955-4.243 2.528-5.769a10.532 10.532 0 0 0 3.21-7.582c0-6.012-5.013-10.852-11.086-10.571z"/><path class="st1" d="M55.179 37.729h-3.502a.5.5 0 0 1-.5-.5v-.431c0-2.274.951-4.451 2.679-6.128a9.984 9.984 0 0 0 3.059-7.224 9.997 9.997 0 0 0-2.955-7.123 10.035 10.035 0 0 0-7.132-2.945c-.138.033-.335-.089-.428-.237a.504.504 0 0 1 .427-.764h2.993c3.074-.139 5.959.945 8.168 3.054a10.986 10.986 0 0 1 3.43 8.017 10.98 10.98 0 0 1-3.361 7.94c-1.533 1.487-2.377 3.409-2.377 5.411v.431a.501.501 0 0 1-.501.499zm-3.002-1h2.502c.02-2.25.97-4.399 2.68-6.059a9.987 9.987 0 0 0 3.059-7.224 9.995 9.995 0 0 0-3.121-7.293 9.983 9.983 0 0 0-5.715-2.714 11.083 11.083 0 0 1 3.084 2.176 10.984 10.984 0 0 1 3.249 7.831c0 3.017-1.194 5.837-3.361 7.94-1.516 1.472-2.358 3.366-2.377 5.343z"/><path d="M52.525 37.23v4.303a2.3 2.3 0 0 1-2.301 2.301h3.329a2.436 2.436 0 0 0 2.436-2.436V37.23h-3.464z" style="fill:#52badb"/><path class="st1" d="M53.553 44.334h-3.329a.5.5 0 0 1 0-1c.993 0 1.801-.808 1.801-1.801V37.23a.5.5 0 0 1 .5-.5h3.465a.5.5 0 0 1 .5.5v4.168a2.94 2.94 0 0 1-2.937 2.936zm-1.186-1h1.186a1.94 1.94 0 0 0 1.937-1.937V37.73h-2.465v3.804a2.792 2.792 0 0 1-.658 1.8z"/><circle class="st6" cx="6.801" cy="20.061" r="3.717"/><circle class="st6" cx="6.801" cy="31.399" r="3.717"/><circle class="st6" cx="6.801" cy="42.737" r="3.717"/><path class="st1" d="M6.801 24.278a4.222 4.222 0 0 1-4.218-4.217 4.223 4.223 0 0 1 4.218-4.218 4.222 4.222 0 0 1 4.217 4.218 4.222 4.222 0 0 1-4.217 4.217zm0-7.435a3.222 3.222 0 0 0-3.218 3.218 3.221 3.221 0 0 0 3.218 3.217 3.221 3.221 0 0 0 3.217-3.217 3.222 3.222 0 0 0-3.217-3.218zM6.801 35.616a4.222 4.222 0 0 1-4.218-4.217 4.223 4.223 0 0 1 4.218-4.218 4.222 4.222 0 0 1 4.217 4.218 4.222 4.222 0 0 1-4.217 4.217zm0-7.435a3.222 3.222 0 0 0-3.218 3.218 3.221 3.221 0 0 0 3.218 3.217 3.221 3.221 0 0 0 3.217-3.217 3.222 3.222 0 0 0-3.217-3.218zM6.801 46.955a4.223 4.223 0 0 1-4.218-4.218 4.222 4.222 0 0 1 4.218-4.217 4.222 4.222 0 0 1 4.217 4.217 4.222 4.222 0 0 1-4.217 4.218zm0-7.435a3.221 3.221 0 0 0-3.218 3.217 3.222 3.222 0 0 0 3.218 3.218 3.221 3.221 0 0 0 3.217-3.218 3.221 3.221 0 0 0-3.217-3.217z"/><circle class="st2" cx="18.519" cy="20.061" r="3.717"/><circle class="st2" cx="18.519" cy="31.399" r="3.717"/><circle class="st2" cx="18.519" cy="42.737" r="3.717"/><path class="st1" d="M18.519 24.278a4.222 4.222 0 0 1-4.217-4.217 4.222 4.222 0 0 1 4.217-4.218 4.223 4.223 0 0 1 4.218 4.218 4.223 4.223 0 0 1-4.218 4.217zm0-7.435a3.221 3.221 0 0 0-3.217 3.218 3.221 3.221 0 0 0 3.217 3.217 3.221 3.221 0 0 0 3.218-3.217 3.223 3.223 0 0 0-3.218-3.218zM18.519 35.616a4.222 4.222 0 0 1-4.217-4.217 4.222 4.222 0 0 1 4.217-4.218 4.223 4.223 0 0 1 4.218 4.218 4.223 4.223 0 0 1-4.218 4.217zm0-7.435a3.221 3.221 0 0 0-3.217 3.218 3.221 3.221 0 0 0 3.217 3.217 3.221 3.221 0 0 0 3.218-3.217 3.223 3.223 0 0 0-3.218-3.218zM18.519 46.955a4.222 4.222 0 0 1-4.217-4.218 4.222 4.222 0 0 1 4.217-4.217 4.222 4.222 0 0 1 4.218 4.217 4.223 4.223 0 0 1-4.218 4.218zm0-7.435a3.221 3.221 0 0 0-3.217 3.217 3.221 3.221 0 0 0 3.217 3.218 3.222 3.222 0 0 0 3.218-3.218 3.222 3.222 0 0 0-3.218-3.217z"/><path class="st1" d="M10.518 19.561h4.284v1h-4.284zM10.518 30.899h4.284v1h-4.284zM10.518 42.237h4.284v1h-4.284z"/><path transform="rotate(-45.637 12.66 25.73)" class="st1" d="M12.16 21.291h1v8.876h-1z"/><path transform="rotate(-44.368 12.659 25.727)" class="st1" d="M8.222 25.229h8.876v1H8.222z"/><path transform="rotate(-45.645 12.658 37.067)" class="st1" d="M12.16 32.63h1v8.875h-1z"/><path transform="rotate(-44.368 12.659 37.065)" class="st1" d="M8.223 36.568h8.875v1H8.223z"/><path class="st1" d="M45.125 51.637H32c-1.93 0-3.5-1.57-3.5-3.5V23.061c0-1.379-1.121-2.5-2.5-2.5h-3.764v-1H26c1.93 0 3.5 1.57 3.5 3.5v25.076c0 1.379 1.121 2.5 2.5 2.5h13.125c1.379 0 2.5-1.121 2.5-2.5v-1.4h1v1.4c0 1.93-1.57 3.5-3.5 3.5z"/><path class="st1" d="M22.236 30.899H29v1h-6.764zM22.236 42.237H29v1h-6.764zM48.405 37.23h-1v-8.118c0-.142.06-.275.164-.371l2.209-2 .672.742-2.045 1.851v7.896zM46.246 37.23h-1v-7.896l-2.045-1.851.672-.742 2.209 2a.504.504 0 0 1 .164.371v8.118zM30.708 27.112h1v5.583h-1zM30.708 33.924h1v1.96h-1z"/></svg>
