<svg version="1.1" id="Icon_Set" xmlns="http://www.w3.org/2000/svg" x="0" y="0" viewBox="0 0 256 256" style="enable-background:new 0 0 256 256" xml:space="preserve"><style>.st0{fill:#4c4372}.st2{fill:#fd919e}</style><circle cx="128" cy="128" r="103.5" style="fill:#f0c48a"/><path class="st2" d="M162.283 84.781v-9.24h-8.864a25.67 25.67 0 0 0-4.178-10.087l6.268-6.268-6.534-6.534-6.268 6.268a25.684 25.684 0 0 0-10.087-4.178v-8.863h-9.24v8.863a25.67 25.67 0 0 0-10.087 4.178l-6.268-6.268-6.534 6.534 6.268 6.268a25.67 25.67 0 0 0-4.178 10.087h-8.864v9.24h8.864a25.675 25.675 0 0 0 4.178 10.087l-6.268 6.267 6.534 6.535 6.268-6.268a25.684 25.684 0 0 0 10.087 4.178v8.863h9.24v-8.863a25.684 25.684 0 0 0 10.087-4.178l6.268 6.268 6.534-6.535-6.268-6.267a25.675 25.675 0 0 0 4.178-10.087h8.864zM128 93.776c-7.52 0-13.615-6.096-13.615-13.615 0-7.52 6.096-13.615 13.615-13.615s13.615 6.096 13.615 13.615c0 7.52-6.095 13.615-13.615 13.615z"/><path class="st0" d="M132.62 117.443h-9.24a3 3 0 0 1-3-3v-6.468a28.413 28.413 0 0 1-6.659-2.758l-4.574 4.573a2.996 2.996 0 0 1-4.242 0l-6.534-6.535a2.998 2.998 0 0 1 0-4.242l4.573-4.573a28.406 28.406 0 0 1-2.758-6.659h-6.469a3 3 0 0 1-3-3v-9.24a3 3 0 0 1 3-3h6.469a28.388 28.388 0 0 1 2.758-6.659l-4.573-4.574a2.998 2.998 0 0 1 0-4.242l6.534-6.534a2.998 2.998 0 0 1 4.242 0l4.574 4.573a28.406 28.406 0 0 1 6.659-2.758v-6.468a3 3 0 0 1 3-3h9.24a3 3 0 0 1 3 3v6.468a28.388 28.388 0 0 1 6.659 2.758l4.574-4.573a2.998 2.998 0 0 1 4.242 0l6.534 6.534a2.998 2.998 0 0 1 0 4.242l-4.573 4.574a28.406 28.406 0 0 1 2.758 6.659h6.469a3 3 0 0 1 3 3v9.24a3 3 0 0 1-3 3h-6.469a28.388 28.388 0 0 1-2.758 6.659l4.573 4.573a2.998 2.998 0 0 1 0 4.242l-6.534 6.535c-1.125 1.125-3.117 1.125-4.242 0l-4.574-4.573a28.43 28.43 0 0 1-6.659 2.758v6.468a3 3 0 0 1-3 3zm-6.24-6h3.24v-5.863a3 3 0 0 1 2.467-2.952 22.566 22.566 0 0 0 8.91-3.69 2.995 2.995 0 0 1 3.831.344l4.146 4.146 2.292-2.292-4.146-4.146a3 3 0 0 1-.344-3.831 22.549 22.549 0 0 0 3.69-8.91 3 3 0 0 1 2.952-2.467h5.864v-3.24h-5.864a3 3 0 0 1-2.952-2.467 22.549 22.549 0 0 0-3.69-8.91 2.998 2.998 0 0 1 .344-3.831l4.146-4.146-2.292-2.292-4.146 4.146a3.002 3.002 0 0 1-3.831.344 22.549 22.549 0 0 0-8.91-3.69 3 3 0 0 1-2.467-2.952v-5.863h-3.24v5.863a3 3 0 0 1-2.467 2.952 22.549 22.549 0 0 0-8.91 3.69 2.998 2.998 0 0 1-3.831-.344l-4.146-4.146-2.292 2.292 4.146 4.146a3 3 0 0 1 .344 3.831 22.549 22.549 0 0 0-3.69 8.91 3 3 0 0 1-2.952 2.467h-5.864v3.24h5.864a3 3 0 0 1 2.952 2.467 22.549 22.549 0 0 0 3.69 8.91 2.998 2.998 0 0 1-.344 3.831l-4.146 4.146 2.292 2.292 4.146-4.146a3 3 0 0 1 3.831-.344 22.566 22.566 0 0 0 8.91 3.69 3 3 0 0 1 2.467 2.952v5.863zM128 96.776c-9.162 0-16.615-7.453-16.615-16.615S118.838 63.546 128 63.546s16.615 7.453 16.615 16.615S137.162 96.776 128 96.776zm0-27.23c-5.854 0-10.615 4.762-10.615 10.615S122.146 90.776 128 90.776s10.615-4.762 10.615-10.615S133.854 69.546 128 69.546z"/><path class="st2" d="M183.356 103.981c-20.833-.521-37.971 15.81-38.76 36.333a38.1 38.1 0 0 0-.031 1.478c0 .495.013.987.031 1.477v9l-9.131 14.386c-.937 1.476.123 3.403 1.87 3.403h7.261v17.475a7.17 7.17 0 0 0 7.17 7.17h19.852v15.418h37.666v-36.297c0-3.275 1.134-6.432 3.128-9.029a37.65 37.65 0 0 0 7.798-22.881c.065-20.466-16.394-37.421-36.854-37.933z"/><path d="M187.153 104.269c14.987 5.09 23.879 19.369 23.827 35.956a37.653 37.653 0 0 1-7.799 22.881c-1.994 2.599-3.128 5.754-3.128 9.03v37.985h9.23v-36.297c0-3.275 1.134-6.432 3.128-9.03a37.644 37.644 0 0 0 7.798-22.88c.061-19.184-14.395-35.282-33.056-37.645z" style="fill:#e8677d"/><path class="st0" d="M209.284 213.121h-37.666a3 3 0 0 1-3-3v-12.418h-16.852c-5.607 0-10.17-4.563-10.17-10.17v-14.475h-4.261a5.216 5.216 0 0 1-4.403-8.011l8.664-13.65v-8.072a41.083 41.083 0 0 1-.031-1.533c0-.533.014-1.063.033-1.591a40.686 40.686 0 0 1 40.79-39.231c.346 0 .694.004 1.043.013 22.004.551 39.849 18.916 39.778 40.941-.027 9.017-2.938 17.558-8.418 24.697-1.617 2.107-2.508 4.665-2.508 7.203v36.297a2.998 2.998 0 0 1-2.999 3zm-34.666-6h31.666v-33.297c0-3.852 1.331-7.707 3.748-10.856 4.672-6.088 7.154-13.371 7.178-21.063.061-18.788-15.16-34.455-33.929-34.925a33.339 33.339 0 0 0-.893-.011 34.702 34.702 0 0 0-34.794 33.46c-.018.451-.029.905-.029 1.362s.012.911.029 1.364l.002.113v9c0 .569-.162 1.127-.467 1.607l-8.367 13.182h5.834a3 3 0 0 1 3 3v17.475a4.175 4.175 0 0 0 4.17 4.17h19.852a3 3 0 0 1 3 3v12.419z"/><path d="M72.643 103.981c20.834-.521 37.972 15.81 38.761 36.333.019.49.031.982.031 1.478 0 .495-.013.987-.031 1.477v9l9.131 14.386c.937 1.476-.123 3.403-1.87 3.403h-7.261v17.475a7.17 7.17 0 0 1-7.17 7.17H84.382v15.418H46.716v-36.297c0-3.275-1.134-6.432-3.128-9.029a37.657 37.657 0 0 1-7.799-22.881c-.064-20.466 16.395-37.421 36.854-37.933z" style="fill:#d3e6f8"/><path class="st0" d="M84.382 213.121H46.716a3 3 0 0 1-3-3v-36.297c0-2.538-.891-5.096-2.508-7.202-5.479-7.141-8.391-15.681-8.419-24.698-.069-22.025 17.775-40.391 39.778-40.941 22.522-.566 40.976 16.873 41.834 39.217.02.529.033 1.06.033 1.593 0 .514-.013 1.024-.031 1.533v8.072l8.664 13.65a5.214 5.214 0 0 1-4.403 8.011h-4.261v14.475c0 5.607-4.563 10.17-10.17 10.17H87.382v12.418a3 3 0 0 1-3 2.999zm-34.666-6h31.666v-12.418a3 3 0 0 1 3-3h19.852a4.175 4.175 0 0 0 4.17-4.17v-17.475a3 3 0 0 1 3-3h5.834l-8.367-13.182a2.998 2.998 0 0 1-.467-1.607v-9l.002-.113c.018-.453.029-.907.029-1.364s-.012-.911-.029-1.364c-.731-19.057-16.539-33.923-35.688-33.447-18.768.47-33.988 16.137-33.929 34.924.024 7.692 2.507 14.977 7.179 21.064 2.417 3.148 3.748 7.004 3.748 10.855v33.297zM168.705 143.076h-5.803l-1.17 3.104a1.341 1.341 0 0 1-1.242.836c-.167 0-.311-.023-.454-.071a1.357 1.357 0 0 1-.788-1.72l5.278-14.065c.215-.525.74-.859 1.266-.836a1.316 1.316 0 0 1 1.266.836l5.277 14.065a1.357 1.357 0 0 1-.788 1.72 1.288 1.288 0 0 1-.454.071 1.287 1.287 0 0 1-1.218-.836l-1.17-3.104zm-.979-2.627-1.934-5.134-1.935 5.134h3.869zM175.606 145.703v-14.089c0-.74.597-1.314 1.314-1.314h3.39a4.534 4.534 0 0 1 4.537 4.537 4.502 4.502 0 0 1-.907 2.723c1.433.907 2.412 2.507 2.412 4.322 0 2.842-2.292 5.134-5.11 5.134h-4.227c-.024 0-.024-.023-.024-.023-.048 0-.048.023-.071.023a1.324 1.324 0 0 1-1.314-1.313zm2.651-8.93h2.054c1.051 0 1.887-.884 1.887-1.935a1.876 1.876 0 0 0-1.887-1.887h-2.054v3.822zm0 7.593h2.985c1.361-.024 2.46-1.099 2.46-2.483 0-1.361-1.099-2.436-2.46-2.46h-2.985v4.943zM189.051 138.42c.024-4.729 3.988-8.573 8.764-8.597 2.102 0 4.012.692 5.517 1.862.573.478.669 1.313.239 1.91-.477.598-1.361.692-1.911.263-1.051-.859-2.364-1.313-3.845-1.313-1.647 0-3.176.669-4.298 1.72-1.075 1.099-1.743 2.531-1.743 4.155s.668 3.104 1.743 4.155c1.122 1.051 2.65 1.719 4.298 1.719 1.48 0 2.771-.453 3.845-1.313.55-.405 1.434-.31 1.911.263.43.598.334 1.457-.239 1.911-1.505 1.17-3.415 1.862-5.517 1.862-4.776 0-8.74-3.845-8.764-8.597z"/><g><path class="st0" d="M61.289 143.076h-5.803l-1.17 3.104a1.341 1.341 0 0 1-1.242.836c-.167 0-.311-.023-.454-.071a1.357 1.357 0 0 1-.788-1.72l5.278-14.065c.215-.525.74-.859 1.266-.836a1.316 1.316 0 0 1 1.266.836l5.277 14.065a1.357 1.357 0 0 1-.788 1.72 1.288 1.288 0 0 1-.454.071 1.287 1.287 0 0 1-1.218-.836l-1.17-3.104zm-.979-2.627-1.934-5.134-1.935 5.134h3.869zM68.19 145.703v-14.089c0-.74.597-1.314 1.313-1.314h3.39a4.534 4.534 0 0 1 4.537 4.537 4.502 4.502 0 0 1-.907 2.723c1.433.907 2.412 2.507 2.412 4.322 0 2.842-2.292 5.134-5.11 5.134H69.6c-.024 0-.024-.023-.024-.023-.048 0-.048.023-.071.023a1.324 1.324 0 0 1-1.315-1.313zm2.651-8.93h2.054c1.051 0 1.887-.884 1.887-1.935a1.876 1.876 0 0 0-1.887-1.887h-2.054v3.822zm0 7.593h2.985c1.361-.024 2.46-1.099 2.46-2.483 0-1.361-1.099-2.436-2.46-2.46h-2.985v4.943zM81.635 138.42c.024-4.729 3.988-8.573 8.764-8.597 2.102 0 4.012.692 5.517 1.862.573.478.669 1.313.239 1.91-.477.598-1.361.692-1.911.263-1.051-.859-2.364-1.313-3.845-1.313-1.647 0-3.176.669-4.298 1.72-1.075 1.099-1.743 2.531-1.743 4.155s.668 3.104 1.743 4.155c1.122 1.051 2.65 1.719 4.298 1.719 1.48 0 2.771-.453 3.845-1.313.55-.405 1.434-.31 1.911.263.43.598.334 1.457-.239 1.911-1.505 1.17-3.415 1.862-5.517 1.862-4.776 0-8.74-3.845-8.764-8.597z"/></g></svg>
