<svg xmlns="http://www.w3.org/2000/svg" xml:space="preserve" width="655.359" height="655.359" style="shape-rendering:geometricPrecision;text-rendering:geometricPrecision;image-rendering:optimizeQuality;fill-rule:evenodd;clip-rule:evenodd" viewBox="0 0 6.827 6.827"><defs><style>.fil0{fill:#212121;fill-rule:nonzero}</style></defs><g id="Layer_x0020_1"><g id="_554256688"><path id="_554256280" class="fil0" d="M1.128.987h4.57a.168.168 0 0 1 .169.168V4.68a.168.168 0 0 1-.168.168h-1.47l.31-.1-.225-.109h1.344V1.196h-4.49v3.442h1.48l.055.209H1.128a.168.168 0 0 1-.168-.168V1.155c0-.046.019-.087.05-.118.03-.031.072-.05.118-.05z"/><path id="_554256568" class="fil0" d="M1.412 4.067a.107.107 0 0 0 .15.151l1.253-1.252.946.946a.107.107 0 0 0 .15-.151l-1.02-1.02V2.74a.107.107 0 0 0-.152 0L1.412 4.067z"/><path id="_554256544" class="fil0" d="M3.301 3.301a.107.107 0 0 0 .151.151l.866-.866.946.946a.107.107 0 0 0 .15-.151l-1.02-1.02V2.36a.107.107 0 0 0-.151 0L3.3 3.3z"/><path id="_554256376" class="fil0" d="M2.202 1.585a.514.514 0 0 1 .364.88.514.514 0 0 1-.88-.365.514.514 0 0 1 .516-.515zm.214.302A.3.3 0 0 0 1.9 2.1a.3.3 0 0 0 .516.213.3.3 0 0 0 0-.426z"/><path id="_554256496" class="fil0" d="m3.557 4.955.618.752-.16.133-.617-.751-.228.42-.126.233-.067-.256-.353-1.354-.056-.218.202.098 1.255.603.234.113-.247.08-.455.147zm.144-.265-.819-.394.23.882.176-.325.02-.036.04-.013.353-.114z"/></g></g><path style="fill:none" d="M0 0h6.827v6.827H0z"/></svg>
