<svg xmlns="http://www.w3.org/2000/svg" width="128" height="128"><path fill="#95edf7" d="M58.427 57.312h11.145v39.093H58.427z"/><path fill="#f8495d" d="M37.85 66.921h11.145v29.484H37.85z"/><path fill="#ffee85" d="M79.005 47.945H90.15v48.46H79.005z"/><path d="M89.818 31.528a1.748 1.748 0 0 0-1.526-1.274l-5.792-.533a1.73 1.73 0 0 0-1.9 1.579 1.749 1.749 0 0 0 1.582 1.9l1.193.11-14.726 10.811-3.722-5.553a1.748 1.748 0 0 0-2.476-.445L38.845 55.128a1.75 1.75 0 0 0 2.046 2.84l22.137-15.947 3.73 5.566a1.75 1.75 0 0 0 2.489.436L85.96 35.761l-.182 1.661a1.75 1.75 0 0 0 1.549 1.93 1.8 1.8 0 0 0 .193.01 1.75 1.75 0 0 0 1.737-1.562l.615-5.616c0-.013-.008-.024-.009-.036a1.711 1.711 0 0 0-.045-.62z" fill="#00c700"/><path d="M104.089 98.287H23.911a1.75 1.75 0 0 1 0-3.5h80.178a1.75 1.75 0 0 1 0 3.5z" fill="#dee1f3"/></svg>
